<!-- Generated by IcoMoon.io -->
<svg version="1.1" xmlns="http://www.w3.org/2000/svg" width="30" height="30" viewBox="0 0 30 30">
<title>android</title>
<path fill="#fff" d="M26.25 11.25c-1.031 0-1.875 0.844-1.875 1.875v7.5c0 1.031 0.844 1.875 1.875 1.875s1.875-0.844 1.875-1.875v-7.5c0-1.031-0.844-1.875-1.875-1.875zM3.75 11.25c-1.031 0-1.875 0.844-1.875 1.875v7.5c0 1.031 0.844 1.875 1.875 1.875s1.875-0.844 1.875-1.875v-7.5c0-1.031-0.844-1.875-1.875-1.875zM6.563 21.563c0 1.553 1.259 2.813 2.813 2.813v0 3.75c0 1.031 0.844 1.875 1.875 1.875s1.875-0.844 1.875-1.875v-3.75h3.75v3.75c0 1.031 0.844 1.875 1.875 1.875s1.875-0.844 1.875-1.875v-3.75c1.553 0 2.813-1.259 2.813-2.813v-10.313h-16.875v10.313z"></path>
<path fill="#fff" d="M23.385 9.375c-0.285-2.575-1.729-4.799-3.797-6.142l0.938-1.876c0.232-0.463 0.044-1.026-0.419-1.258s-1.026-0.044-1.258 0.419l-0.942 1.883-0.245-0.097c-0.837-0.278-1.732-0.429-2.663-0.429s-1.826 0.151-2.663 0.429l-0.245 0.097-0.942-1.883c-0.232-0.463-0.795-0.651-1.258-0.419s-0.651 0.795-0.419 1.258l0.938 1.876c-2.069 1.343-3.513 3.567-3.798 6.142v0.938h16.823v-0.937h-0.052zM12.188 7.5c-0.518 0-0.938-0.42-0.938-0.938s0.419-0.936 0.935-0.937c0.001 0 0.002 0 0.003 0s0.001-0 0.002-0c0.517 0.001 0.935 0.42 0.935 0.937s-0.42 0.938-0.938 0.938zM17.813 7.5c-0.518 0-0.938-0.42-0.938-0.938s0.419-0.936 0.935-0.937c0 0 0.001 0 0.001 0s0.002-0 0.003-0c0.517 0.001 0.935 0.42 0.935 0.937s-0.42 0.938-0.938 0.938z"></path>
</svg>
