<!-- Generated by IcoMoon.io -->
<svg version="1.1" xmlns="http://www.w3.org/2000/svg" width="30" height="30" viewBox="0 0 30 30">
<title>arrow-up-right2</title>
<path fill="#fff" d="M6.951 25.701l15.549-15.549v6.723c0 1.036 0.839 1.875 1.875 1.875s1.875-0.839 1.875-1.875v-11.25c0-0.758-0.457-1.442-1.157-1.732-0.232-0.096-0.476-0.142-0.718-0.142v-0.001h-11.25c-1.036 0-1.875 0.839-1.875 1.875s0.839 1.875 1.875 1.875h6.723l-15.549 15.549c-0.366 0.366-0.549 0.846-0.549 1.326s0.183 0.96 0.549 1.326c0.732 0.732 1.919 0.732 2.652 0z"></path>
</svg>
