<!-- Generated by IcoMoon.io -->
<svg version="1.1" xmlns="http://www.w3.org/2000/svg" width="30" height="30" viewBox="0 0 30 30">
<title>attachment</title>
<path fill="#fff" d="M19.507 9.581l-1.903-1.902-9.516 9.514c-1.577 1.576-1.577 4.132 0 5.708s4.133 1.576 5.709 0l11.419-11.417c2.628-2.627 2.628-6.887 0-9.513-2.627-2.628-6.888-2.628-9.515 0l-11.989 11.988c-0.008 0.009-0.018 0.017-0.026 0.025-3.665 3.665-3.665 9.605 0 13.269 3.664 3.664 9.606 3.664 13.271 0 0.008-0.008 0.015-0.017 0.024-0.026l0.001 0.001 8.184-8.182-1.904-1.902-8.183 8.182c-0.009 0.008-0.017 0.017-0.025 0.025-2.61 2.609-6.855 2.609-9.465 0s-2.609-6.853 0-9.462c0.009-0.009 0.018-0.017 0.026-0.025l-0.001-0.002 11.991-11.987c1.574-1.574 4.135-1.574 5.71 0s1.574 4.135 0 5.708l-11.419 11.417c-0.525 0.525-1.379 0.525-1.903 0-0.524-0.524-0.524-1.378 0-1.902l9.516-9.515z"></path>
</svg>
