<!-- Generated by IcoMoon.io -->
<svg version="1.1" xmlns="http://www.w3.org/2000/svg" width="30" height="30" viewBox="0 0 30 30">
<title>barcode</title>
<path fill="#fff" d="M0 3.75h3.75v18.75h-3.75zM5.625 3.75h1.875v18.75h-1.875zM9.375 3.75h1.875v18.75h-1.875zM15 3.75h1.875v18.75h-1.875zM22.5 3.75h1.875v18.75h-1.875zM28.125 3.75h1.875v18.75h-1.875zM18.75 3.75h0.938v18.75h-0.938zM13.125 3.75h0.938v18.75h-0.938zM25.313 3.75h0.938v18.75h-0.938zM0 24.375h1.875v1.875h-1.875zM5.625 24.375h1.875v1.875h-1.875zM9.375 24.375h1.875v1.875h-1.875zM18.75 24.375h1.875v1.875h-1.875zM28.125 24.375h1.875v1.875h-1.875zM22.5 24.375h3.75v1.875h-3.75zM13.125 24.375h3.75v1.875h-3.75z"></path>
</svg>
