<!-- Generated by IcoMoon.io -->
<svg version="1.1" xmlns="http://www.w3.org/2000/svg" width="30" height="30" viewBox="0 0 30 30">
<title>basecamp</title>
<path fill="#fff" d="M15 3.123c-5.473 0-9.691 4.582-12.082 9.070-1.348 2.525-2.291 5.291-2.725 8.121-0.047 0.322-0.094 0.645-0.129 0.973-0.018 0.176-0.035 0.352-0.047 0.527-0.018 0.223-0.006 0.293 0.111 0.48 0.352 0.568 0.768 1.096 1.236 1.57 0.961 0.984 2.127 1.74 3.363 2.326 2.818 1.33 6 1.811 9.094 1.916 3.193 0.105 6.475-0.158 9.527-1.154 2.607-0.85 5.121-2.332 6.568-4.729 0.158-0.258 0.047-0.639 0.018-0.938-0.035-0.357-0.082-0.709-0.141-1.061-0.105-0.691-0.246-1.371-0.416-2.051-0.34-1.383-0.803-2.742-1.365-4.049-2.039-4.734-5.812-9.785-11.18-10.828-0.604-0.117-1.219-0.176-1.834-0.176zM15.188 26.080c-3.346 0-6.99-0.299-10.002-1.91-1.172-0.627-2.367-1.535-2.93-2.783-0.164-0.363-0.105-0.504-0.029-0.932 0.053-0.275 0.076-0.545 0.199-0.803 0.17-0.357 0.346-0.709 0.527-1.061 0.615-1.189 1.277-2.367 2.045-3.475 0.381-0.545 0.785-1.084 1.254-1.553 0.328-0.328 0.727-0.68 1.189-0.791 1.418-0.34 2.502 1.301 3.363 2.127 0.416 0.398 0.973 0.85 1.594 0.773 0.428-0.053 0.809-0.387 1.113-0.662 1.037-0.932 1.869-2.086 2.73-3.17 0.428-0.533 0.85-1.072 1.312-1.582 0.311-0.346 0.65-0.738 1.066-0.961 0.744-0.404 1.693 0.428 2.209 0.855 0.879 0.732 1.658 1.588 2.402 2.455 0.709 0.826 1.395 1.664 1.998 2.572 0.932 1.406 1.74 2.906 2.479 4.424 0.158 0.328 0.211 0.551 0.27 0.914 0.035 0.199 0.111 0.428 0.082 0.633-0.041 0.287-0.24 0.598-0.387 0.832-0.352 0.557-0.826 1.037-1.348 1.441-2.186 1.693-5.145 2.256-7.834 2.508-1.102 0.105-2.203 0.146-3.305 0.146z"></path>
</svg>
