<!-- Generated by IcoMoon.io -->
<svg version="1.1" xmlns="http://www.w3.org/2000/svg" width="30" height="30" viewBox="0 0 30 30">
<title>bin</title>
<path fill="#fff" d="M3.75 9.375v18.75c0 1.031 0.844 1.875 1.875 1.875h16.875c1.031 0 1.875-0.844 1.875-1.875v-18.75h-20.625zM9.375 26.25h-1.875v-13.125h1.875v13.125zM13.125 26.25h-1.875v-13.125h1.875v13.125zM16.875 26.25h-1.875v-13.125h1.875v13.125zM20.625 26.25h-1.875v-13.125h1.875v13.125z"></path>
<path fill="#fff" d="M24.844 3.75h-6.094v-2.344c0-0.773-0.633-1.406-1.406-1.406h-6.563c-0.773 0-1.406 0.633-1.406 1.406v2.344h-6.094c-0.773 0-1.406 0.633-1.406 1.406v2.344h24.375v-2.344c0-0.773-0.633-1.406-1.406-1.406zM16.875 3.75h-5.625v-1.852h5.625v1.852z"></path>
</svg>
