<!-- Generated by IcoMoon.io -->
<svg version="1.1" xmlns="http://www.w3.org/2000/svg" width="30" height="30" viewBox="0 0 30 30">
<title>binoculars</title>
<path fill="#fff" d="M1.875 0h11.25v1.875h-11.25zM16.875 0h11.25v1.875h-11.25zM27.891 9.375h-1.641v-7.5h-7.5v7.5h-7.5v-7.5h-7.5v7.5h-1.641c-1.16 0-2.109 0.949-2.109 2.109v16.406c0 1.16 0.949 2.109 2.109 2.109h8.906c1.16 0 2.109-0.949 2.109-2.109v-11.016h3.75v11.016c0 1.16 0.949 2.109 2.109 2.109h8.906c1.16 0 2.109-0.949 2.109-2.109v-16.406c0-1.16-0.949-2.109-2.109-2.109zM10.195 28.125h-7.266c-0.58 0-1.055-0.422-1.055-0.938s0.475-0.938 1.055-0.938h7.266c0.58 0 1.055 0.422 1.055 0.938s-0.475 0.938-1.055 0.938zM15.938 15h-1.875c-0.516 0-0.938-0.422-0.938-0.938s0.422-0.938 0.938-0.938h1.875c0.516 0 0.938 0.422 0.938 0.938s-0.422 0.938-0.938 0.938zM27.070 28.125h-7.266c-0.58 0-1.055-0.422-1.055-0.938s0.475-0.938 1.055-0.938h7.266c0.58 0 1.055 0.422 1.055 0.938s-0.475 0.938-1.055 0.938z"></path>
</svg>
