<!-- Generated by IcoMoon.io -->
<svg version="1.1" xmlns="http://www.w3.org/2000/svg" width="30" height="30" viewBox="0 0 30 30">
<title>book</title>
<path fill="#fff" d="M26.25 3.75v24.375h-19.688c-1.553 0-2.813-1.259-2.813-2.813s1.259-2.813 2.813-2.813h17.813v-22.5h-18.75c-2.062 0-3.75 1.688-3.75 3.75v22.5c0 2.063 1.688 3.75 3.75 3.75h22.5v-26.25h-1.875z"></path>
<path fill="#fff" d="M6.564 24.375v0c-0.001 0-0.001 0-0.002 0-0.518 0-0.938 0.42-0.938 0.938s0.42 0.938 0.938 0.938c0.001 0 0.001-0 0.002-0v0h17.809v-1.875h-17.809z"></path>
</svg>
