<!-- Generated by IcoMoon.io -->
<svg version="1.1" xmlns="http://www.w3.org/2000/svg" width="34" height="30" viewBox="0 0 34 30">
<title>books</title>
<path fill="#fff" d="M6.563 3.75h-5.625c-0.516 0-0.938 0.422-0.938 0.938v20.625c0 0.516 0.422 0.938 0.938 0.938h5.625c0.516 0 0.938-0.422 0.938-0.938v-20.625c0-0.516-0.422-0.938-0.938-0.938zM5.625 9.375h-3.75v-1.875h3.75v1.875z"></path>
<path fill="#fff" d="M15.938 3.75h-5.625c-0.516 0-0.938 0.422-0.938 0.938v20.625c0 0.516 0.422 0.938 0.938 0.938h5.625c0.516 0 0.938-0.422 0.938-0.938v-20.625c0-0.516-0.422-0.938-0.938-0.938zM15 9.375h-3.75v-1.875h3.75v1.875z"></path>
<path fill="#fff" d="M22.415 5.2l-5.023 2.531c-0.46 0.232-0.647 0.799-0.415 1.259l8.437 16.745c0.232 0.46 0.799 0.647 1.259 0.415l5.023-2.531c0.46-0.232 0.647-0.799 0.415-1.259l-8.437-16.745c-0.232-0.46-0.799-0.647-1.259-0.415z"></path>
</svg>
