<!-- Generated by IcoMoon.io -->
<svg version="1.1" xmlns="http://www.w3.org/2000/svg" width="34" height="30" viewBox="0 0 34 30">
<title>bubbles4</title>
<path fill="#fff" d="M14.063 3.75c-1.484 0-2.917 0.233-4.259 0.692-1.258 0.43-2.376 1.038-3.325 1.806-1.759 1.424-2.728 3.246-2.728 5.132 0 1.054 0.295 2.079 0.877 3.044 0.606 1.006 1.52 1.928 2.644 2.665 0.892 0.585 1.492 1.522 1.651 2.577 0.026 0.175 0.048 0.352 0.064 0.528 0.080-0.074 0.159-0.15 0.238-0.228 0.707-0.704 1.661-1.093 2.646-1.093 0.157 0 0.314 0.010 0.472 0.030 0.567 0.072 1.146 0.108 1.721 0.108 1.484 0 2.917-0.233 4.259-0.692 1.258-0.43 2.376-1.038 3.325-1.806 1.759-1.424 2.728-3.246 2.728-5.132s-0.969-3.708-2.728-5.132c-0.949-0.768-2.068-1.376-3.325-1.806-1.342-0.459-2.775-0.692-4.259-0.692zM14.063 0v0c7.766 0 14.063 5.095 14.063 11.38s-6.296 11.38-14.063 11.38c-0.746 0-1.478-0.047-2.192-0.138-3.021 3.009-6.509 3.548-9.995 3.627v-0.736c1.882-0.919 3.398-2.592 3.398-4.504 0-0.267-0.021-0.529-0.059-0.785-3.18-2.086-5.214-5.273-5.214-8.844 0-6.285 6.296-11.38 14.063-11.38zM29.18 25.508c0 1.639 1.064 3.073 2.695 3.861v0.631c-3.021-0.068-5.795-0.53-8.412-3.109-0.619 0.078-1.254 0.118-1.9 0.118-2.797 0-5.373-0.755-7.43-2.023 4.238-0.015 8.24-1.373 11.274-3.828 1.53-1.238 2.736-2.69 3.586-4.317 0.901-1.725 1.358-3.562 1.358-5.461 0-0.306-0.013-0.61-0.037-0.913 2.126 1.756 3.435 4.149 3.435 6.787 0 3.061-1.762 5.793-4.519 7.581-0.033 0.22-0.052 0.444-0.052 0.673z"></path>
</svg>
