<!-- Generated by IcoMoon.io -->
<svg version="1.1" xmlns="http://www.w3.org/2000/svg" width="34" height="30" viewBox="0 0 34 30">
<title>bubbles3</title>
<path fill="#fff" d="M31.875 26.401c0 1.333 0.763 2.488 1.875 3.052v0.467c-0.311 0.043-0.629 0.065-0.952 0.065-1.992 0-3.789-0.836-5.060-2.176-0.768 0.205-1.582 0.315-2.425 0.315-4.66 0-8.438-3.358-8.438-7.5s3.778-7.5 8.438-7.5c4.66 0 8.438 3.358 8.438 7.5 0 1.622-0.579 3.123-1.563 4.35-0.2 0.434-0.312 0.917-0.312 1.427zM6.758 6.48c-1.94 1.576-3.008 3.603-3.008 5.707 0 1.181 0.328 2.326 0.974 3.403 0.667 1.111 1.669 2.127 2.9 2.937 0.889 0.586 1.488 1.522 1.646 2.575 0.053 0.351 0.086 0.706 0.099 1.058 0.219-0.181 0.432-0.376 0.641-0.585 0.708-0.708 1.663-1.098 2.651-1.098 0.157 0 0.315 0.010 0.473 0.030 0.614 0.078 1.241 0.118 1.863 0.118v3.75c-0.795-0-1.575-0.051-2.336-0.148-3.222 3.222-7.068 3.8-10.786 3.885v-0.789c2.008-0.984 3.75-2.776 3.75-4.823 0-0.286-0.022-0.566-0.063-0.841-3.392-2.234-5.562-5.647-5.562-9.472 0-6.731 6.716-12.188 15-12.188 8.158 0 14.795 5.291 14.995 11.88-1.204-0.537-2.515-0.862-3.875-0.954-0.338-1.643-1.33-3.188-2.878-4.446-1.035-0.841-2.253-1.506-3.622-1.976-1.456-0.5-3.011-0.754-4.62-0.754s-3.164 0.254-4.62 0.754c-1.369 0.47-2.587 1.135-3.622 1.976z"></path>
</svg>
