<!-- Generated by IcoMoon.io -->
<svg version="1.1" xmlns="http://www.w3.org/2000/svg" width="34" height="30" viewBox="0 0 34 30">
<title>bubbles2</title>
<path fill="#fff" d="M14.063 0v0c7.766 0 14.063 5.095 14.063 11.38s-6.296 11.38-14.063 11.38c-0.746 0-1.478-0.047-2.192-0.138-3.021 3.009-6.509 3.548-9.995 3.627v-0.736c1.882-0.919 3.398-2.592 3.398-4.504 0-0.267-0.021-0.529-0.059-0.785-3.18-2.086-5.214-5.273-5.214-8.844 0-6.285 6.296-11.38 14.063-11.38zM29.18 25.508c0 1.639 1.064 3.073 2.695 3.861v0.631c-3.021-0.068-5.795-0.53-8.412-3.109-0.619 0.078-1.254 0.118-1.9 0.118-2.797 0-5.373-0.755-7.43-2.023 4.238-0.015 8.24-1.373 11.274-3.828 1.53-1.238 2.736-2.69 3.586-4.317 0.901-1.725 1.358-3.562 1.358-5.461 0-0.306-0.013-0.61-0.037-0.913 2.126 1.756 3.435 4.149 3.435 6.787 0 3.061-1.762 5.793-4.519 7.581-0.033 0.22-0.052 0.444-0.052 0.673z"></path>
</svg>
