<!-- Generated by IcoMoon.io -->
<svg version="1.1" xmlns="http://www.w3.org/2000/svg" width="30" height="30" viewBox="0 0 30 30">
<title>bug</title>
<path fill="#fff" d="M30 16.875v-1.875h-5.663c-0.172-2.129-0.931-4.073-2.1-5.632h4.744l2.053-8.21-1.819-0.455-1.697 6.79h-5.118c-0.026-0.020-0.053-0.040-0.079-0.060 0.197-0.571 0.304-1.184 0.304-1.822 0-3.098-2.518-5.61-5.625-5.61s-5.625 2.512-5.625 5.61c0 0.638 0.107 1.251 0.304 1.822-0.026 0.020-0.053 0.040-0.079 0.060h-5.118l-1.697-6.79-1.819 0.455 2.053 8.21h4.744c-1.168 1.559-1.928 3.503-2.1 5.632h-5.663v1.875h5.665c0.111 1.338 0.454 2.602 0.985 3.743h-3.633l-2.053 8.21 1.819 0.455 1.697-6.79h3.292c1.719 2.286 4.318 3.743 7.226 3.743s5.507-1.457 7.226-3.743h3.292l1.697 6.79 1.819-0.455-2.053-8.21h-3.633c0.531-1.141 0.874-2.405 0.985-3.743h5.665z"></path>
</svg>
