<!-- Generated by IcoMoon.io -->
<svg version="1.1" xmlns="http://www.w3.org/2000/svg" width="30" height="30" viewBox="0 0 30 30">
<title>calculator</title>
<path fill="#fff" d="M11.25 1.875h-9.375c-1.031 0-1.875 0.844-1.875 1.875v9.375c0 1.031 0.844 1.875 1.875 1.875h9.375c1.031 0 1.875-0.844 1.875-1.875v-9.375c0-1.031-0.844-1.875-1.875-1.875zM11.25 9.375h-9.375v-1.875h9.375v1.875zM26.25 1.875h-9.375c-1.031 0-1.875 0.844-1.875 1.875v24.375c0 1.031 0.844 1.875 1.875 1.875h9.375c1.031 0 1.875-0.844 1.875-1.875v-24.375c0-1.031-0.844-1.875-1.875-1.875zM26.25 18.75h-9.375v-1.875h9.375v1.875zM26.25 13.125h-9.375v-1.875h9.375v1.875zM11.25 16.875h-9.375c-1.031 0-1.875 0.844-1.875 1.875v9.375c0 1.031 0.844 1.875 1.875 1.875h9.375c1.031 0 1.875-0.844 1.875-1.875v-9.375c0-1.031-0.844-1.875-1.875-1.875zM11.25 24.375h-3.75v3.75h-1.875v-3.75h-3.75v-1.875h3.75v-3.75h1.875v3.75h3.75v1.875z"></path>
</svg>
