<!-- Generated by IcoMoon.io -->
<svg version="1.1" xmlns="http://www.w3.org/2000/svg" width="30" height="30" viewBox="0 0 30 30">
<title>calendar</title>
<path fill="#fff" d="M9.375 11.25h3.75v3.75h-3.75zM15 11.25h3.75v3.75h-3.75zM20.625 11.25h3.75v3.75h-3.75zM3.75 22.5h3.75v3.75h-3.75zM9.375 22.5h3.75v3.75h-3.75zM15 22.5h3.75v3.75h-3.75zM9.375 16.875h3.75v3.75h-3.75zM15 16.875h3.75v3.75h-3.75zM20.625 16.875h3.75v3.75h-3.75zM3.75 16.875h3.75v3.75h-3.75zM24.375 0v1.875h-3.75v-1.875h-13.125v1.875h-3.75v-1.875h-3.75v30h28.125v-30h-3.75zM26.25 28.125h-24.375v-20.625h24.375v20.625z"></path>
</svg>
