<!-- Generated by IcoMoon.io -->
<svg version="1.1" xmlns="http://www.w3.org/2000/svg" width="30" height="30" viewBox="0 0 30 30">
<title>camera</title>
<path fill="#fff" d="M8.906 17.813c0 3.366 2.728 6.094 6.094 6.094s6.094-2.728 6.094-6.094-2.728-6.094-6.094-6.094-6.094 2.728-6.094 6.094zM28.125 7.5h-6.563c-0.469-1.875-0.938-3.75-2.813-3.75h-7.5c-1.875 0-2.344 1.875-2.813 3.75h-6.563c-1.031 0-1.875 0.844-1.875 1.875v16.875c0 1.031 0.844 1.875 1.875 1.875h26.25c1.031 0 1.875-0.844 1.875-1.875v-16.875c0-1.031-0.844-1.875-1.875-1.875zM15 26.133c-4.595 0-8.32-3.725-8.32-8.32s3.725-8.32 8.32-8.32c4.595 0 8.32 3.725 8.32 8.32s-3.725 8.32-8.32 8.32zM28.125 13.125h-3.75v-1.875h3.75v1.875z"></path>
</svg>
