<!-- Generated by IcoMoon.io -->
<svg version="1.1" xmlns="http://www.w3.org/2000/svg" width="30" height="30" viewBox="0 0 30 30">
<title>cloud-download</title>
<path fill="#fff" d="M26.104 10.549c-0.095-3.77-3.177-6.799-6.969-6.799-2.22 0-4.197 1.040-5.474 2.658-0.716-0.926-1.837-1.522-3.097-1.522-2.162 0-3.915 1.754-3.915 3.918 0 0.189 0.014 0.374 0.040 0.555-0.329-0.059-0.667-0.092-1.013-0.092-3.135-0-5.676 2.543-5.676 5.679s2.541 5.679 5.676 5.679h2.688l6.636 6.87 6.636-6.87 3.266-0c2.817-0.005 5.098-2.291 5.098-5.111 0-2.405-1.66-4.421-3.896-4.965zM15 24.375l-5.625-5.625h3.75v-5.625h3.75v5.625h3.75l-5.625 5.625z"></path>
</svg>
