<!-- Generated by IcoMoon.io -->
<svg version="1.1" xmlns="http://www.w3.org/2000/svg" width="30" height="30" viewBox="0 0 30 30">
<title>cog</title>
<path fill="#fff" d="M27.357 17.878c-1.574-2.726-0.627-6.22 2.114-7.807l-2.948-5.106c-0.842 0.494-1.822 0.777-2.867 0.777-3.15 0-5.704-2.571-5.704-5.742h-5.896c0.008 0.979-0.237 1.971-0.76 2.878-1.574 2.726-5.073 3.653-7.818 2.073l-2.948 5.106c0.849 0.483 1.583 1.189 2.106 2.094 1.571 2.722 0.63 6.209-2.101 7.8l2.948 5.106c0.839-0.489 1.814-0.769 2.854-0.769 3.141 0 5.688 2.554 5.704 5.712h5.896c-0.003-0.969 0.242-1.95 0.761-2.848 1.571-2.722 5.062-3.65 7.805-2.080l2.948-5.106c-0.843-0.482-1.573-1.186-2.093-2.087zM15 21.074c-3.355 0-6.074-2.719-6.074-6.074s2.72-6.074 6.074-6.074c3.355 0 6.074 2.72 6.074 6.074s-2.719 6.074-6.074 6.074z"></path>
</svg>
