<!-- Generated by IcoMoon.io -->
<svg version="1.1" xmlns="http://www.w3.org/2000/svg" width="30" height="30" viewBox="0 0 30 30">
<title>coin-dollar</title>
<path fill="#fff" d="M14.063 1.875c-7.766 0-14.063 6.296-14.063 14.063s6.296 14.063 14.063 14.063c7.767 0 14.063-6.296 14.063-14.063s-6.296-14.063-14.063-14.063zM14.063 27.188c-6.213 0-11.25-5.037-11.25-11.25s5.037-11.25 11.25-11.25c6.213 0 11.25 5.037 11.25 11.25s-5.037 11.25-11.25 11.25zM15 15v-3.75h3.75v-1.875h-3.75v-1.875h-1.875v1.875h-3.75v7.5h3.75v3.75h-3.75v1.875h3.75v1.875h1.875v-1.875h3.75l-0-7.5h-3.75zM13.125 15h-1.875v-3.75h1.875v3.75zM16.875 20.625h-1.875v-3.75h1.875v3.75z"></path>
</svg>
