<!-- Generated by IcoMoon.io -->
<svg version="1.1" xmlns="http://www.w3.org/2000/svg" width="30" height="30" viewBox="0 0 30 30">
<title>coin-yen</title>
<path fill="#fff" d="M14.063 1.875c-7.766 0-14.063 6.296-14.063 14.063s6.296 14.063 14.063 14.063c7.767 0 14.063-6.296 14.063-14.063s-6.296-14.063-14.063-14.063zM14.063 27.188c-6.213 0-11.25-5.037-11.25-11.25s5.037-11.25 11.25-11.25c6.213 0 11.25 5.037 11.25 11.25s-5.037 11.25-11.25 11.25z"></path>
<path fill="#fff" d="M17.813 16.875c0.518 0 0.938-0.42 0.938-0.938s-0.42-0.938-0.938-0.938h-1.998l2.778-4.167c0.287-0.431 0.171-1.013-0.26-1.3s-1.013-0.171-1.3 0.26l-2.97 4.455-2.97-4.455c-0.287-0.431-0.869-0.547-1.3-0.26s-0.547 0.869-0.26 1.3l2.778 4.167h-1.998c-0.518 0-0.938 0.42-0.938 0.938s0.42 0.938 0.938 0.938h2.813v1.875h-2.813c-0.518 0-0.938 0.42-0.938 0.938s0.42 0.938 0.938 0.938h2.813v2.813c0 0.518 0.42 0.938 0.938 0.938s0.938-0.42 0.938-0.938v-2.813h2.813c0.518 0 0.938-0.42 0.938-0.938s-0.42-0.938-0.938-0.938h-2.813v-1.875h2.813z"></path>
</svg>
