<!-- Generated by IcoMoon.io -->
<svg version="1.1" xmlns="http://www.w3.org/2000/svg" width="30" height="30" viewBox="0 0 30 30">
<title>compass</title>
<path fill="#fff" d="M15.938 30c-0.067 0-0.135-0.007-0.203-0.022-0.429-0.095-0.734-0.476-0.734-0.915v-14.063h-14.063c-0.44 0-0.82-0.305-0.915-0.734s0.121-0.867 0.519-1.053l28.125-13.125c0.357-0.167 0.781-0.092 1.059 0.187s0.353 0.702 0.187 1.059l-13.125 28.125c-0.157 0.335-0.491 0.541-0.849 0.541zM5.163 13.125h10.774c0.518 0 0.938 0.42 0.938 0.938v10.774l10.248-21.959-21.959 10.248z"></path>
</svg>
