<!-- Generated by IcoMoon.io -->
<svg version="1.1" xmlns="http://www.w3.org/2000/svg" width="30" height="30" viewBox="0 0 30 30">
<title>compass2</title>
<path fill="#fff" d="M15 0c-8.284 0-15 6.716-15 15s6.716 15 15 15 15-6.716 15-15-6.716-15-15-15zM2.813 15c0-6.731 5.457-12.188 12.188-12.188 3.21 0 6.13 1.242 8.307 3.27l-12.057 5.167-5.167 12.057c-2.029-2.177-3.27-5.096-3.27-8.307zM17.144 17.144l-7.502 3.215 3.215-7.502 4.287 4.287zM15 27.188c-3.21 0-6.13-1.242-8.307-3.27l12.057-5.167 5.167-12.057c2.029 2.177 3.27 5.096 3.27 8.307 0 6.731-5.457 12.188-12.188 12.188z"></path>
</svg>
