<!-- Generated by IcoMoon.io -->
<svg version="1.1" xmlns="http://www.w3.org/2000/svg" width="38" height="30" viewBox="0 0 38 30">
<title>connection</title>
<path fill="#fff" d="M18.75 16.875c3.102 0 5.914 1.262 7.951 3.299l-2.65 2.65c-1.358-1.358-3.233-2.199-5.301-2.199s-3.943 0.841-5.301 2.199l-2.65-2.65c2.037-2.037 4.85-3.299 7.951-3.299zM5.492 14.867c3.541-3.541 8.25-5.492 13.258-5.492s9.717 1.95 13.258 5.492l-2.652 2.652c-2.833-2.833-6.6-4.393-10.607-4.393s-7.773 1.56-10.607 4.393l-2.652-2.652zM28.968 3.939c3.126 1.322 5.933 3.215 8.343 5.625v0l-2.652 2.652c-4.25-4.25-9.9-6.59-15.91-6.59s-11.66 2.34-15.91 6.59l-2.652-2.652c2.41-2.41 5.217-4.303 8.343-5.625 3.237-1.369 6.675-2.064 10.218-2.064s6.981 0.694 10.218 2.064zM16.875 26.25c0-1.036 0.839-1.875 1.875-1.875s1.875 0.839 1.875 1.875c0 1.036-0.839 1.875-1.875 1.875s-1.875-0.839-1.875-1.875z"></path>
</svg>
