<!-- Generated by IcoMoon.io -->
<svg version="1.1" xmlns="http://www.w3.org/2000/svg" width="30" height="30" viewBox="0 0 30 30">
<title>credit-card</title>
<path fill="#fff" d="M27.188 3.75h-24.375c-1.547 0-2.813 1.266-2.813 2.813v16.875c0 1.547 1.266 2.813 2.813 2.813h24.375c1.547 0 2.813-1.266 2.813-2.813v-16.875c0-1.547-1.266-2.813-2.813-2.813zM2.813 5.625h24.375c0.508 0 0.938 0.429 0.938 0.938v2.813h-26.25v-2.813c0-0.508 0.429-0.938 0.938-0.938zM27.188 24.375h-24.375c-0.508 0-0.938-0.429-0.938-0.938v-8.438h26.25v8.438c0 0.508-0.429 0.938-0.938 0.938zM3.75 18.75h1.875v3.75h-1.875zM7.5 18.75h1.875v3.75h-1.875zM11.25 18.75h1.875v3.75h-1.875z"></path>
</svg>
