<!-- Generated by IcoMoon.io -->
<svg version="1.1" xmlns="http://www.w3.org/2000/svg" width="30" height="30" viewBox="0 0 30 30">
<title>database</title>
<path fill="#fff" d="M15 0c-8.284 0-15 2.099-15 4.688v3.75c0 2.589 6.716 4.688 15 4.688s15-2.099 15-4.688v-3.75c0-2.589-6.716-4.688-15-4.688z"></path>
<path fill="#fff" d="M15 15.938c-8.284 0-15-2.099-15-4.688v5.625c0 2.589 6.716 4.688 15 4.688s15-2.099 15-4.688v-5.625c0 2.589-6.716 4.688-15 4.688z"></path>
<path fill="#fff" d="M15 24.375c-8.284 0-15-2.099-15-4.688v5.625c0 2.589 6.716 4.688 15 4.688s15-2.099 15-4.688v-5.625c0 2.589-6.716 4.688-15 4.688z"></path>
</svg>
