<!-- Generated by IcoMoon.io -->
<svg version="1.1" xmlns="http://www.w3.org/2000/svg" width="30" height="30" viewBox="0 0 30 30">
<title>edge</title>
<path fill="#fff" d="M0.451 13.318c0.879-6.938 5.613-13.23 14.098-13.318 5.121 0.1 9.334 2.42 11.842 6.844 1.26 2.309 1.652 4.734 1.734 7.412v3.146h-18.826c0.088 7.764 11.426 7.5 16.307 4.078v6.322c-2.859 1.717-9.346 3.252-14.367 1.277-4.277-1.605-7.324-6.082-7.307-10.389-0.141-5.584 2.777-9.281 7.307-11.385-0.961 1.189-1.693 2.502-2.074 4.775h10.629c0 0 0.621-6.352-6.018-6.352-6.258 0.217-10.77 3.855-13.324 7.588v0z"></path>
</svg>
