<!-- Generated by IcoMoon.io -->
<svg version="1.1" xmlns="http://www.w3.org/2000/svg" width="30" height="30" viewBox="0 0 30 30">
<title>envelop</title>
<path fill="#fff" d="M27.188 3.75h-24.375c-1.547 0-2.813 1.266-2.813 2.813v18.75c0 1.547 1.266 2.813 2.813 2.813h24.375c1.547 0 2.813-1.266 2.813-2.813v-18.75c0-1.547-1.266-2.813-2.813-2.813zM11.682 16.124l-7.932 6.178v-14.697l7.932 8.518zM5.167 7.5h19.665l-9.833 7.383-9.833-7.383zM11.991 16.456l3.009 3.232 3.009-3.232 6.169 7.919h-18.355l6.169-7.919zM18.318 16.124l7.932-8.518v14.697l-7.932-6.178z"></path>
</svg>
