<!-- Generated by IcoMoon.io -->
<svg version="1.1" xmlns="http://www.w3.org/2000/svg" width="30" height="30" viewBox="0 0 30 30">
<title>evil</title>
<path fill="#fff" d="M18.75 13.125c-1.036 0-1.875-0.839-1.875-1.875 0-0.034 0.001-0.068 0.003-0.102 0.060-1.39 1.325-2.313 2.39-2.846 1.018-0.509 2.024-0.763 2.067-0.774 0.502-0.126 1.011 0.18 1.137 0.682s-0.18 1.011-0.682 1.137c-0.516 0.13-1.129 0.355-1.668 0.625 0.312 0.335 0.503 0.784 0.503 1.278 0 1.036-0.839 1.875-1.875 1.875zM8.21 9.347c-0.502-0.126-0.808-0.635-0.682-1.137s0.635-0.808 1.137-0.682c0.042 0.011 1.049 0.265 2.067 0.774 1.066 0.533 2.331 1.456 2.39 2.846 0.002 0.034 0.003 0.068 0.003 0.102 0 1.036-0.839 1.875-1.875 1.875s-1.875-0.839-1.875-1.875c0-0.494 0.191-0.943 0.503-1.278-0.539-0.27-1.152-0.495-1.668-0.625zM15 21.563c2.389 0 4.48-1.277 5.628-3.186l2.412 1.447c-1.64 2.727-4.626 4.551-8.040 4.551s-6.4-1.824-8.040-4.551l2.412-1.447c1.148 1.909 3.239 3.186 5.628 3.186zM30 1.875c0-1.333-0.279-2.602-0.781-3.75-0.984 2.251-2.826 4.041-5.112 4.956-2.525-1.932-5.682-3.081-9.107-3.081s-6.582 1.149-9.107 3.081c-2.287-0.915-4.128-2.705-5.112-4.956-0.502 1.148-0.781 2.417-0.781 3.75 0 2.155 0.728 4.14 1.951 5.724-1.241 2.184-1.951 4.709-1.951 7.401 0 8.284 6.716 15 15 15s15-6.716 15-15c0-2.692-0.71-5.217-1.951-7.401 1.223-1.583 1.951-3.568 1.951-5.724zM15 27.188c-6.731 0-12.188-5.457-12.188-12.188s5.457-12.188 12.188-12.188 12.188 5.457 12.188 12.188-5.457 12.188-12.188 12.188z"></path>
</svg>
