<!-- Generated by IcoMoon.io -->
<svg version="1.1" xmlns="http://www.w3.org/2000/svg" width="30" height="30" viewBox="0 0 30 30">
<title>eye-plus</title>
<path fill="#fff" d="M30 3.75h-3.75v-3.75h-3.75v3.75h-3.75v3.75h3.75v3.75h3.75v-3.75h3.75z"></path>
<path fill="#fff" d="M25.308 13.067c0.54 0.6 1.031 1.246 1.465 1.933-1.122 1.773-2.615 3.279-4.378 4.403-2.215 1.413-4.772 2.159-7.396 2.159s-5.181-0.747-7.396-2.159c-1.762-1.124-3.256-2.63-4.378-4.403 1.122-1.773 2.615-3.279 4.378-4.403 0.115-0.073 0.231-0.144 0.348-0.214-0.292 0.801-0.452 1.665-0.452 2.566 0 4.142 3.358 7.5 7.5 7.5s7.5-3.358 7.5-7.5c0-0.020-0.001-0.040-0.001-0.061-3.202-0.824-5.575-3.71-5.623-7.158-0.616-0.070-1.242-0.106-1.876-0.106-6.543 0-12.213 3.81-15 9.375 2.787 5.565 8.457 9.375 15 9.375s12.213-3.81 15-9.375c-0.517-1.032-1.133-2.004-1.835-2.902-0.858 0.503-1.824 0.841-2.856 0.969zM12.188 9.375c1.553 0 2.813 1.259 2.813 2.813s-1.259 2.813-2.813 2.813-2.813-1.259-2.813-2.813 1.259-2.813 2.813-2.813z"></path>
</svg>
