<!-- Generated by IcoMoon.io -->
<svg version="1.1" xmlns="http://www.w3.org/2000/svg" width="30" height="30" viewBox="0 0 30 30">
<title>eye-blocked</title>
<path fill="#fff" d="M27.713 0.412c-0.549-0.549-1.44-0.549-1.989 0l-5.923 5.923c-1.522-0.462-3.133-0.71-4.802-0.71-6.543 0-12.213 3.81-15 9.375 1.205 2.406 2.949 4.484 5.069 6.067l-4.657 4.657c-0.549 0.549-0.549 1.44 0 1.989 0.275 0.275 0.634 0.412 0.994 0.412s0.72-0.137 0.994-0.412l25.313-25.313c0.549-0.549 0.549-1.44 0-1.989zM12.188 9.375c1.238 0 2.288 0.8 2.664 1.91l-3.566 3.566c-1.11-0.376-1.91-1.426-1.91-2.664 0-1.553 1.259-2.813 2.813-2.813zM3.226 15c1.122-1.773 2.615-3.279 4.378-4.403 0.115-0.073 0.231-0.144 0.348-0.214-0.292 0.801-0.452 1.665-0.452 2.566 0 1.608 0.506 3.098 1.368 4.319l-1.785 1.785c-1.537-1.079-2.848-2.457-3.857-4.053z"></path>
<path fill="#fff" d="M22.5 12.949c0-0.796-0.125-1.563-0.355-2.282l-9.428 9.428c0.72 0.23 1.487 0.354 2.283 0.354 4.142 0 7.5-3.358 7.5-7.5z"></path>
<path fill="#fff" d="M24.317 8.495l-2.032 2.032c0.037 0.023 0.074 0.046 0.111 0.069 1.763 1.124 3.256 2.63 4.378 4.403-1.122 1.773-2.615 3.279-4.378 4.403-2.215 1.413-4.772 2.159-7.396 2.159-1.133 0-2.253-0.139-3.339-0.411l-2.253 2.253c1.75 0.629 3.631 0.971 5.591 0.971 6.542 0 12.213-3.81 15-9.375-1.319-2.634-3.285-4.875-5.683-6.505z"></path>
</svg>
