<!-- Generated by IcoMoon.io -->
<svg version="1.1" xmlns="http://www.w3.org/2000/svg" width="30" height="30" viewBox="0 0 30 30">
<title>eyedropper</title>
<path fill="#fff" d="M28.902 1.098c-1.464-1.464-3.839-1.464-5.303 0l-5.043 5.043-3.556-3.556-3.977 3.977 3.118 3.118-13.832 13.832c-0.236 0.236-0.336 0.555-0.302 0.863h-0.007v4.688c0 0.518 0.42 0.938 0.937 0.938h4.688c0 0 0.078 0 0.117 0 0.27 0 0.54-0.103 0.746-0.309l13.832-13.832 3.118 3.118 3.977-3.977-3.556-3.556 5.043-5.043c1.464-1.464 1.464-3.839 0-5.303zM5.071 28.125h-3.196v-3.196l13.757-13.757 3.196 3.196-13.757 13.757z"></path>
</svg>
