<!-- Generated by IcoMoon.io -->
<svg version="1.1" xmlns="http://www.w3.org/2000/svg" width="30" height="30" viewBox="0 0 30 30">
<title>feed</title>
<path fill="#fff" d="M11.25 15c0-2.071 1.679-3.75 3.75-3.75s3.75 1.679 3.75 3.75c0 2.071-1.679 3.75-3.75 3.75s-3.75-1.679-3.75-3.75zM19.463 6.754c2.925 1.587 4.912 4.685 4.912 8.246s-1.986 6.66-4.912 8.246c1.291-2.054 2.099-4.988 2.099-8.246s-0.808-6.192-2.099-8.246zM8.438 15c0 3.258 0.808 6.192 2.099 8.246-2.925-1.587-4.912-4.685-4.912-8.246s1.986-6.66 4.912-8.246c-1.291 2.054-2.099 4.988-2.099 8.246zM2.813 15c0 5.036 1.594 9.556 4.121 12.648-4.169-2.664-6.933-7.333-6.933-12.648s2.764-9.984 6.933-12.648c-2.527 3.092-4.121 7.612-4.121 12.648zM23.067 2.352c4.169 2.664 6.933 7.333 6.933 12.648s-2.764 9.984-6.933 12.648c2.527-3.092 4.121-7.612 4.121-12.648s-1.594-9.556-4.121-12.648z"></path>
</svg>
