<!-- Generated by IcoMoon.io -->
<svg version="1.1" xmlns="http://www.w3.org/2000/svg" width="30" height="30" viewBox="0 0 30 30">
<title>files-empty</title>
<path fill="#fff" d="M26.889 10.461c-0.651-0.887-1.558-1.925-2.554-2.921s-2.034-1.903-2.921-2.554c-1.511-1.108-2.244-1.236-2.664-1.236h-10.781c-1.292 0-2.344 1.051-2.344 2.344v21.563c0 1.292 1.051 2.344 2.344 2.344h17.813c1.292 0 2.344-1.051 2.344-2.344v-14.531c0-0.42-0.128-1.153-1.236-2.664zM23.009 8.866c0.899 0.899 1.605 1.711 2.126 2.384h-4.51v-4.51c0.673 0.521 1.485 1.227 2.384 2.126v0zM26.25 27.656c0 0.254-0.215 0.469-0.469 0.469h-17.813c-0.254 0-0.469-0.215-0.469-0.469v-21.563c0-0.254 0.215-0.469 0.469-0.469 0 0 10.78-0 10.781 0v6.563c0 0.518 0.42 0.938 0.938 0.938h6.563v14.531z"></path>
<path fill="#fff" d="M17.664 1.236c-1.511-1.108-2.244-1.236-2.664-1.236h-10.781c-1.292 0-2.344 1.051-2.344 2.344v21.563c0 1.132 0.806 2.079 1.875 2.297v-23.859c0-0.254 0.215-0.469 0.469-0.469h14.264c-0.283-0.232-0.557-0.447-0.819-0.639z"></path>
</svg>
