<!-- Generated by IcoMoon.io -->
<svg version="1.1" xmlns="http://www.w3.org/2000/svg" width="30" height="30" viewBox="0 0 30 30">
<title>fire</title>
<path fill="#fff" d="M9.405 30c-1.999-4.16-0.935-6.544 0.602-8.79 1.683-2.46 2.117-4.895 2.117-4.895s1.323 1.72 0.794 4.409c2.337-2.602 2.778-6.746 2.425-8.334 5.283 3.692 7.54 11.685 4.498 17.609 16.183-9.156 4.025-22.857 1.909-24.4 0.706 1.543 0.839 4.156-0.586 5.424-2.413-9.149-8.378-11.024-8.378-11.024 0.706 4.718-2.557 9.877-5.704 13.732-0.111-1.881-0.228-3.18-1.217-4.98-0.222 3.418-2.834 6.204-3.541 9.628-0.958 4.637 0.718 8.033 7.082 11.62z"></path>
</svg>
