<!-- Generated by IcoMoon.io -->
<svg version="1.1" xmlns="http://www.w3.org/2000/svg" width="30" height="30" viewBox="0 0 30 30">
<title>firefox</title>
<path fill="#fff" d="M29.957 9.789l-0.347 2.229c0 0-0.497-4.127-1.105-5.669-0.933-2.364-1.348-2.345-1.351-2.341 0.625 1.588 0.512 2.441 0.512 2.441s-1.107-3.018-4.035-3.978c-3.243-1.063-4.997-0.772-5.2-0.717-0.031-0-0.060-0-0.089-0 0.024 0.002 0.047 0.004 0.071 0.006-0.001 0.001-0.003 0.001-0.002 0.002 0.013 0.016 3.583 0.624 4.216 1.494 0 0-1.516 0-3.026 0.435-0.068 0.020 5.552 0.702 6.702 6.319 0 0-0.616-1.285-1.378-1.504 0.501 1.524 0.372 4.417-0.105 5.855-0.061 0.185-0.124-0.799-1.064-1.223 0.301 2.158-0.018 5.58-1.515 6.522-0.117 0.073 0.938-3.378 0.212-2.044-4.181 6.41-9.123 2.958-11.345 1.439 1.139 0.248 3.3-0.039 4.257-0.75 0.001-0.001 0.002-0.002 0.003-0.003 1.039-0.711 1.654-1.229 2.207-1.107s0.921-0.431 0.492-0.924c-0.43-0.493-1.474-1.171-2.886-0.802-0.996 0.261-2.23 1.363-4.115 0.247-1.446-0.857-1.582-1.569-1.595-2.062 0.036-0.175 0.081-0.338 0.134-0.487 0.166-0.465 0.671-0.605 0.952-0.716 0.476 0.082 0.887 0.23 1.317 0.451 0.006-0.143 0.007-0.334-0.001-0.55 0.041-0.082 0.016-0.33-0.050-0.632-0.038-0.302-0.1-0.614-0.198-0.899 0-0 0.001-0 0.001-0 0.002-0.001 0.003-0.001 0.005-0.002s0.004-0.003 0.006-0.006c0-0.001 0.001-0.001 0.001-0.002 0.002-0.004 0.005-0.008 0.006-0.014 0.030-0.135 0.352-0.396 0.753-0.677 0.36-0.251 0.782-0.518 1.115-0.725 0.295-0.183 0.519-0.319 0.567-0.354 0.018-0.014 0.040-0.030 0.063-0.048 0.004-0.003 0.009-0.007 0.013-0.010 0.003-0.002 0.006-0.004 0.008-0.007 0.158-0.126 0.395-0.365 0.445-0.867 0-0.001 0-0.002 0-0.004 0.001-0.015 0.003-0.030 0.004-0.045 0.001-0.011 0.001-0.021 0.002-0.032 0-0.008 0.001-0.017 0.001-0.025 0.001-0.020 0.001-0.040 0.002-0.060 0-0.001 0-0.002 0-0.003 0.001-0.049-0-0.099-0.003-0.152-0.002-0.030-0.004-0.057-0.009-0.081-0-0.001-0.001-0.003-0.001-0.004-0.001-0.002-0.001-0.005-0.002-0.007-0.001-0.004-0.002-0.009-0.004-0.013-0-0.001-0-0.001-0-0.001-0.002-0.005-0.003-0.009-0.005-0.014-0-0-0-0-0-0-0.051-0.12-0.244-0.166-1.038-0.179-0.001-0-0.001-0-0.002-0v0c-0.324-0.006-0.748-0.006-1.304-0.003-0.974 0.004-1.513-0.952-1.684-1.322 0.236-1.303 0.916-2.231 2.035-2.86 0.021-0.012 0.017-0.022-0.008-0.029 0.219-0.132-2.644-0.004-3.961 1.671-1.169-0.29-2.187-0.271-3.065-0.065-0.169-0.005-0.379-0.026-0.628-0.078-0.584-0.529-1.419-1.506-1.464-2.672 0 0-0.003 0.002-0.007 0.006-0.001-0.011-0.002-0.022-0.002-0.033 0 0-1.779 1.367-1.513 5.094-0.001 0.060-0.002 0.117-0.004 0.172-0.481 0.653-0.72 1.202-0.738 1.323-0.427 0.868-0.859 2.175-1.212 4.16 0 0 0.246-0.781 0.741-1.666-0.364 1.114-0.649 2.846-0.482 5.445 0 0 0.044-0.576 0.201-1.406 0.123 1.612 0.66 3.601 2.017 5.941 2.606 4.492 6.611 6.76 11.039 7.108 0.786 0.065 1.583 0.066 2.385 0.005 0.074-0.005 0.147-0.011 0.221-0.017 0.907-0.064 1.82-0.201 2.732-0.421 12.456-3.012 11.102-18.053 11.102-18.053z"></path>
</svg>
