<!-- Generated by IcoMoon.io -->
<svg version="1.1" xmlns="http://www.w3.org/2000/svg" width="30" height="30" viewBox="0 0 30 30">
<title>flag</title>
<path fill="#fff" d="M0 0h3.75v30h-3.75v-30z"></path>
<path fill="#fff" d="M24.375 18.838c2.421 0 4.528-0.585 5.625-1.45v-15c-1.097 0.865-3.204 1.45-5.625 1.45s-4.528-0.585-5.625-1.45v15c1.097 0.865 3.204 1.45 5.625 1.45z"></path>
<path fill="#fff" d="M17.813 0.953c-1.374-0.584-3.384-0.953-5.625-0.953-2.824 0-5.283 0.585-6.563 1.45v15c1.279-0.865 3.738-1.45 6.563-1.45 2.241 0 4.251 0.369 5.625 0.953v-15z"></path>
</svg>
