<!-- Generated by IcoMoon.io -->
<svg version="1.1" xmlns="http://www.w3.org/2000/svg" width="30" height="30" viewBox="0 0 30 30">
<title>flickr2</title>
<path fill="#fff" d="M23.438 12.188c-2.068 0-3.75 1.682-3.75 3.75s1.682 3.75 3.75 3.75c2.068 0 3.75-1.682 3.75-3.75s-1.682-3.75-3.75-3.75zM23.438 9.375v0c3.624 0 6.563 2.938 6.563 6.563s-2.938 6.563-6.563 6.563-6.563-2.938-6.563-6.563c0-3.624 2.938-6.563 6.563-6.563zM0 15.938c0-3.624 2.938-6.563 6.563-6.563s6.563 2.938 6.563 6.563c0 3.624-2.938 6.563-6.563 6.563s-6.563-2.938-6.563-6.563z"></path>
</svg>
