<!-- Generated by IcoMoon.io -->
<svg version="1.1" xmlns="http://www.w3.org/2000/svg" width="30" height="30" viewBox="0 0 30 30">
<title>gift</title>
<path fill="#fff" d="M22.603 9.375c0.531-0.377 1.040-0.797 1.507-1.264 0.979-0.979 1.633-2.183 1.843-3.39 0.23-1.324-0.108-2.553-0.927-3.372-0.653-0.653-1.538-0.999-2.559-0.999-1.454 0-2.986 0.698-4.203 1.915-1.948 1.948-3.083 4.636-3.694 6.554-0.452-1.928-1.354-4.531-3.106-6.283-0.94-0.94-2.142-1.423-3.277-1.423-0.927 0-1.81 0.322-2.469 0.981-1.464 1.464-1.267 4.037 0.442 5.745 0.609 0.609 1.321 1.115 2.072 1.536h-6.358v7.5h1.875v13.125h22.5v-13.125h1.875v-7.5h-5.522zM19.756 3.756c0.812-0.812 1.826-1.297 2.711-1.297 0.313 0 0.753 0.066 1.068 0.381 0.763 0.763 0.334 2.529-0.916 3.779-1.287 1.287-3.019 2.173-4.524 2.756h-1.485c0.544-1.686 1.525-3.998 3.146-5.619zM6.854 4.714c-0.021-0.267-0.001-0.769 0.357-1.128 0.3-0.3 0.697-0.363 0.977-0.363v0c0.623 0 1.273 0.293 1.785 0.805 0.992 0.992 1.81 2.571 2.363 4.567 0.015 0.054 0.030 0.108 0.044 0.161-0.053-0.014-0.107-0.029-0.161-0.044-1.995-0.554-3.574-1.371-4.567-2.363-0.464-0.464-0.755-1.059-0.799-1.634zM13.125 28.125h-7.5v-12.188h7.5v12.188zM13.125 15h-9.375v-3.75h9.375v3.75zM24.375 28.125h-7.5v-12.188h7.5v12.188zM26.25 15h-9.375v-3.75h9.375v3.75z"></path>
</svg>
