<!-- Generated by IcoMoon.io -->
<svg version="1.1" xmlns="http://www.w3.org/2000/svg" width="30" height="30" viewBox="0 0 30 30">
<title>grin2</title>
<path fill="#fff" d="M15 0c-8.284 0-15 6.716-15 15s6.716 15 15 15c8.284 0 15-6.716 15-15s-6.716-15-15-15zM20.625 6.914c1.874 0 3.398 1.525 3.398 3.398 0 0.187-0.016 0.377-0.048 0.566-0.047 0.282-0.292 0.489-0.578 0.489s-0.531-0.207-0.578-0.489c-0.18-1.075-1.104-1.562-2.195-1.562s-2.015 0.487-2.195 1.562c-0.047 0.282-0.292 0.489-0.578 0.489-0 0 0 0-0 0-0.286 0-0.53-0.207-0.578-0.489-0.032-0.189-0.048-0.379-0.048-0.566 0-1.874 1.525-3.398 3.398-3.398zM9.375 6.914c1.874 0 3.398 1.525 3.398 3.398 0 0.187-0.016 0.377-0.048 0.566-0.047 0.282-0.292 0.489-0.578 0.489s-0.53-0.207-0.578-0.489c-0.18-1.075-1.104-1.562-2.195-1.562s-2.015 0.487-2.195 1.562c-0.047 0.282-0.292 0.489-0.578 0.489 0 0 0 0 0 0-0.286 0-0.53-0.207-0.578-0.489-0.032-0.189-0.048-0.379-0.048-0.566 0-1.874 1.525-3.398 3.398-3.398zM5.625 16.875h5.625v7.261c-3.225-0.838-5.625-3.783-5.625-7.261zM13.125 24.375v-7.5h3.75v7.5h-3.75zM18.75 24.136v-7.261h5.625c0 3.478-2.4 6.423-5.625 7.261z"></path>
</svg>
