<!-- Generated by IcoMoon.io -->
<svg version="1.1" xmlns="http://www.w3.org/2000/svg" width="30" height="30" viewBox="0 0 30 30">
<title>grin</title>
<path fill="#fff" d="M15 30c8.284 0 15-6.716 15-15s-6.716-15-15-15-15 6.716-15 15 6.716 15 15 15zM15 2.813c6.731 0 12.188 5.457 12.188 12.188s-5.457 12.188-12.188 12.188-12.188-5.457-12.188-12.188 5.457-12.188 12.188-12.188zM5.625 15v1.875c0 4.125 3.375 7.5 7.5 7.5h3.75c4.125 0 7.5-3.375 7.5-7.5v-1.875h-18.75zM11.25 22.177c-0.777-0.277-1.492-0.727-2.096-1.331-1.067-1.066-1.654-2.477-1.654-3.971h3.75v5.302zM16.875 22.5h-3.75v-5.625h3.75v5.625zM20.846 20.846c-0.604 0.604-1.319 1.054-2.096 1.331v-5.302h3.75c0 1.494-0.587 2.904-1.654 3.971zM6.602 11.25c0 0 0 0 0 0 0.286 0 0.531-0.207 0.578-0.489 0.18-1.075 1.104-1.855 2.195-1.855s2.015 0.78 2.195 1.855c0.047 0.282 0.292 0.489 0.578 0.489s0.531-0.207 0.578-0.489c0.032-0.189 0.048-0.379 0.048-0.566 0-1.874-1.525-3.398-3.398-3.398s-3.398 1.525-3.398 3.398c0 0.187 0.016 0.377 0.048 0.566 0.047 0.282 0.292 0.489 0.578 0.489zM17.852 11.25c0 0 0 0 0 0 0.286 0 0.531-0.207 0.578-0.489 0.18-1.075 1.104-1.855 2.195-1.855s2.015 0.78 2.195 1.855c0.047 0.282 0.292 0.489 0.578 0.489s0.531-0.207 0.578-0.489c0.032-0.189 0.048-0.379 0.048-0.566 0-1.874-1.525-3.398-3.398-3.398s-3.398 1.525-3.398 3.398c0 0.187 0.016 0.377 0.048 0.566 0.048 0.282 0.292 0.489 0.578 0.489z"></path>
</svg>
