<!-- Generated by IcoMoon.io -->
<svg version="1.1" xmlns="http://www.w3.org/2000/svg" width="30" height="30" viewBox="0 0 30 30">
<title>happy2</title>
<path fill="#fff" d="M15 0c-8.284 0-15 6.716-15 15s6.716 15 15 15 15-6.716 15-15-6.716-15-15-15zM20.625 7.5c1.036 0 1.875 1.259 1.875 2.813s-0.839 2.813-1.875 2.813-1.875-1.259-1.875-2.813 0.839-2.813 1.875-2.813zM9.375 7.5c1.036 0 1.875 1.259 1.875 2.813s-0.839 2.813-1.875 2.813-1.875-1.259-1.875-2.813 0.839-2.813 1.875-2.813zM15 26.25c-4.889 0-8.948-4.098-9.375-9.325 2.747 1.585 5.978 2.492 9.375 2.492s6.628-0.903 9.375-2.488c-0.427 5.228-4.486 9.321-9.375 9.321z"></path>
</svg>
