<!-- Generated by IcoMoon.io -->
<svg version="1.1" xmlns="http://www.w3.org/2000/svg" width="32" height="30" viewBox="0 0 32 30">
<title>history</title>
<path fill="#fff" d="M18.75 1.875c7.249 0 13.125 5.876 13.125 13.125s-5.876 13.125-13.125 13.125v-2.813c2.755 0 5.344-1.073 7.292-3.020s3.020-4.537 3.020-7.292c0-2.755-1.073-5.344-3.020-7.292s-4.537-3.020-7.292-3.020c-2.755 0-5.344 1.073-7.292 3.020-1.498 1.498-2.478 3.376-2.851 5.417h5.455l-6.563 7.5-6.563-7.5h4.821c0.91-6.36 6.379-11.25 12.991-11.25zM24.375 13.125v3.75h-7.5v-9.375h3.75v5.625z"></path>
</svg>
