<!-- Generated by IcoMoon.io -->
<svg version="1.1" xmlns="http://www.w3.org/2000/svg" width="30" height="30" viewBox="0 0 30 30">
<title>IE</title>
<path fill="#fff" d="M21.51 18.423h6.916c0.053-0.48 0.075-0.97 0.075-1.471 0-2.35-0.631-4.555-1.732-6.453 1.139-3.027 1.098-5.595-0.426-7.131-1.45-1.444-5.341-1.209-9.739 0.738-0.325-0.025-0.654-0.037-0.985-0.037-6.037 0-11.101 4.154-12.501 9.751 1.894-2.424 3.886-4.182 6.547-5.462-0.242 0.227-1.654 1.63-1.891 1.868-7.018 7.016-9.231 16.181-6.85 18.563 1.81 1.81 5.091 1.504 8.859-0.341 1.752 0.892 3.735 1.395 5.836 1.395 5.658 0 10.453-3.642 12.19-8.714h-6.969c-0.959 1.769-2.834 2.973-4.987 2.973s-4.028-1.204-4.987-2.973c-0.426-0.799-0.671-1.715-0.671-2.685v-0.021h11.316zM10.204 15.024c0.16-2.845 2.525-5.115 5.413-5.115s5.253 2.27 5.413 5.115h-10.826zM26.278 4.799c0.982 0.993 0.958 2.819 0.118 5.098-1.44-2.195-3.531-3.924-6-4.911 2.64-1.132 4.787-1.282 5.882-0.187zM2.739 28.338c-1.253-1.254-0.876-3.885 0.739-7.056 1.005 2.82 2.964 5.188 5.488 6.713-2.796 1.269-5.084 1.485-6.228 0.342z"></path>
</svg>
