<!-- Generated by IcoMoon.io -->
<svg version="1.1" xmlns="http://www.w3.org/2000/svg" width="30" height="30" viewBox="0 0 30 30">
<title>image</title>
<path fill="#fff" d="M28.122 3.75c0.001 0.001 0.002 0.002 0.003 0.003v22.493c-0.001 0.001-0.002 0.002-0.003 0.003h-26.243c-0.001-0.001-0.002-0.002-0.003-0.003v-22.493c0.001-0.001 0.002-0.002 0.003-0.003h26.243zM28.125 1.875h-26.25c-1.031 0-1.875 0.844-1.875 1.875v22.5c0 1.031 0.844 1.875 1.875 1.875h26.25c1.031 0 1.875-0.844 1.875-1.875v-22.5c0-1.031-0.844-1.875-1.875-1.875v0z"></path>
<path fill="#fff" d="M24.375 8.438c0 1.553-1.259 2.813-2.813 2.813s-2.813-1.259-2.813-2.813 1.259-2.813 2.813-2.813 2.813 1.259 2.813 2.813z"></path>
<path fill="#fff" d="M26.25 24.375h-22.5v-3.75l6.563-11.25 7.5 9.375h1.875l6.563-5.625z"></path>
</svg>
