<!-- Generated by IcoMoon.io -->
<svg version="1.1" xmlns="http://www.w3.org/2000/svg" width="30" height="30" viewBox="0 0 30 30">
<title>insert-template</title>
<path fill="#fff" d="M11.25 5.625h3.75v1.875h-3.75zM16.875 5.625h3.75v1.875h-3.75zM26.25 5.625v7.5h-5.625v-1.875h3.75v-3.75h-1.875v-1.875zM9.375 11.25h3.75v1.875h-3.75zM15 11.25h3.75v1.875h-3.75zM5.625 7.5v3.75h1.875v1.875h-3.75v-7.5h5.625v1.875zM11.25 16.875h3.75v1.875h-3.75zM16.875 16.875h3.75v1.875h-3.75zM26.25 16.875v7.5h-5.625v-1.875h3.75v-3.75h-1.875v-1.875zM9.375 22.5h3.75v1.875h-3.75zM15 22.5h3.75v1.875h-3.75zM5.625 18.75v3.75h1.875v1.875h-3.75v-7.5h5.625v1.875zM28.125 1.875h-26.25v26.25h26.25v-26.25zM30 0v0 30h-30v-30h30z"></path>
</svg>
