<!-- Generated by IcoMoon.io -->
<svg version="1.1" xmlns="http://www.w3.org/2000/svg" width="30" height="30" viewBox="0 0 30 30">
<title>instagram</title>
<path fill="#fff" d="M15 2.701c4.008 0 4.482 0.018 6.059 0.088 1.465 0.064 2.256 0.311 2.783 0.516 0.697 0.27 1.201 0.598 1.723 1.119 0.527 0.527 0.85 1.025 1.125 1.723 0.205 0.527 0.451 1.324 0.516 2.783 0.070 1.582 0.088 2.057 0.088 6.059s-0.018 4.482-0.088 6.059c-0.064 1.465-0.311 2.256-0.516 2.783-0.27 0.697-0.598 1.201-1.119 1.723-0.527 0.527-1.025 0.85-1.723 1.125-0.527 0.205-1.324 0.451-2.783 0.516-1.582 0.070-2.057 0.088-6.059 0.088s-4.482-0.018-6.059-0.088c-1.465-0.064-2.256-0.311-2.783-0.516-0.697-0.27-1.201-0.598-1.723-1.119-0.527-0.527-0.85-1.025-1.125-1.723-0.205-0.527-0.451-1.324-0.516-2.783-0.070-1.582-0.088-2.057-0.088-6.059s0.018-4.482 0.088-6.059c0.064-1.465 0.311-2.256 0.516-2.783 0.27-0.697 0.598-1.201 1.119-1.723 0.527-0.527 1.025-0.85 1.723-1.125 0.527-0.205 1.324-0.451 2.783-0.516 1.576-0.070 2.051-0.088 6.059-0.088zM15 0c-4.072 0-4.582 0.018-6.182 0.088-1.594 0.070-2.689 0.328-3.639 0.697-0.99 0.387-1.828 0.896-2.66 1.734-0.838 0.832-1.348 1.67-1.734 2.654-0.369 0.955-0.627 2.045-0.697 3.639-0.070 1.605-0.088 2.115-0.088 6.188s0.018 4.582 0.088 6.182c0.070 1.594 0.328 2.689 0.697 3.639 0.387 0.99 0.896 1.828 1.734 2.66 0.832 0.832 1.67 1.348 2.654 1.729 0.955 0.369 2.045 0.627 3.639 0.697 1.6 0.070 2.109 0.088 6.182 0.088s4.582-0.018 6.182-0.088c1.594-0.070 2.689-0.328 3.639-0.697 0.984-0.381 1.822-0.896 2.654-1.729s1.348-1.67 1.729-2.654c0.369-0.955 0.627-2.045 0.697-3.639 0.070-1.6 0.088-2.109 0.088-6.182s-0.018-4.582-0.088-6.182c-0.070-1.594-0.328-2.689-0.697-3.639-0.369-0.996-0.879-1.834-1.717-2.666-0.832-0.832-1.67-1.348-2.654-1.729-0.955-0.369-2.045-0.627-3.639-0.697-1.605-0.076-2.115-0.094-6.187-0.094v0z"></path>
<path fill="#fff" d="M15 7.295c-4.254 0-7.705 3.451-7.705 7.705s3.451 7.705 7.705 7.705 7.705-3.451 7.705-7.705c0-4.254-3.451-7.705-7.705-7.705zM15 19.998c-2.76 0-4.998-2.238-4.998-4.998s2.238-4.998 4.998-4.998c2.76 0 4.998 2.238 4.998 4.998s-2.238 4.998-4.998 4.998z"></path>
<path fill="#fff" d="M24.809 6.99c0 0.993-0.805 1.799-1.799 1.799s-1.799-0.805-1.799-1.799c0-0.993 0.805-1.799 1.799-1.799s1.799 0.805 1.799 1.799z"></path>
</svg>
