<!-- Generated by IcoMoon.io -->
<svg version="1.1" xmlns="http://www.w3.org/2000/svg" width="30" height="30" viewBox="0 0 30 30">
<title>key</title>
<path fill="#fff" d="M20.625 0c-5.178 0-9.375 4.197-9.375 9.375 0 0.587 0.054 1.161 0.157 1.718l-11.407 11.407v5.625c0 1.036 0.839 1.875 1.875 1.875h1.875v-1.875h3.75v-3.75h3.75v-3.75h3.75l2.433-2.433c0.996 0.361 2.071 0.558 3.192 0.558 5.178 0 9.375-4.197 9.375-9.375s-4.197-9.375-9.375-9.375zM23.434 9.379c-1.553 0-2.813-1.259-2.813-2.813s1.259-2.812 2.813-2.812 2.813 1.259 2.813 2.812-1.259 2.813-2.813 2.813z"></path>
</svg>
