<!-- Generated by IcoMoon.io -->
<svg version="1.1" xmlns="http://www.w3.org/2000/svg" width="34" height="30" viewBox="0 0 34 30">
<title>keyboard</title>
<path fill="#fff" d="M31.875 3.75h-30c-1.031 0-1.875 0.844-1.875 1.875v18.75c0 1.031 0.844 1.875 1.875 1.875h30c1.031 0 1.875-0.844 1.875-1.875v-18.75c0-1.031-0.844-1.875-1.875-1.875zM18.75 7.5h3.75v3.75h-3.75v-3.75zM24.375 13.125v3.75h-3.75v-3.75h3.75zM13.125 7.5h3.75v3.75h-3.75v-3.75zM18.75 13.125v3.75h-3.75v-3.75h3.75zM7.5 7.5h3.75v3.75h-3.75v-3.75zM13.125 13.125v3.75h-3.75v-3.75h3.75zM3.75 7.5h1.875v3.75h-1.875v-3.75zM3.75 13.125h3.75v3.75h-3.75v-3.75zM5.625 22.5h-1.875v-3.75h1.875v3.75zM22.5 22.5h-15v-3.75h15v3.75zM30 22.5h-5.625v-3.75h5.625v3.75zM30 16.875h-3.75v-3.75h3.75v3.75zM30 11.25h-5.625v-3.75h5.625v3.75z"></path>
</svg>
