<!-- Generated by IcoMoon.io -->
<svg version="1.1" xmlns="http://www.w3.org/2000/svg" width="30" height="30" viewBox="0 0 30 30">
<title>lastfm</title>
<path fill="#fff" d="M13.23 22.447l-1.102-2.988c0 0-1.787 1.992-4.465 1.992-2.373 0-4.055-2.062-4.055-5.361 0-4.225 2.133-5.736 4.225-5.736 3.023 0 3.984 1.957 4.811 4.465l1.102 3.434c1.102 3.334 3.164 6.012 9.105 6.012 4.26 0 7.148-1.307 7.148-4.74 0-2.783-1.582-4.225-4.535-4.916l-2.197-0.48c-1.512-0.346-1.957-0.961-1.957-1.992 0-1.166 0.926-1.857 2.438-1.857 1.652 0 2.543 0.621 2.678 2.098l3.434-0.41c-0.275-3.094-2.408-4.365-5.912-4.365-3.094 0-6.117 1.166-6.117 4.916 0 2.338 1.137 3.814 3.984 4.5l2.338 0.551c1.752 0.41 2.338 1.137 2.338 2.133 0 1.271-1.236 1.787-3.574 1.787-3.469 0-4.916-1.822-5.736-4.33l-1.137-3.434c-1.436-4.471-3.738-6.117-8.309-6.117-5.051 0-7.734 3.193-7.734 8.625 0 5.221 2.678 8.039 7.494 8.039 3.879 0 5.736-1.822 5.736-1.822v0z"></path>
</svg>
