<!-- Generated by IcoMoon.io -->
<svg version="1.1" xmlns="http://www.w3.org/2000/svg" width="30" height="30" viewBox="0 0 30 30">
<title>link</title>
<path fill="#fff" d="M12.898 18.626c-0.39 0-0.78-0.149-1.077-0.446-2.787-2.787-2.787-7.322 0-10.109l5.625-5.625c1.35-1.35 3.145-2.094 5.055-2.094s3.705 0.744 5.055 2.094c2.787 2.787 2.787 7.322 0 10.109l-2.571 2.571c-0.595 0.595-1.559 0.595-2.154 0s-0.595-1.56 0-2.154l2.571-2.571c1.599-1.599 1.599-4.201 0-5.8-0.775-0.775-1.805-1.201-2.9-1.201s-2.126 0.427-2.9 1.201l-5.625 5.625c-1.599 1.599-1.599 4.201 0 5.801 0.595 0.595 0.595 1.56 0 2.154-0.297 0.297-0.687 0.446-1.077 0.446z"></path>
<path fill="#fff" d="M7.5 29.648c-1.909 0-3.705-0.744-5.055-2.094-2.787-2.787-2.787-7.322 0-10.109l2.571-2.571c0.595-0.595 1.56-0.595 2.154 0s0.595 1.56 0 2.154l-2.571 2.571c-1.599 1.599-1.599 4.201 0 5.801 0.775 0.775 1.805 1.201 2.9 1.201s2.126-0.427 2.9-1.201l5.625-5.625c1.599-1.599 1.599-4.201 0-5.801-0.595-0.595-0.595-1.56 0-2.154s1.56-0.595 2.154 0c2.787 2.787 2.787 7.322 0 10.109l-5.625 5.625c-1.35 1.35-3.145 2.094-5.055 2.094z"></path>
</svg>
