<!-- Generated by IcoMoon.io -->
<svg version="1.1" xmlns="http://www.w3.org/2000/svg" width="30" height="30" viewBox="0 0 30 30">
<title>linkedin2</title>
<path fill="#fff" d="M11.25 11.25h5.189v2.66h0.074c0.722-1.295 2.489-2.66 5.122-2.66 5.477 0 6.49 3.409 6.49 7.844v9.031h-5.408v-8.006c0-1.91-0.039-4.366-2.813-4.366-2.817 0-3.247 2.080-3.247 4.227v8.145h-5.407v-16.875z"></path>
<path fill="#fff" d="M1.875 11.25h5.625v16.875h-5.625v-16.875z"></path>
<path fill="#fff" d="M7.5 6.563c0 1.553-1.259 2.813-2.813 2.813s-2.813-1.259-2.813-2.813c0-1.553 1.259-2.813 2.813-2.813s2.813 1.259 2.813 2.813z"></path>
</svg>
