<!-- Generated by IcoMoon.io -->
<svg version="1.1" xmlns="http://www.w3.org/2000/svg" width="30" height="30" viewBox="0 0 30 30">
<title>location2</title>
<path fill="#fff" d="M15 0c-5.178 0-9.375 4.197-9.375 9.375 0 9.375 9.375 20.625 9.375 20.625s9.375-11.25 9.375-20.625c0-5.178-4.197-9.375-9.375-9.375zM15 15.117c-3.171 0-5.742-2.571-5.742-5.742s2.571-5.742 5.742-5.742 5.742 2.571 5.742 5.742-2.571 5.742-5.742 5.742zM11.367 9.375c0-2.006 1.626-3.633 3.633-3.633s3.633 1.626 3.633 3.633c0 2.006-1.626 3.633-3.633 3.633s-3.633-1.626-3.633-3.633z"></path>
</svg>
