<!-- Generated by IcoMoon.io -->
<svg version="1.1" xmlns="http://www.w3.org/2000/svg" width="30" height="30" viewBox="0 0 30 30">
<title>loop2</title>
<path fill="#fff" d="M26.065 4.873c-2.742-2.995-6.684-4.873-11.065-4.873-8.284 0-15 6.716-15 15h2.813c0-6.731 5.457-12.188 12.188-12.188 3.604 0 6.842 1.565 9.073 4.052l-4.386 4.386h10.313v-10.313l-3.935 3.935z"></path>
<path fill="#fff" d="M27.188 15c0 6.731-5.457 12.188-12.188 12.188-3.604 0-6.842-1.565-9.073-4.052l4.386-4.386h-10.313v10.313l3.935-3.935c2.742 2.995 6.684 4.873 11.065 4.873 8.284 0 15-6.716 15-15h-2.813z"></path>
</svg>
