<!-- Generated by IcoMoon.io -->
<svg version="1.1" xmlns="http://www.w3.org/2000/svg" width="30" height="30" viewBox="0 0 30 30">
<title>magic-wand</title>
<path fill="#fff" d="M7.5 5.625l-3.75-3.75h-1.875v1.875l3.75 3.75zM9.375 0h1.875v3.75h-1.875zM16.875 9.375h3.75v1.875h-3.75zM18.75 3.75v-1.875h-1.875l-3.75 3.75 1.875 1.875zM0 9.375h3.75v1.875h-3.75zM9.375 16.875h1.875v3.75h-1.875zM1.875 16.875v1.875h1.875l3.75-3.75-1.875-1.875zM29.59 25.84l-18.636-18.636c-0.547-0.547-1.442-0.547-1.989 0l-1.761 1.761c-0.547 0.547-0.547 1.442 0 1.989l18.636 18.636c0.547 0.547 1.442 0.547 1.989 0l1.761-1.761c0.547-0.547 0.547-1.442 0-1.989zM14.063 15.938l-5.625-5.625 1.875-1.875 5.625 5.625-1.875 1.875z"></path>
</svg>
