<!-- Generated by IcoMoon.io -->
<svg version="1.1" xmlns="http://www.w3.org/2000/svg" width="30" height="30" viewBox="0 0 30 30">
<title>mail3</title>
<path fill="#fff" d="M25 0h-20c-2.75 0-5.001 2.25-5.001 5.001v19.999c0 2.752 2.25 5.001 5.001 5.001h20c2.75 0 5-2.249 5-5.001v-19.999c0-2.75-2.249-5.001-5-5.001zM5.35 25.975l-2.263-2.263 7.5-7.5 0.857 0.857-6.094 8.906zM4.493 5.819l0.857-0.857 9.65 7.775 9.65-7.775 0.857 0.857-10.507 12.382-10.507-12.382zM24.65 25.975l-6.094-8.906 0.857-0.857 7.5 7.5-2.263 2.263z"></path>
</svg>
