<!-- Generated by IcoMoon.io -->
<svg version="1.1" xmlns="http://www.w3.org/2000/svg" width="30" height="30" viewBox="0 0 30 30">
<title>make-group</title>
<path fill="#fff" d="M9.375 3.75h-3.75c-1.031 0-1.875 0.844-1.875 1.875v3.75c0 1.031 0.844 1.875 1.875 1.875h3.75c1.031 0 1.875-0.844 1.875-1.875v-3.75c0-1.031-0.844-1.875-1.875-1.875z"></path>
<path fill="#fff" d="M20.625 11.25h3.75c1.031 0 1.875-0.844 1.875-1.875v-3.75c0-1.031-0.844-1.875-1.875-1.875h-3.75c-1.031 0-1.875 0.844-1.875 1.875v3.75c0 1.031 0.844 1.875 1.875 1.875zM20.625 5.625h3.75v3.75h-3.75v-3.75z"></path>
<path fill="#fff" d="M9.375 18.75h-3.75c-1.031 0-1.875 0.844-1.875 1.875v3.75c0 1.031 0.844 1.875 1.875 1.875h3.75c1.031 0 1.875-0.844 1.875-1.875v-3.75c0-1.031-0.844-1.875-1.875-1.875zM9.375 24.375h-3.75v-3.75h3.75v3.75z"></path>
<path fill="#fff" d="M24.375 18.75h-3.75c-1.031 0-1.875 0.844-1.875 1.875v3.75c0 1.031 0.844 1.875 1.875 1.875h3.75c1.031 0 1.875-0.844 1.875-1.875v-3.75c0-1.031-0.844-1.875-1.875-1.875z"></path>
<path fill="#fff" d="M26.25 15h-1.875c-2.504 0-4.858-0.975-6.629-2.746s-2.746-4.125-2.746-6.629v-1.875c0-2.063-1.688-3.75-3.75-3.75h-7.5c-2.063 0-3.75 1.688-3.75 3.75v7.5c0 2.063 1.688 3.75 3.75 3.75h1.875c2.504 0 4.858 0.975 6.629 2.746s2.746 4.125 2.746 6.629v1.875c0 2.063 1.688 3.75 3.75 3.75h7.5c2.063 0 3.75-1.688 3.75-3.75v-7.5c0-2.063-1.688-3.75-3.75-3.75zM28.125 26.25c0 0.497-0.196 0.966-0.552 1.323s-0.826 0.552-1.323 0.552h-7.5c-0.497 0-0.966-0.196-1.323-0.552s-0.552-0.826-0.552-1.323v-1.875c0-6.213-5.037-11.25-11.25-11.25h-1.875c-0.497 0-0.966-0.196-1.323-0.552s-0.552-0.826-0.552-1.323v-7.5c0-0.497 0.196-0.966 0.552-1.323s0.826-0.552 1.323-0.552h7.5c0.497 0 0.966 0.196 1.323 0.552s0.552 0.826 0.552 1.323v1.875c0 6.213 5.037 11.25 11.25 11.25h1.875c0.497 0 0.966 0.196 1.323 0.552s0.552 0.826 0.552 1.323v7.5z"></path>
</svg>
