<!-- Generated by IcoMoon.io -->
<svg version="1.1" xmlns="http://www.w3.org/2000/svg" width="30" height="30" viewBox="0 0 30 30">
<title>mug</title>
<path fill="#fff" d="M28.125 9.375h-5.625v-2.813c0-2.589-5.037-4.688-11.25-4.688s-11.25 2.099-11.25 4.688v18.75c0 2.589 5.037 4.688 11.25 4.688s11.25-2.099 11.25-4.688v-2.813h5.625c1.036 0 1.875-0.839 1.875-1.875v-9.375c0-1.036-0.839-1.875-1.875-1.875zM5.158 7.57c-1.084-0.357-1.74-0.74-2.092-1.008 0.352-0.268 1.008-0.651 2.092-1.008 1.698-0.559 3.861-0.867 6.092-0.867s4.395 0.308 6.092 0.867c1.084 0.357 1.74 0.74 2.092 1.008-0.352 0.268-1.008 0.651-2.092 1.008-1.697 0.559-3.861 0.867-6.092 0.867s-4.395-0.308-6.092-0.867zM26.25 18.75h-3.75v-5.625h3.75v5.625z"></path>
</svg>
