<!-- Generated by IcoMoon.io -->
<svg version="1.1" xmlns="http://www.w3.org/2000/svg" width="30" height="30" viewBox="0 0 30 30">
<title>onedrive</title>
<path fill="#fff" d="M10.279 24.269c-1.766-0.441-2.75-1.845-2.753-3.928-0.001-0.666 0.047-0.985 0.213-1.413 0.407-1.050 1.486-1.842 2.906-2.133 0.706-0.145 0.924-0.301 0.924-0.661 0-0.113 0.084-0.45 0.187-0.749 0.467-1.357 1.331-2.488 2.254-2.95 0.967-0.484 1.454-0.593 2.623-0.587 1.66 0.009 2.489 0.369 3.647 1.586l0.637 0.669 0.571-0.198c2.763-0.956 5.517 0.671 5.739 3.391l0.061 0.744 0.544 0.195c1.554 0.557 2.284 1.726 2.152 3.444-0.087 1.124-0.612 2.021-1.444 2.466l-0.391 0.209-8.696 0.017c-6.682 0.013-8.807-0.011-9.174-0.103v0zM3.024 23.026c-1.060-0.266-2.183-1.255-2.709-2.387-0.299-0.642-0.315-0.736-0.315-1.871 0-1.080 0.025-1.253 0.263-1.789 0.501-1.13 1.462-1.947 2.667-2.268 0.254-0.068 0.493-0.176 0.531-0.24s0.080-0.415 0.093-0.779c0.084-2.262 1.488-4.254 3.448-4.894 1.059-0.346 2.448-0.378 3.6 0.109 0.365 0.155 0.324 0.188 1.097-0.883 0.457-0.633 1.322-1.303 2.077-1.704 0.816-0.433 1.664-0.632 2.678-0.63 2.835 0.007 5.278 1.881 6.182 4.742 0.289 0.914 0.274 1.17-0.066 1.177-0.149 0.003-0.574 0.090-0.946 0.192l-0.676 0.186-0.617-0.652c-1.739-1.838-4.577-2.235-6.99-0.978-0.964 0.502-1.738 1.223-2.324 2.162-0.417 0.67-0.949 1.919-0.949 2.229 0 0.22-0.169 0.33-0.889 0.58-2.229 0.773-3.531 2.557-3.53 4.84 0 0.831 0.203 1.848 0.484 2.43 0.106 0.22 0.165 0.428 0.131 0.464-0.086 0.091-2.86 0.060-3.243-0.036v0z"></path>
</svg>
