<!-- Generated by IcoMoon.io -->
<svg version="1.1" xmlns="http://www.w3.org/2000/svg" width="30" height="30" viewBox="0 0 30 30">
<title>paste</title>
<path fill="#fff" d="M20.625 3.75h-3.75v-1.875c0-1.031-0.844-1.875-1.875-1.875h-3.75c-1.031 0-1.875 0.844-1.875 1.875v1.875h-3.75v3.75h15v-3.75zM15 3.75h-3.75v-1.872c0.001-0.001 0.002-0.002 0.003-0.003h3.743c0.001 0.001 0.002 0.002 0.003 0.003v1.872zM24.375 9.375v-4.688c0-0.516-0.422-0.938-0.938-0.938h-1.875v1.875h0.938v3.75h-5.625l-5.625 5.625v7.5h-7.5v-16.875h0.938v-1.875h-1.875c-0.516 0-0.938 0.422-0.938 0.938v18.75c0 0.516 0.422 0.938 0.938 0.938h8.438v5.625h18.75v-20.625h-5.625zM16.875 12.027v2.973h-2.973l2.973-2.973zM28.125 28.125h-15v-11.25h5.625v-5.625h9.375v16.875z"></path>
</svg>
