<!-- Generated by IcoMoon.io -->
<svg version="1.1" xmlns="http://www.w3.org/2000/svg" width="30" height="30" viewBox="0 0 30 30">
<title>phone-hang-up</title>
<path fill="#fff" d="M29.806 16.875c0.234 1.625 0.387 3.849-0.342 4.701-1.205 1.408-8.839 1.408-8.839-1.407 0-1.418 1.256-2.348 0.050-3.755-1.186-1.385-3.311-1.407-5.675-1.407s-4.49 0.023-5.675 1.407c-1.205 1.408 0.050 2.337 0.050 3.755 0 2.815-7.634 2.815-8.839 1.408-0.729-0.851-0.576-3.075-0.342-4.701 0.18-1.085 0.636-2.256 2.096-3.75 0-0 0-0 0-0 2.19-2.043 5.503-3.713 12.593-3.749v-0.001c0.039 0 0.078 0 0.117 0s0.078-0 0.117-0v0.001c7.089 0.036 10.403 1.706 12.593 3.749 0 0 0 0 0 0 1.46 1.494 1.916 2.665 2.096 3.75z"></path>
</svg>
