<!-- Generated by IcoMoon.io -->
<svg version="1.1" xmlns="http://www.w3.org/2000/svg" width="30" height="30" viewBox="0 0 30 30">
<title>pinterest</title>
<path fill="#fff" d="M15 2.004c-7.178 0-12.996 5.818-12.996 12.996 0 5.508 3.428 10.207 8.262 12.1-0.111-1.025-0.217-2.607 0.047-3.727 0.234-1.014 1.523-6.457 1.523-6.457s-0.387-0.779-0.387-1.928c0-1.805 1.049-3.158 2.35-3.158 1.107 0 1.646 0.832 1.646 1.828 0 1.113-0.709 2.783-1.078 4.324-0.311 1.295 0.645 2.35 1.922 2.35 2.309 0 4.084-2.438 4.084-5.953 0-3.111-2.238-5.285-5.426-5.285-3.697 0-5.865 2.771-5.865 5.643 0 1.119 0.428 2.314 0.967 2.965 0.105 0.129 0.123 0.24 0.088 0.375-0.1 0.41-0.316 1.295-0.363 1.477-0.059 0.24-0.187 0.287-0.434 0.176-1.623-0.756-2.637-3.129-2.637-5.033 0-4.102 2.977-7.863 8.584-7.863 4.506 0 8.010 3.211 8.010 7.506 0 4.477-2.824 8.086-6.744 8.086-1.318 0-2.555-0.686-2.977-1.494 0 0-0.65 2.479-0.809 3.088-0.293 1.131-1.084 2.543-1.617 3.404 1.219 0.375 2.508 0.58 3.85 0.58 7.178 0 12.996-5.818 12.996-12.996 0-7.184-5.818-13.002-12.996-13.002z"></path>
</svg>
