<!-- Generated by IcoMoon.io -->
<svg version="1.1" xmlns="http://www.w3.org/2000/svg" width="30" height="30" viewBox="0 0 30 30">
<title>point-right</title>
<path fill="#fff" d="M12.188 28.125h4.688c1.551 0 2.813-1.262 2.813-2.813 0-0.501-0.132-0.972-0.362-1.38 0.781-0.5 1.3-1.376 1.3-2.37 0-0.72-0.272-1.377-0.718-1.875 0.446-0.498 0.718-1.155 0.718-1.875 0-0.329-0.057-0.644-0.161-0.938h6.723c1.551 0 2.813-1.262 2.813-2.813s-1.262-2.813-2.813-2.813h-11.563l2.749-5.157c0.246-0.426 0.376-0.912 0.376-1.406 0-1.551-1.262-2.813-2.813-2.813-0.773 0-1.493 0.307-2.028 0.864-0.007 0.007-0.014 0.015-0.021 0.022l-6.389 7.007v-1.33c0-0.518-0.42-0.938-0.938-0.938h-5.625c-0.518 0-0.938 0.42-0.938 0.938v18.75c0 0.518 0.42 0.938 0.938 0.938h5.625c0.518 0 0.938-0.42 0.938-0.938v-1.296l4.268 2.134c0.13 0.065 0.274 0.099 0.419 0.099zM4.688 26.25c-0.518 0-0.938-0.42-0.938-0.938s0.42-0.938 0.938-0.938 0.938 0.42 0.938 0.938-0.42 0.938-0.938 0.938zM12.409 26.25l-4.909-2.454v-11.245l7.769-8.52c0.178-0.181 0.415-0.281 0.669-0.281 0.517 0 0.938 0.421 0.938 0.938 0 0.16-0.038 0.311-0.114 0.449-0.009 0.016-0.019 0.031-0.027 0.048l-3.499 6.563c-0.155 0.291-0.146 0.641 0.023 0.923s0.475 0.455 0.804 0.455h13.125c0.517 0 0.938 0.421 0.938 0.938s-0.421 0.938-0.938 0.938h-9.375c-0.518 0-0.938 0.42-0.938 0.938s0.42 0.938 0.938 0.938c0.517 0 0.938 0.421 0.938 0.938s-0.421 0.938-0.938 0.938c-0.518 0-0.938 0.42-0.938 0.938s0.42 0.938 0.938 0.938c0.517 0 0.938 0.421 0.938 0.938s-0.421 0.938-0.938 0.938h-0.938c-0.518 0-0.938 0.42-0.938 0.938s0.42 0.938 0.938 0.938c0.517 0 0.938 0.421 0.938 0.938s-0.421 0.938-0.938 0.938h-4.466z"></path>
</svg>
