<!-- Generated by IcoMoon.io -->
<svg version="1.1" xmlns="http://www.w3.org/2000/svg" width="30" height="30" viewBox="0 0 30 30">
<title>point-left</title>
<path fill="#fff" d="M17.813 28.125h-4.688c-1.551 0-2.813-1.262-2.813-2.813 0-0.501 0.132-0.972 0.362-1.38-0.781-0.5-1.3-1.376-1.3-2.37 0-0.72 0.272-1.377 0.718-1.875-0.446-0.498-0.718-1.155-0.718-1.875 0-0.329 0.057-0.644 0.161-0.938h-6.723c-1.551 0-2.813-1.262-2.813-2.813s1.262-2.813 2.813-2.813h11.563l-2.749-5.157c-0.246-0.426-0.376-0.912-0.376-1.406 0-1.551 1.262-2.813 2.813-2.813 0.772 0 1.493 0.307 2.028 0.864 0.007 0.007 0.014 0.015 0.021 0.022l6.389 7.007v-1.33c0-0.518 0.42-0.938 0.938-0.938h5.625c0.518 0 0.938 0.42 0.938 0.938v18.75c0 0.518-0.42 0.938-0.938 0.938h-5.625c-0.518 0-0.938-0.42-0.938-0.938v-1.296l-4.268 2.134c-0.13 0.065-0.274 0.099-0.419 0.099zM25.313 26.25c0.518 0 0.938-0.42 0.938-0.938s-0.42-0.938-0.938-0.938-0.938 0.42-0.938 0.938 0.42 0.938 0.938 0.938zM17.591 26.25l4.909-2.454v-11.245l-7.769-8.52c-0.178-0.181-0.415-0.281-0.669-0.281-0.517 0-0.938 0.421-0.938 0.938 0 0.16 0.038 0.311 0.114 0.449 0.009 0.016 0.019 0.031 0.027 0.048l3.499 6.563c0.155 0.291 0.146 0.641-0.023 0.923s-0.475 0.455-0.804 0.455h-13.125c-0.517 0-0.938 0.421-0.938 0.938s0.421 0.938 0.938 0.938h9.375c0.518 0 0.938 0.42 0.938 0.938s-0.42 0.938-0.938 0.938c-0.517 0-0.938 0.421-0.938 0.938s0.421 0.938 0.938 0.938c0.518 0 0.938 0.42 0.938 0.938s-0.42 0.938-0.938 0.938c-0.517 0-0.938 0.421-0.938 0.938s0.421 0.938 0.938 0.938h0.938c0.518 0 0.938 0.42 0.938 0.938s-0.42 0.938-0.938 0.938c-0.517 0-0.938 0.421-0.938 0.938s0.421 0.938 0.938 0.938h4.466z"></path>
</svg>
