<!-- Generated by IcoMoon.io -->
<svg version="1.1" xmlns="http://www.w3.org/2000/svg" width="30" height="30" viewBox="0 0 30 30">
<title>power-cord</title>
<path fill="#fff" d="M30 8.276l-2.652-2.651-5.237 5.237-2.974-2.974 5.237-5.237-2.651-2.651-5.237 5.237-3.362-3.362-2.538 2.538 15 15 2.538-2.538-3.362-3.362 5.237-5.237z"></path>
<path fill="#fff" d="M23.263 19.74l-13.003-13.003c-2.807 3.366-5.992 8.568-3.791 13.043l-3.874 3.874c-0.911 0.912-0.911 2.403 0 3.315l0.435 0.435c0.912 0.912 2.403 0.912 3.315 0l3.874-3.874c4.476 2.201 9.677-0.983 13.044-3.791z"></path>
</svg>
