<!-- Generated by IcoMoon.io -->
<svg version="1.1" xmlns="http://www.w3.org/2000/svg" width="38" height="30" viewBox="0 0 38 30">
<title>price-tags</title>
<path fill="#fff" d="M36.094 0h-11.25c-0.773 0-1.854 0.447-2.401 0.994l-13.949 13.949c-0.547 0.547-0.547 1.442 0 1.989l12.074 12.074c0.547 0.547 1.442 0.547 1.989 0l13.949-13.949c0.547-0.547 0.994-1.627 0.994-2.401v-11.25c0-0.773-0.633-1.406-1.406-1.406zM29.063 11.25c-1.553 0-2.813-1.259-2.813-2.813s1.259-2.813 2.813-2.813 2.813 1.259 2.813 2.813-1.259 2.813-2.813 2.813z"></path>
<path fill="#fff" d="M3.75 15.938l15.938-15.938h-2.344c-0.773 0-1.854 0.447-2.401 0.994l-13.949 13.949c-0.547 0.547-0.547 1.442 0 1.989l12.074 12.074c0.547 0.547 1.442 0.547 1.989 0l0.881-0.881-12.188-12.188z"></path>
</svg>
