<!-- Generated by IcoMoon.io -->
<svg version="1.1" xmlns="http://www.w3.org/2000/svg" width="30" height="30" viewBox="0 0 30 30">
<title>rss</title>
<path fill="#fff" d="M3.993 22c-2.203 0-3.993 1.797-3.993 3.987 0 2.202 1.79 3.979 3.993 3.979 2.211 0 3.999-1.777 3.999-3.979-0-2.19-1.788-3.987-3.999-3.987zM0.005 10.193v5.75c3.744 0 7.264 1.464 9.916 4.117 2.648 2.646 4.11 6.183 4.11 9.94h5.775c-0-10.922-8.885-19.807-19.801-19.807zM0.011 0v5.753c13.353 0 24.221 10.879 24.221 24.247h5.767c0-16.537-13.455-30-29.989-30z"></path>
</svg>
