<!-- Generated by IcoMoon.io -->
<svg version="1.1" xmlns="http://www.w3.org/2000/svg" width="30" height="30" viewBox="0 0 30 30">
<title>rss2</title>
<path fill="#fff" d="M27.188 0h-24.375c-1.547 0-2.813 1.266-2.813 2.813v24.375c0 1.547 1.266 2.813 2.813 2.813h24.375c1.547 0 2.813-1.266 2.813-2.813v-24.375c0-1.547-1.266-2.813-2.813-2.813zM8.174 24.352c-1.406 0-2.549-1.131-2.549-2.537 0-1.395 1.143-2.543 2.549-2.543 1.412 0 2.549 1.148 2.549 2.543 0 1.406-1.143 2.537-2.549 2.537zM14.572 24.375c0-2.396-0.932-4.652-2.619-6.34-1.693-1.693-3.938-2.625-6.328-2.625v-3.668c6.961 0 12.633 5.666 12.633 12.633h-3.686zM21.082 24.375c0-8.525-6.932-15.469-15.451-15.469v-3.668c10.547 0 19.131 8.59 19.131 19.137h-3.68z"></path>
</svg>
