<!-- Generated by IcoMoon.io -->
<svg version="1.1" xmlns="http://www.w3.org/2000/svg" width="30" height="30" viewBox="0 0 30 30">
<title>safari</title>
<path fill="#fff" d="M15 0c-8.285 0-15 6.715-15 15s6.715 15 15 15 15-6.715 15-15-6.715-15-15-15zM28.078 13.852l-0.029-0.311c0.006 0.105 0.018 0.205 0.029 0.311zM26.027 7.875l-0.211-0.316c0.070 0.105 0.141 0.211 0.211 0.316zM25.213 6.756l-0.129-0.158c0.047 0.053 0.088 0.105 0.129 0.158zM23.396 4.91l-0.158-0.129c0.059 0.047 0.105 0.088 0.158 0.129zM22.441 4.184l-0.316-0.211c0.105 0.070 0.211 0.141 0.316 0.211zM16.459 1.957l-0.316-0.029c0.105 0.006 0.211 0.018 0.316 0.029zM13.852 1.922l-0.316 0.029c0.105-0.006 0.211-0.018 0.316-0.029zM7.875 3.973l-0.316 0.211c0.105-0.070 0.211-0.141 0.316-0.211zM6.756 4.787l-0.152 0.123c0.053-0.041 0.1-0.082 0.152-0.123zM4.91 6.604l-0.129 0.158c0.047-0.053 0.088-0.105 0.129-0.158zM4.184 7.559l-0.211 0.316c0.070-0.105 0.141-0.211 0.211-0.316zM1.957 13.541l-0.029 0.316c0.006-0.105 0.018-0.211 0.029-0.316zM1.922 16.148l0.029 0.316c-0.006-0.105-0.018-0.211-0.029-0.316zM3.973 22.119l0.211 0.316c-0.070-0.1-0.141-0.205-0.211-0.316zM4.219 22.488l2.338-1.564-0.258-0.393-2.338 1.564c-1.061-1.646-1.758-3.539-1.992-5.578l1.4-0.141-0.047-0.469-1.4 0.141c-0.023-0.27-0.035-0.545-0.041-0.82h2.813v-0.469h-2.813c0.006-0.275 0.018-0.545 0.041-0.82l1.4 0.135 0.047-0.469-1.4-0.135c0.234-2.039 0.938-3.932 1.998-5.578l2.338 1.564 0.258-0.393-2.344-1.553c0.158-0.223 0.316-0.445 0.486-0.656l1.084 0.891 0.299-0.363-1.084-0.891c0.176-0.211 0.363-0.41 0.551-0.609l1.986 1.986 0.334-0.334-1.986-1.986c0.199-0.188 0.398-0.375 0.604-0.551l0.891 1.090 0.363-0.299-0.891-1.084c0.217-0.17 0.434-0.334 0.656-0.492l1.564 2.338 0.393-0.258-1.564-2.338c1.646-1.061 3.539-1.758 5.578-1.992l0.141 1.4 0.469-0.047-0.141-1.4c0.27-0.023 0.545-0.035 0.82-0.041v2.813h0.469v-2.813c0.275 0.006 0.545 0.018 0.82 0.041l-0.135 1.4 0.469 0.047 0.135-1.4c2.039 0.234 3.932 0.938 5.578 1.998l-1.564 2.338 0.393 0.258 1.564-2.338c0.223 0.158 0.445 0.316 0.656 0.486l-0.891 1.084 0.363 0.299 0.891-1.084c0.211 0.176 0.41 0.363 0.609 0.551l-0.75 0.732-10.254 6.838-6.838 10.254-0.732 0.732c-0.188-0.199-0.375-0.398-0.551-0.604l1.084-0.891-0.299-0.363-1.084 0.891c-0.17-0.211-0.328-0.434-0.486-0.656zM4.91 23.396c-0.041-0.053-0.082-0.1-0.123-0.152l0.123 0.152zM6.604 25.090l0.152 0.123c-0.053-0.041-0.1-0.082-0.152-0.123zM7.559 25.811l0.316 0.211c-0.105-0.064-0.211-0.135-0.316-0.211zM13.541 28.043l0.316 0.029c-0.105-0.006-0.211-0.018-0.316-0.029zM16.148 28.078l0.311-0.029c-0.105 0.006-0.205 0.018-0.311 0.029zM22.125 26.027l0.316-0.211c-0.105 0.070-0.211 0.141-0.316 0.211zM23.244 25.213l0.158-0.129c-0.053 0.047-0.105 0.088-0.158 0.129zM24.27 24.293l0.023-0.023c-0.006 0.006-0.018 0.018-0.023 0.023zM25.090 23.396l0.129-0.158c-0.047 0.053-0.088 0.105-0.129 0.158zM25.295 23.145l-1.084-0.891-0.299 0.363 1.084 0.891c-0.176 0.211-0.363 0.41-0.551 0.609l-1.986-1.986-0.334 0.334 1.986 1.986c-0.199 0.188-0.398 0.375-0.604 0.551l-0.891-1.090-0.363 0.299 0.891 1.084c-0.217 0.17-0.434 0.334-0.656 0.492l-1.564-2.338-0.393 0.258 1.564 2.338c-1.646 1.061-3.539 1.758-5.578 1.992l-0.141-1.4-0.469 0.047 0.141 1.4c-0.27 0.023-0.545 0.035-0.82 0.041v-2.813h-0.469v2.813c-0.275-0.006-0.545-0.018-0.82-0.041l0.135-1.4-0.469-0.047-0.135 1.4c-2.039-0.234-3.932-0.938-5.578-1.998l1.564-2.338-0.393-0.258-1.553 2.338c-0.223-0.158-0.445-0.316-0.656-0.486l0.891-1.084-0.363-0.299-0.891 1.084c-0.211-0.176-0.41-0.363-0.609-0.551l0.738-0.732 10.254-6.838 6.838-10.254 0.732-0.732c0.188 0.199 0.375 0.398 0.551 0.604l-1.084 0.891 0.299 0.363 1.084-0.891c0.17 0.217 0.334 0.434 0.492 0.656l-2.338 1.564 0.258 0.393 2.338-1.564c1.061 1.646 1.758 3.539 1.992 5.578l-1.4 0.141 0.047 0.469 1.4-0.141c0.023 0.27 0.035 0.545 0.041 0.82h-2.813v0.469h2.813c-0.006 0.275-0.018 0.545-0.041 0.82l-1.4-0.135-0.047 0.469 1.4 0.135c-0.234 2.039-0.938 3.932-1.998 5.578l-2.338-1.564-0.258 0.393 2.338 1.564c-0.152 0.211-0.316 0.428-0.486 0.645zM28.078 16.143c-0.012 0.105-0.018 0.211-0.029 0.316l0.029-0.316zM26.027 22.125c-0.070 0.105-0.141 0.211-0.211 0.316l0.211-0.316z"></path>
<path fill="#fff" d="M12.672 2.082l0.549 2.759-0.46 0.091-0.549-2.759 0.46-0.091z"></path>
<path fill="#fff" d="M17.334 27.918l-0.549-2.759 0.46-0.091 0.549 2.759-0.46 0.091z"></path>
<path fill="#fff" d="M11.415 2.37l0.408 1.346-0.449 0.136-0.408-1.346 0.449-0.136z"></path>
<path fill="#fff" d="M18.587 27.624l-0.408-1.346 0.449-0.136 0.408 1.346-0.449 0.136z"></path>
<path fill="#fff" d="M10.196 2.786l1.076 2.598-0.433 0.179-1.076-2.598 0.433-0.179z"></path>
<path fill="#fff" d="M19.808 27.216l-1.076-2.598 0.433-0.179 1.076 2.598-0.433 0.179z"></path>
<path fill="#fff" d="M8.602 3.535l0.413-0.221 0.663 1.24-0.413 0.221-0.663-1.24z"></path>
<path fill="#fff" d="M21.39 26.464l-0.413 0.221-0.663-1.24 0.413-0.221 0.663 1.24z"></path>
<path fill="#fff" d="M3.533 8.608l1.24 0.663-0.221 0.413-1.24-0.663 0.221-0.413z"></path>
<path fill="#fff" d="M26.462 21.392l-1.24-0.663 0.221-0.413 1.24 0.663-0.221 0.413z"></path>
<path fill="#fff" d="M5.385 11.268l-2.598-1.076 0.179-0.433 2.598 1.076-0.179 0.433z"></path>
<path fill="#fff" d="M24.619 18.73l2.598 1.076-0.179 0.433-2.598-1.076 0.179-0.433z"></path>
<path fill="#fff" d="M2.506 10.968l1.346 0.408-0.136 0.449-1.346-0.408 0.136-0.449z"></path>
<path fill="#fff" d="M27.489 19.033l-1.346-0.408 0.136-0.449 1.346 0.408-0.136 0.449z"></path>
<path fill="#fff" d="M2.17 12.21l2.759 0.549-0.091 0.46-2.759-0.549 0.091-0.46z"></path>
<path fill="#fff" d="M27.824 17.79l-2.759-0.549 0.091-0.46 2.759 0.549-0.091 0.46z"></path>
<path fill="#fff" d="M2.079 17.331l2.759-0.549 0.091 0.46-2.759 0.549-0.091-0.46z"></path>
<path fill="#fff" d="M27.915 12.669l-2.759 0.549-0.091-0.46 2.759-0.549 0.091 0.46z"></path>
<path fill="#fff" d="M2.372 18.589l1.346-0.408 0.136 0.449-1.346 0.408-0.136-0.449z"></path>
<path fill="#fff" d="M27.626 11.417l-1.346 0.408-0.136-0.449 1.346-0.408 0.136 0.449z"></path>
<path fill="#fff" d="M2.963 20.242l-0.179-0.433 2.598-1.076 0.179 0.433-2.598 1.076z"></path>
<path fill="#fff" d="M27.035 9.763l0.179 0.433-2.598 1.076-0.179-0.433 2.598-1.076z"></path>
<path fill="#fff" d="M3.54 21.395l-0.221-0.413 1.24-0.663 0.221 0.413-1.24 0.663z"></path>
<path fill="#fff" d="M26.468 8.607l0.221 0.413-1.24 0.663-0.221-0.413 1.24-0.663z"></path>
<path fill="#fff" d="M9.020 26.685l-0.413-0.221 0.663-1.24 0.413 0.221-0.663 1.24z"></path>
<path fill="#fff" d="M20.979 3.313l0.413 0.221-0.663 1.24-0.413-0.221 0.663-1.24z"></path>
<path fill="#fff" d="M9.764 27.035l1.076-2.598 0.433 0.179-1.076 2.598-0.433-0.179z"></path>
<path fill="#fff" d="M20.241 2.962l-1.076 2.598-0.433-0.179 1.076-2.598 0.433 0.179z"></path>
<path fill="#fff" d="M11.415 27.628l-0.449-0.136 0.408-1.346 0.449 0.136-0.408 1.346z"></path>
<path fill="#fff" d="M18.584 2.37l0.449 0.136-0.408 1.346-0.449-0.136 0.408-1.346z"></path>
<path fill="#fff" d="M12.67 27.915l-0.46-0.091 0.549-2.759 0.46 0.091-0.549 2.759z"></path>
<path fill="#fff" d="M17.33 2.079l0.46 0.091-0.549 2.759-0.46-0.091 0.549-2.759z"></path>
</svg>
