<!-- Generated by IcoMoon.io -->
<svg version="1.1" xmlns="http://www.w3.org/2000/svg" width="30" height="30" viewBox="0 0 30 30">
<title>scissors</title>
<path fill="#fff" d="M26.772 19.913c-1.954-3.053-5.305-4.396-7.486-3.001-0.188 0.121-0.361 0.258-0.52 0.41l-2.328-3.64 5.375-8.437c0.44-0.812 0.602-1.78 0.389-2.753-0.204-0.93-0.718-1.712-1.409-2.262l-0.36-0.229-6.371 9.964-6.371-9.964-0.36 0.229c-0.691 0.55-1.205 1.332-1.409 2.262-0.214 0.973-0.051 1.941 0.389 2.753l5.375 8.437-2.328 3.64c-0.158-0.152-0.332-0.289-0.52-0.41-2.181-1.395-5.532-0.052-7.486 3.001s-1.769 6.659 0.411 8.054c2.181 1.395 5.532 0.052 7.486-3.001l4.813-7.555 4.813 7.555c1.954 3.053 5.305 4.396 7.486 3.001s2.365-5.001 0.411-8.054zM6.88 23.45c-0.879 1.374-2.008 2.043-2.771 2.21-0 0-0 0-0 0-0.249 0.055-0.595 0.088-0.83-0.062-0.261-0.167-0.434-0.608-0.463-1.18-0.047-0.927 0.282-2.017 0.905-2.989 0.879-1.374 2.008-2.043 2.77-2.21 0.249-0.055 0.595-0.088 0.83 0.062 0.261 0.167 0.434 0.608 0.463 1.18 0.047 0.927-0.282 2.017-0.905 2.989zM14.063 15c-0.518 0-0.938-0.42-0.938-0.938s0.42-0.938 0.938-0.938 0.938 0.42 0.938 0.938-0.42 0.938-0.938 0.938zM25.308 24.418c-0.029 0.572-0.202 1.013-0.463 1.18-0.235 0.151-0.581 0.117-0.83 0.062 0 0 0 0-0 0-0.763-0.168-1.891-0.836-2.771-2.21-0.622-0.973-0.952-2.062-0.905-2.989 0.029-0.572 0.202-1.013 0.463-1.18 0.235-0.15 0.581-0.117 0.83-0.062 0.763 0.167 1.891 0.836 2.77 2.21 0.622 0.973 0.952 2.062 0.905 2.989z"></path>
</svg>
