<!-- Generated by IcoMoon.io -->
<svg version="1.1" xmlns="http://www.w3.org/2000/svg" width="30" height="30" viewBox="0 0 30 30">
<title>sina-weibo</title>
<path fill="#fff" d="M12.604 26.309c-4.969 0.492-9.258-1.758-9.58-5.016-0.322-3.264 3.445-6.299 8.408-6.791 4.969-0.492 9.258 1.758 9.574 5.016 0.328 3.264-3.439 6.305-8.402 6.791zM22.535 15.486c-0.422-0.129-0.715-0.211-0.492-0.768 0.48-1.207 0.527-2.244 0.006-2.988-0.973-1.389-3.639-1.318-6.691-0.035 0 0-0.961 0.416-0.715-0.34 0.469-1.512 0.398-2.771-0.334-3.504-1.658-1.658-6.064 0.064-9.844 3.844-2.824 2.818-4.465 5.824-4.465 8.42 0 4.957 6.363 7.975 12.586 7.975 8.156 0 13.588-4.74 13.588-8.502 0-2.279-1.916-3.568-3.639-4.102z"></path>
<path fill="#fff" d="M27.955 6.404c-1.969-2.186-4.875-3.018-7.559-2.449v0c-0.621 0.135-1.014 0.744-0.879 1.359 0.135 0.621 0.738 1.014 1.359 0.879 1.91-0.404 3.973 0.188 5.373 1.74s1.781 3.668 1.178 5.52v0c-0.193 0.604 0.135 1.248 0.738 1.447 0.604 0.193 1.248-0.135 1.447-0.738v-0.006c0.844-2.59 0.311-5.566-1.658-7.752z"></path>
<path fill="#fff" d="M24.926 9.141c-0.961-1.066-2.379-1.471-3.68-1.189-0.533 0.111-0.873 0.645-0.762 1.178 0.117 0.533 0.645 0.873 1.172 0.756v0c0.639-0.135 1.33 0.064 1.799 0.58 0.469 0.521 0.598 1.23 0.393 1.852v0c-0.164 0.516 0.117 1.078 0.639 1.248 0.521 0.164 1.078-0.117 1.248-0.639 0.41-1.271 0.152-2.725-0.809-3.785z"></path>
<path fill="#fff" d="M12.879 20.408c-0.176 0.299-0.557 0.439-0.855 0.316-0.299-0.117-0.387-0.457-0.217-0.744 0.176-0.287 0.545-0.428 0.838-0.316 0.293 0.105 0.398 0.439 0.234 0.744zM11.291 22.436c-0.48 0.768-1.512 1.102-2.285 0.75-0.762-0.346-0.99-1.236-0.51-1.986 0.475-0.744 1.471-1.078 2.238-0.756 0.779 0.334 1.031 1.219 0.557 1.992zM13.096 17.010c-2.361-0.615-5.033 0.563-6.059 2.643-1.049 2.121-0.035 4.482 2.35 5.256 2.473 0.797 5.391-0.428 6.404-2.713 1.002-2.244-0.246-4.547-2.695-5.186z"></path>
</svg>
