<!-- Generated by IcoMoon.io -->
<svg version="1.1" xmlns="http://www.w3.org/2000/svg" width="30" height="30" viewBox="0 0 30 30">
<title>soundcloud2</title>
<path fill="#fff" d="M27.188 0h-24.375c-1.547 0-2.813 1.266-2.813 2.813v24.375c0 1.547 1.266 2.813 2.813 2.813h24.375c1.547 0 2.813-1.266 2.813-2.813v-24.375c0-1.547-1.266-2.813-2.813-2.813zM5.156 20.625h-0.938l-0.469-2.813 0.469-2.813h0.938l0.469 2.813-0.469 2.813zM8.906 20.625h-0.938l-0.469-3.75 0.469-3.75h0.938l0.469 3.75-0.469 3.75zM12.656 20.625h-0.938l-0.469-5.625 0.469-5.625h0.938l0.469 5.625-0.469 5.625zM24.176 20.625c-0.059 0-8.824-0.006-8.83-0.006-0.187-0.018-0.34-0.182-0.346-0.375v-10.113c0-0.187 0.064-0.281 0.305-0.375 0.621-0.24 1.318-0.381 2.039-0.381 2.936 0 5.344 2.25 5.602 5.127 0.381-0.158 0.797-0.246 1.23-0.246 1.758 0 3.188 1.43 3.188 3.188s-1.43 3.182-3.188 3.182z"></path>
</svg>
