<!-- Generated by IcoMoon.io -->
<svg version="1.1" xmlns="http://www.w3.org/2000/svg" width="30" height="30" viewBox="0 0 30 30">
<title>soundcloud</title>
<path fill="#fff" d="M26.132 15.065c-0.53 0-1.036 0.103-1.496 0.289-0.308-3.35-3.231-5.978-6.797-5.978-0.873 0-1.719 0.165-2.47 0.444-0.292 0.108-0.368 0.22-0.368 0.437v11.798c0 0.228 0.183 0.417 0.414 0.439 0.010 0.001 10.65 0.006 10.719 0.006 2.136 0 3.867-1.665 3.867-3.718s-1.732-3.718-3.868-3.718zM11.719 22.5h0.938l0.469-6.569-0.469-6.556h-0.938l-0.469 6.556zM8.906 22.5h-0.938l-0.469-4.768 0.469-4.607h0.938l0.469 4.688zM4.219 22.5h0.938l0.469-3.75-0.469-3.75h-0.938l-0.469 3.75zM0.469 20.625h0.938l0.469-1.875-0.469-1.875h-0.938l-0.469 1.875z"></path>
</svg>
