<!-- Generated by IcoMoon.io -->
<svg version="1.1" xmlns="http://www.w3.org/2000/svg" width="30" height="30" viewBox="0 0 30 30">
<title>spell-check</title>
<path fill="#fff" d="M3.75 7.5h3.75v5.625h1.875v-11.25c0-1.031-0.844-1.875-1.875-1.875h-3.75c-1.031 0-1.875 0.844-1.875 1.875v11.25h1.875v-5.625zM3.75 1.875h3.75v3.75h-3.75v-3.75zM28.125 1.875v-1.875h-5.625c-1.031 0-1.875 0.844-1.875 1.875v9.375c0 1.031 0.844 1.875 1.875 1.875h5.625v-1.875h-5.625v-9.375h5.625zM18.75 4.688v-2.813c0-1.031-0.844-1.875-1.875-1.875h-5.625v13.125h5.625c1.031 0 1.875-0.844 1.875-1.875v-2.813c0-1.031-0.258-1.875-1.289-1.875 1.031 0 1.289-0.844 1.289-1.875zM16.875 11.25h-3.75v-3.75h3.75v3.75zM16.875 5.625h-3.75v-3.75h3.75v3.75zM24.375 16.875l-12.188 13.125-6.563-8.438 2.402-2.051 4.16 4.336 10.313-8.848z"></path>
</svg>
