<!-- Generated by IcoMoon.io -->
<svg version="1.1" xmlns="http://www.w3.org/2000/svg" width="30" height="30" viewBox="0 0 30 30">
<title>spinner</title>
<path fill="#fff" d="M11.25 3.75c0-2.071 1.679-3.75 3.75-3.75s3.75 1.679 3.75 3.75c0 2.071-1.679 3.75-3.75 3.75s-3.75-1.679-3.75-3.75zM19.205 7.045c0-2.071 1.679-3.75 3.75-3.75s3.75 1.679 3.75 3.75c0 2.071-1.679 3.75-3.75 3.75s-3.75-1.679-3.75-3.75zM24.375 15c0-1.036 0.839-1.875 1.875-1.875s1.875 0.839 1.875 1.875c0 1.036-0.839 1.875-1.875 1.875s-1.875-0.839-1.875-1.875zM21.080 22.955c0-1.036 0.839-1.875 1.875-1.875s1.875 0.839 1.875 1.875c0 1.036-0.839 1.875-1.875 1.875s-1.875-0.839-1.875-1.875zM13.125 26.25c0 0 0 0 0 0 0-1.036 0.839-1.875 1.875-1.875s1.875 0.839 1.875 1.875c0 0 0 0 0 0 0 1.036-0.839 1.875-1.875 1.875s-1.875-0.839-1.875-1.875zM5.17 22.955c0 0 0 0 0 0 0-1.036 0.839-1.875 1.875-1.875s1.875 0.839 1.875 1.875c0 0 0 0 0 0 0 1.036-0.839 1.875-1.875 1.875s-1.875-0.839-1.875-1.875zM4.233 7.045c0 0 0 0 0 0 0-1.553 1.259-2.813 2.813-2.813s2.813 1.259 2.813 2.813c0 0 0 0 0 0 0 1.553-1.259 2.813-2.813 2.813s-2.813-1.259-2.813-2.813zM1.641 15c0-1.165 0.944-2.109 2.109-2.109s2.109 0.944 2.109 2.109c0 1.165-0.944 2.109-2.109 2.109s-2.109-0.944-2.109-2.109z"></path>
</svg>
