<!-- Generated by IcoMoon.io -->
<svg version="1.1" xmlns="http://www.w3.org/2000/svg" width="30" height="30" viewBox="0 0 30 30">
<title>spinner4</title>
<path fill="#fff" d="M5.625 15c0-0.357 0.021-0.709 0.059-1.055l-5.419-1.761c-0.173 0.912-0.265 1.853-0.265 2.816 0 4.313 1.821 8.201 4.736 10.937l3.348-4.608c-1.527-1.668-2.459-3.889-2.459-6.329zM24.375 15c0 2.439-0.932 4.661-2.459 6.329l3.348 4.608c2.915-2.736 4.736-6.624 4.736-10.937 0-0.963-0.092-1.904-0.265-2.816l-5.419 1.761c0.039 0.347 0.059 0.698 0.059 1.055zM16.875 5.813c2.693 0.547 4.967 2.248 6.283 4.565l5.419-1.761c-2.144-4.553-6.511-7.853-11.702-8.501v5.696zM6.842 10.378c1.316-2.317 3.589-4.018 6.283-4.565v-5.696c-5.191 0.647-9.558 3.947-11.702 8.501l5.419 1.761zM18.883 23.535c-1.183 0.539-2.498 0.84-3.883 0.84s-2.7-0.301-3.883-0.84l-3.348 4.609c2.145 1.183 4.609 1.856 7.232 1.856s5.087-0.674 7.232-1.856l-3.348-4.609z"></path>
</svg>
