<!-- Generated by IcoMoon.io -->
<svg version="1.1" xmlns="http://www.w3.org/2000/svg" width="30" height="30" viewBox="0 0 30 30">
<title>spinner8</title>
<path fill="#fff" d="M15 30c-4.007 0-7.773-1.56-10.607-4.393s-4.393-6.6-4.393-10.607c0-2.837 0.796-5.6 2.303-7.989 1.465-2.323 3.535-4.2 5.987-5.429l1.26 2.515c-1.993 0.999-3.677 2.525-4.868 4.414-1.223 1.94-1.869 4.184-1.869 6.489 0 6.72 5.467 12.188 12.188 12.188s12.188-5.467 12.188-12.188c0-2.305-0.646-4.549-1.869-6.489-1.191-1.889-2.874-3.416-4.868-4.414l1.26-2.515c2.452 1.228 4.522 3.106 5.987 5.429 1.507 2.389 2.303 5.152 2.303 7.989 0 4.007-1.56 7.773-4.393 10.607s-6.6 4.393-10.607 4.393z"></path>
</svg>
