<!-- Generated by IcoMoon.io -->
<svg version="1.1" xmlns="http://www.w3.org/2000/svg" width="30" height="30" viewBox="0 0 30 30">
<title>stats-bars2</title>
<path fill="#fff" d="M8.438 11.25h-5.625c-0.516 0-0.938 0.422-0.938 0.938v16.875c0 0.516 0.422 0.938 0.938 0.938h5.625c0.516 0 0.938-0.422 0.938-0.938v-16.875c0-0.516-0.422-0.938-0.938-0.938zM8.438 28.125h-5.625v-7.5h5.625v7.5zM17.813 7.5h-5.625c-0.516 0-0.938 0.422-0.938 0.938v20.625c0 0.516 0.422 0.938 0.938 0.938h5.625c0.516 0 0.938-0.422 0.938-0.938v-20.625c0-0.516-0.422-0.938-0.938-0.938zM17.813 28.125h-5.625v-9.375h5.625v9.375zM27.188 3.75h-5.625c-0.516 0-0.938 0.422-0.938 0.938v24.375c0 0.516 0.422 0.938 0.938 0.938h5.625c0.516 0 0.938-0.422 0.938-0.938v-24.375c0-0.516-0.422-0.938-0.938-0.938zM27.188 28.125h-5.625v-11.25h5.625v11.25z"></path>
</svg>
