<!-- Generated by IcoMoon.io -->
<svg version="1.1" xmlns="http://www.w3.org/2000/svg" width="30" height="30" viewBox="0 0 30 30">
<title>table</title>
<path fill="#fff" d="M0 5.625v20.625h30v-20.625h-30zM11.25 18.75v-3.75h7.5v3.75h-7.5zM18.75 20.625v3.75h-7.5v-3.75h7.5zM18.75 9.375v3.75h-7.5v-3.75h7.5zM9.375 9.375v3.75h-7.5v-3.75h7.5zM1.875 15h7.5v3.75h-7.5v-3.75zM20.625 15h7.5v3.75h-7.5v-3.75zM20.625 13.125v-3.75h7.5v3.75h-7.5zM1.875 20.625h7.5v3.75h-7.5v-3.75zM20.625 24.375v-3.75h7.5v3.75h-7.5z"></path>
</svg>
