<!-- Generated by IcoMoon.io -->
<svg version="1.1" xmlns="http://www.w3.org/2000/svg" width="30" height="30" viewBox="0 0 30 30">
<title>ticket</title>
<path fill="#fff" d="M16.875 9.375l3.75 3.75-7.5 7.5-3.75-3.75zM29.342 8.716l-2.154-2.154-0.938 0.938c-0.48 0.48-1.143 0.777-1.875 0.777-1.464 0-2.652-1.187-2.652-2.652 0-0.732 0.297-1.396 0.777-1.876l0.937-0.937-2.154-2.154c-0.878-0.878-2.315-0.878-3.193 0l-17.433 17.433c-0.878 0.878-0.878 2.315 0 3.193l2.154 2.154 0.936-0.936c0.48-0.481 1.143-0.778 1.876-0.778 1.464 0 2.652 1.187 2.652 2.652 0 0.733-0.297 1.396-0.777 1.876l-0.937 0.937 2.154 2.154c0.878 0.878 2.315 0.878 3.193 0l17.433-17.433c0.878-0.878 0.878-2.315 0-3.193zM13.125 24.375l-7.5-7.5 11.25-11.25 7.5 7.5-11.25 11.25z"></path>
</svg>
