<!-- Generated by IcoMoon.io -->
<svg version="1.1" xmlns="http://www.w3.org/2000/svg" width="30" height="30" viewBox="0 0 30 30">
<title>ungroup</title>
<path fill="#fff" d="M11.25 13.594c0 0.773-0.633 1.406-1.406 1.406h-2.813c-0.773 0-1.406-0.633-1.406-1.406v-2.813c0-0.773 0.633-1.406 1.406-1.406h2.813c0.773 0 1.406 0.633 1.406 1.406v2.813z"></path>
<path fill="#fff" d="M20.625 13.594c0 0.773-0.633 1.406-1.406 1.406h-2.813c-0.773 0-1.406-0.633-1.406-1.406v-2.813c0-0.773 0.633-1.406 1.406-1.406h2.813c0.773 0 1.406 0.633 1.406 1.406v2.813z"></path>
<path fill="#fff" d="M11.25 22.969c0 0.773-0.633 1.406-1.406 1.406h-2.813c-0.773 0-1.406-0.633-1.406-1.406v-2.813c0-0.773 0.633-1.406 1.406-1.406h2.813c0.773 0 1.406 0.633 1.406 1.406v2.813z"></path>
<path fill="#fff" d="M20.625 22.969c0 0.773-0.633 1.406-1.406 1.406h-2.813c-0.773 0-1.406-0.633-1.406-1.406v-2.813c0-0.773 0.633-1.406 1.406-1.406h2.813c0.773 0 1.406 0.633 1.406 1.406v2.813z"></path>
<path fill="#fff" d="M26.721 4.688l3.279-3.279v-1.409h-1.409l-3.279 3.279-3.279-3.279h-1.409v1.409l3.279 3.279-3.279 3.279v1.409h1.409l3.279-3.279 3.279 3.279h1.409v-1.409z"></path>
<path fill="#fff" d="M0 22.5h1.875v3.75h-1.875v-3.75z"></path>
<path fill="#fff" d="M0 16.875h1.875v3.75h-1.875v-3.75z"></path>
<path fill="#fff" d="M24.375 13.125h1.875v3.75h-1.875v-3.75z"></path>
<path fill="#fff" d="M24.375 24.375h1.875v3.75h-1.875v-3.75z"></path>
<path fill="#fff" d="M24.375 18.75h1.875v3.75h-1.875v-3.75z"></path>
<path fill="#fff" d="M0 11.25h1.875v3.75h-1.875v-3.75z"></path>
<path fill="#fff" d="M0 5.625h1.875v3.75h-1.875v-3.75z"></path>
<path fill="#fff" d="M15 3.75h3.75v1.875h-3.75v-1.875z"></path>
<path fill="#fff" d="M9.375 3.75h3.75v1.875h-3.75v-1.875z"></path>
<path fill="#fff" d="M3.75 3.75h3.75v1.875h-3.75v-1.875z"></path>
<path fill="#fff" d="M13.125 28.125h3.75v1.875h-3.75v-1.875z"></path>
<path fill="#fff" d="M18.75 28.125h3.75v1.875h-3.75v-1.875z"></path>
<path fill="#fff" d="M7.5 28.125h3.75v1.875h-3.75v-1.875z"></path>
<path fill="#fff" d="M1.875 28.125h3.75v1.875h-3.75v-1.875z"></path>
</svg>
