<!-- Generated by IcoMoon.io -->
<svg version="1.1" xmlns="http://www.w3.org/2000/svg" width="30" height="30" viewBox="0 0 30 30">
<title>video-camera</title>
<path fill="#fff" d="M11.25 8.438c0-2.589 2.099-4.688 4.688-4.688s4.688 2.099 4.688 4.688c0 2.589-2.099 4.688-4.688 4.688s-4.688-2.099-4.688-4.688zM0 8.438c0-2.589 2.099-4.688 4.688-4.688s4.688 2.099 4.688 4.688c0 2.589-2.099 4.688-4.688 4.688s-4.688-2.099-4.688-4.688zM22.5 17.813v-2.813c0-1.031-0.844-1.875-1.875-1.875h-18.75c-1.031 0-1.875 0.844-1.875 1.875v9.375c0 1.031 0.844 1.875 1.875 1.875h18.75c1.031 0 1.875-0.844 1.875-1.875v-2.813l7.5 4.688v-13.125l-7.5 4.688zM18.75 22.5h-15v-5.625h15v5.625z"></path>
</svg>
