<!-- Generated by IcoMoon.io -->
<svg version="1.1" xmlns="http://www.w3.org/2000/svg" width="30" height="30" viewBox="0 0 30 30">
<title>vine</title>
<path fill="#fff" d="M28.148 14.912c-0.773 0.176-1.518 0.258-2.191 0.258-3.785 0-6.697-2.643-6.697-7.242 0-2.256 0.873-3.422 2.104-3.422 1.172 0 1.951 1.049 1.951 3.182 0 1.213-0.322 2.543-0.563 3.328 0 0 1.166 2.033 4.354 1.412 0.68-1.506 1.043-3.451 1.043-5.156 0-4.594-2.344-7.271-6.639-7.271-4.418 0-7.002 3.393-7.002 7.869 0 4.436 2.074 8.238 5.49 9.973-1.436 2.877-3.264 5.408-5.174 7.318-3.457-4.184-6.586-9.762-7.869-20.654h-5.104c2.361 18.141 9.387 23.918 11.25 25.025 1.049 0.633 1.957 0.604 2.918 0.059 1.512-0.855 6.041-5.391 8.555-10.693 1.055 0 2.32-0.123 3.58-0.41v-3.574z"></path>
</svg>
