<!-- Generated by IcoMoon.io -->
<svg version="1.1" xmlns="http://www.w3.org/2000/svg" width="30" height="30" viewBox="0 0 30 30">
<title>warning</title>
<path fill="#fff" d="M15 2.718l12.571 25.055h-25.143l12.571-25.055zM15 0c-0.647 0-1.293 0.436-1.784 1.308l-12.805 25.521c-0.981 1.744-0.146 3.171 1.855 3.171h25.468c2.001 0 2.836-1.427 1.854-3.171h0l-12.805-25.521c-0.49-0.872-1.137-1.308-1.784-1.308v0z"></path>
<path fill="#fff" d="M16.875 24.375c0 1.036-0.839 1.875-1.875 1.875s-1.875-0.839-1.875-1.875c0-1.036 0.839-1.875 1.875-1.875s1.875 0.839 1.875 1.875z"></path>
<path fill="#fff" d="M15 20.625c-1.036 0-1.875-0.839-1.875-1.875v-5.625c0-1.036 0.839-1.875 1.875-1.875s1.875 0.839 1.875 1.875v5.625c0 1.036-0.839 1.875-1.875 1.875z"></path>
</svg>
