<!-- Generated by IcoMoon.io -->
<svg version="1.1" xmlns="http://www.w3.org/2000/svg" width="30" height="30" viewBox="0 0 30 30">
<title>wikipedia</title>
<path fill="#fff" d="M28.324 6.844c0 0.094-0.029 0.182-0.088 0.264-0.059 0.076-0.123 0.117-0.199 0.117-0.586 0.059-1.066 0.246-1.436 0.563-0.375 0.316-0.756 0.932-1.148 1.828l-6.047 13.635c-0.041 0.129-0.152 0.188-0.334 0.188-0.141 0-0.252-0.064-0.334-0.188l-3.393-7.090-3.902 7.090c-0.082 0.129-0.187 0.188-0.334 0.188-0.176 0-0.287-0.064-0.346-0.188l-5.936-13.629c-0.369-0.844-0.762-1.436-1.172-1.77s-0.984-0.545-1.717-0.621c-0.064 0-0.123-0.035-0.176-0.1-0.059-0.064-0.082-0.141-0.082-0.229 0-0.223 0.064-0.334 0.188-0.334 0.527 0 1.084 0.023 1.664 0.070 0.539 0.047 1.043 0.070 1.518 0.070 0.48 0 1.055-0.023 1.711-0.070 0.686-0.047 1.295-0.070 1.828-0.070 0.129 0 0.187 0.111 0.187 0.334s-0.041 0.328-0.117 0.328c-0.527 0.041-0.949 0.176-1.254 0.404s-0.457 0.527-0.457 0.902c0 0.187 0.064 0.428 0.188 0.709l4.904 11.086 2.789-5.262-2.596-5.443c-0.469-0.973-0.85-1.6-1.148-1.881s-0.756-0.451-1.365-0.516c-0.059 0-0.105-0.035-0.158-0.1s-0.076-0.141-0.076-0.229c0-0.223 0.053-0.334 0.164-0.334 0.527 0 1.014 0.023 1.459 0.070 0.428 0.047 0.879 0.070 1.365 0.070 0.475 0 0.973-0.023 1.506-0.070 0.545-0.047 1.084-0.070 1.611-0.070 0.129 0 0.187 0.111 0.187 0.334s-0.035 0.328-0.117 0.328c-1.061 0.070-1.588 0.375-1.588 0.902 0 0.234 0.123 0.604 0.369 1.102l1.717 3.486 1.711-3.188c0.234-0.451 0.357-0.832 0.357-1.137 0-0.727-0.527-1.113-1.588-1.16-0.094 0-0.141-0.111-0.141-0.328 0-0.082 0.023-0.152 0.070-0.223s0.094-0.105 0.141-0.105c0.381 0 0.844 0.023 1.4 0.070 0.527 0.047 0.967 0.070 1.307 0.070 0.246 0 0.604-0.023 1.078-0.059 0.598-0.053 1.102-0.082 1.506-0.082 0.094 0 0.141 0.094 0.141 0.281 0 0.252-0.088 0.381-0.258 0.381-0.615 0.064-1.113 0.234-1.488 0.51s-0.844 0.902-1.406 1.887l-2.291 4.195 3.082 6.281 4.553-10.588c0.158-0.387 0.234-0.744 0.234-1.066 0-0.773-0.527-1.184-1.588-1.236-0.094 0-0.141-0.111-0.141-0.328 0-0.223 0.070-0.334 0.211-0.334 0.387 0 0.844 0.023 1.377 0.070 0.492 0.047 0.902 0.070 1.23 0.070 0.352 0 0.75-0.023 1.207-0.070 0.475-0.047 0.902-0.070 1.283-0.070 0.117 0 0.176 0.094 0.176 0.281z"></path>
</svg>
