<!-- Generated by IcoMoon.io -->
<svg version="1.1" xmlns="http://www.w3.org/2000/svg" width="30" height="30" viewBox="0 0 30 30">
<title>wink</title>
<path fill="#fff" d="M15 30c8.284 0 15-6.716 15-15s-6.716-15-15-15-15 6.716-15 15 6.716 15 15 15zM15 2.813c6.731 0 12.188 5.457 12.188 12.188s-5.457 12.188-12.188 12.188-12.188-5.457-12.188-12.188 5.457-12.188 12.188-12.188zM15.901 20.831c4.109-0.812 7.298-2.682 8.451-5.174-0.634 4.921-4.732 8.718-9.693 8.718-3.493 0-6.558-1.883-8.288-4.715 2.063 1.613 5.699 1.928 9.53 1.171zM18.75 10.313c0-1.553 0.839-2.813 1.875-2.813s1.875 1.259 1.875 2.813c0 1.553-0.839 2.813-1.875 2.813s-1.875-1.259-1.875-2.813zM10.313 10.884c-1.224 0-2.266 0.459-2.652 1.099-0.104-0.172-0.161-0.943-0.161-1.135 0-0.91 1.259-1.648 2.813-1.648s2.813 0.738 2.813 1.648c0 0.193-0.057 0.963-0.161 1.135-0.386-0.64-1.427-1.099-2.652-1.099z"></path>
</svg>
