<!-- Generated by IcoMoon.io -->
<svg version="1.1" xmlns="http://www.w3.org/2000/svg" width="30" height="30" viewBox="0 0 30 30">
<title>woman</title>
<path fill="#fff" d="M16.875 2.813c0 1.553-1.259 2.813-2.813 2.813s-2.813-1.259-2.813-2.813c0-1.553 1.259-2.813 2.813-2.813s2.813 1.259 2.813 2.813z"></path>
<path fill="#fff" d="M21.064 15l1.436-1.040-3.905-6.039c-0.173-0.263-0.468-0.421-0.783-0.421h-7.5c-0.315 0-0.609 0.158-0.783 0.421l-3.905 6.039 1.436 1.040 3.242-4.207 1.127 2.629-3.929 7.203h3.594l0.625 9.375h1.875v-9.375h0.938v9.375h1.875l0.625-9.375h3.594l-3.929-7.203 1.127-2.629 3.242 4.207z"></path>
</svg>
