<!-- Generated by IcoMoon.io -->
<svg version="1.1" xmlns="http://www.w3.org/2000/svg" width="30" height="30" viewBox="0 0 30 30">
<title>yahoo</title>
<path fill="#fff" d="M16.646 17.256v0c3.299-5.789 8.748-15.234 10.242-17.256-0.656 0.439-1.664 0.662-2.59 0.873l-1.4-0.873c-1.125 2.098-5.273 8.877-7.916 13.219-2.678-4.436-5.848-9.557-7.916-13.219-1.641 0.352-2.32 0.369-3.955 0v0 0c0 0 0 0 0 0v0c3.246 4.887 8.443 14.197 10.213 17.256v0l-0.24 12.744 1.898-0.873v-0.023l1.898 0.896-0.234-12.744z"></path>
</svg>
