<!-- Generated by IcoMoon.io -->
<svg version="1.1" xmlns="http://www.w3.org/2000/svg" width="75" height="30" viewBox="0 0 75 30">
<title>youtube2</title>
<path fill="#fff" d="M10.078 4.963c0.006-0.025 0.010-0.043 0.011-0.053l0.031-0.221-1.387-0.008c-1.253-0.007-1.637 0-1.671 0.032-0.017 0.015-0.449 1.659-1.22 4.637-0.368 1.42-0.677 2.555-0.688 2.521s-0.451-1.655-0.978-3.603c-0.528-1.948-0.97-3.552-0.983-3.565-0.018-0.018-1.699-0.026-3.059-0.015-0.197 0.002-0.307-0.384 1.758 6.186 0.286 0.909 0.714 2.197 0.951 2.862 0.273 0.766 0.468 1.357 0.602 1.851 0.235 0.939 0.244 1.528 0.192 2.216-0.059 0.794-0.068 6.4-0.010 6.493 0.044 0.072 2.673 0.105 2.921 0.037 0.040-0.011 0.066-0.050 0.084-0.262 0.062-0.182 0.067-0.907 0.067-3.918v-3.846l0.168-0.531c0.11-0.347 0.387-1.26 0.615-2.028s0.504-1.688 0.613-2.044c0.991-3.232 1.938-6.411 1.963-6.592l0.020-0.148z"></path>
<path fill="#fff" d="M24.789 9.628l-0.001 0.2-0.031 0-0.017 5.537-0.017 5.368-0.43 0.437c-0.481 0.49-0.867 0.677-1.215 0.589-0.38-0.095-0.37 0.053-0.402-6.292l-0.029-5.84h-2.763v0.201h-0.032v6.337c0 6.789-0 6.785 0.344 7.467 0.274 0.543 0.674 0.807 1.359 0.899h0c0.902 0.12 1.875-0.289 2.776-1.166l0.392-0.382v0.658c0 0.568 0.016 0.662 0.119 0.691 0.169 0.047 2.261 0.050 2.487 0.004l0.187-0.038v-0.194l0.032-0.007v-14.505l-2.76 0.037z"></path>
<path fill="#fff" d="M17.78 12.49c-0.262-1.123-0.752-1.878-1.56-2.401-1.268-0.82-2.716-0.907-4.060-0.243-0.979 0.484-1.61 1.287-1.936 2.463-0.039 0.14-0.067 0.258-0.089 0.434-0.083 0.416-0.093 1.036-0.114 3.924-0.033 4.451 0.018 4.981 0.575 5.992 0.547 0.992 1.682 1.719 2.917 1.869 0.372 0.045 1.126-0.025 1.559-0.145 0.985-0.273 1.93-1.052 2.347-1.936 0.18-0.382 0.289-0.647 0.355-1.132 0.122-0.663 0.131-1.734 0.131-4.464-0-3.483-0.011-3.863-0.127-4.361zM14.629 21.563c-0.232 0.177-0.637 0.253-0.966 0.183-0.254-0.054-0.596-0.452-0.701-0.814-0.131-0.452-0.141-6.738-0.028-7.97 0.187-0.617 0.709-0.939 1.278-0.786 0.444 0.12 0.671 0.398 0.801 0.98 0.096 0.432 0.108 0.971 0.087 4.138-0.013 2.101-0.021 3.127-0.090 3.678-0.070 0.348-0.185 0.441-0.381 0.59z"></path>
<path fill="#fff" d="M67.394 15.649h1.335l-0.021-1.209c-0.021-1.109-0.037-1.236-0.185-1.537-0.234-0.475-0.579-0.686-1.126-0.686-0.658 0-1.075 0.318-1.271 0.971-0.084 0.278-0.172 2.188-0.109 2.353 0.035 0.092 0.226 0.109 1.378 0.109z"></path>
<path fill="#fff" d="M58.471 12.898c-0.178-0.359-0.509-0.535-0.894-0.522-0.299 0.011-0.632 0.137-0.952 0.381l-0.238 0.181v8.689l0.238 0.181c0.54 0.412 1.133 0.499 1.542 0.226 0.162-0.108 0.267-0.257 0.349-0.494 0.107-0.308 0.116-0.703 0.102-4.359-0.015-3.81-0.023-4.034-0.147-4.284z"></path>
<path fill="#fff" d="M75.026 8.983c-0.266-3.189-0.478-4.224-1.135-5.553-0.871-1.761-2.13-2.689-3.922-2.893-1.386-0.158-6.601-0.38-11.427-0.487-8.355-0.186-22.092 0.172-23.846 0.62-0.811 0.207-1.419 0.56-2.051 1.19-1.109 1.103-1.769 2.686-2.035 4.875-0.606 4.998-0.619 11.037-0.035 16.216 0.251 2.228 0.769 3.675 1.741 4.868 0.606 0.744 1.651 1.377 2.586 1.566 0.656 0.133 3.938 0.316 8.719 0.488 0.712 0.026 2.598 0.070 4.19 0.098 3.319 0.059 9.423 0.024 12.912-0.074 2.347-0.066 6.627-0.239 7.427-0.301 0.225-0.017 0.746-0.051 1.158-0.074 1.385-0.078 2.266-0.368 3.094-1.018 1.071-0.841 1.9-2.396 2.25-4.22 0.331-1.725 0.553-4.798 0.598-8.287 0.038-2.915-0.012-4.488-0.223-7.014zM41.756 7.828l-1.552 0.019-0.068 16.557-1.346 0.017c-1.041 0.014-1.357-0.001-1.382-0.068-0.018-0.048-0.040-3.78-0.049-8.295l-0.017-8.21-3.032-0.038v-2.587l8.96 0.036 0.038 2.551-1.552 0.019zM51.276 17.318v7.12h-2.453v-0.75c0-0.564-0.022-0.75-0.087-0.75-0.048 0-0.27 0.186-0.494 0.413-0.485 0.493-1.060 0.89-1.55 1.073-1.015 0.38-1.98 0.158-2.391-0.549-0.376-0.648-0.383-0.793-0.383-7.51v-6.168h2.451l0.019 5.809c0.018 5.708 0.021 5.812 0.158 6.045 0.181 0.308 0.457 0.391 0.896 0.27 0.258-0.071 0.435-0.196 0.854-0.613l0.528-0.526v-10.985h2.453v7.12zM60.842 23.42c-0.216 0.481-0.697 0.952-1.092 1.069-1.030 0.304-1.857 0.056-2.811-0.841-0.296-0.278-0.572-0.505-0.613-0.505-0.050 0-0.077 0.218-0.077 0.647v0.647h-2.453v-19.214h2.453v3.134c0 1.724 0.023 3.134 0.051 3.134s0.287-0.229 0.575-0.507c0.663-0.64 1.217-0.92 1.921-0.973 1.254-0.095 2.002 0.551 2.344 2.025 0.107 0.46 0.117 0.985 0.117 5.246-0 5.191-0.001 5.212-0.415 6.136zM71.22 20.571c-0.022 0.534-0.087 1.147-0.145 1.363-0.341 1.265-1.249 2.16-2.561 2.527-1.767 0.494-3.712-0.316-4.488-1.869-0.436-0.872-0.451-1.046-0.451-5.308 0-3.475 0.012-3.901 0.123-4.376 0.315-1.341 1.095-2.21 2.417-2.691 0.383-0.14 0.782-0.211 1.182-0.219 1.426-0.029 2.841 0.738 3.434 1.987 0.4 0.843 0.45 1.203 0.49 3.577l0.036 2.129-5.229 0.036-0.019 1.431c-0.027 2.019 0.109 2.639 0.654 3.006 0.458 0.309 1.162 0.285 1.546-0.051 0.359-0.315 0.461-0.654 0.496-1.644l0.032-0.869h2.525l-0.040 0.971z"></path>
</svg>
