<!-- Generated by IcoMoon.io -->
<svg version="1.1" xmlns="http://www.w3.org/2000/svg" width="30" height="30" viewBox="0 0 30 30">
<title>500px</title>
<path fill="#fff" d="M7.412 19.711c0.006 0.018 0.164 0.445 0.252 0.662 0.492 1.166 1.201 2.221 2.104 3.123s1.951 1.611 3.123 2.104c1.213 0.51 2.496 0.773 3.82 0.773s2.613-0.258 3.82-0.773c1.172-0.492 2.221-1.201 3.123-2.104s1.611-1.951 2.104-3.123c0.51-1.213 0.773-2.496 0.773-3.82s-0.258-2.613-0.773-3.82c-0.492-1.172-1.201-2.221-2.104-3.123s-1.951-1.611-3.123-2.104c-1.213-0.51-2.496-0.773-3.82-0.773-1.342 0-2.684 0.27-3.873 0.773-0.955 0.404-2.572 1.441-3.516 2.42l-0.006 0.006v-8.086h13.576c0.492-0.006 0.492-0.697 0.492-0.92 0-0.229 0-0.914-0.498-0.92h-14.678c-0.398 0-0.645 0.334-0.645 0.639v11.373c0 0.369 0.457 0.633 0.885 0.721 0.832 0.176 1.020-0.088 1.225-0.369l0.029-0.035c0.311-0.463 1.277-1.436 1.289-1.447 1.512-1.512 3.533-2.344 5.695-2.344 2.15 0 4.166 0.832 5.678 2.344 1.518 1.518 2.355 3.527 2.355 5.66 0 2.139-0.832 4.154-2.344 5.66-1.488 1.488-3.574 2.344-5.713 2.344-1.447 0-2.848-0.387-4.049-1.119l0.006-6.914c0-0.92 0.398-1.928 1.072-2.684 0.768-0.867 1.822-1.342 2.977-1.342 1.113 0 2.156 0.422 2.936 1.189 0.768 0.762 1.195 1.781 1.195 2.865 0 2.309-1.816 4.119-4.137 4.119-0.445 0-1.26-0.199-1.295-0.205-0.469-0.141-0.668 0.51-0.732 0.727-0.252 0.826 0.129 0.99 0.205 1.014 0.744 0.234 1.236 0.275 1.881 0.275 3.275 0 5.941-2.666 5.941-5.941 0-3.252-2.666-5.895-5.936-5.895-1.605 0-3.111 0.615-4.242 1.723-1.078 1.061-1.693 2.473-1.693 3.879v0.035c-0.006 0.176-0.006 4.324-0.012 5.684l-0.006-0.006c-0.615-0.68-1.225-1.723-1.629-2.789-0.158-0.416-0.516-0.346-1.002-0.193-0.234 0.064-0.879 0.264-0.732 0.738v0zM14.391 18.088c0 0.199 0.182 0.375 0.293 0.475l0.035 0.035c0.187 0.182 0.363 0.275 0.527 0.275 0.135 0 0.217-0.064 0.246-0.094 0.082-0.076 1.008-1.020 1.102-1.107l1.037 1.031c0.094 0.105 0.199 0.164 0.322 0.164 0.164 0 0.346-0.1 0.533-0.293 0.445-0.457 0.223-0.703 0.117-0.82l-1.049-1.049 1.096-1.102c0.24-0.258 0.029-0.533-0.182-0.744-0.305-0.305-0.604-0.387-0.791-0.211l-1.090 1.090-1.102-1.102c-0.059-0.059-0.135-0.088-0.211-0.088-0.146 0-0.322 0.1-0.516 0.293-0.34 0.34-0.41 0.574-0.234 0.762l1.102 1.096-1.096 1.096c-0.1 0.094-0.146 0.193-0.141 0.293zM16.787 3.217c-1.758 0-3.633 0.357-5.004 0.949-0.146 0.059-0.234 0.176-0.252 0.34-0.018 0.158 0.023 0.363 0.129 0.633 0.088 0.217 0.311 0.797 0.75 0.627 1.406-0.539 2.965-0.832 4.377-0.832 1.605 0 3.164 0.316 4.629 0.932 1.166 0.492 2.262 1.207 3.457 2.238 0.088 0.076 0.182 0.111 0.275 0.111 0.234 0 0.457-0.229 0.65-0.445 0.316-0.357 0.539-0.656 0.223-0.955-1.143-1.078-2.391-1.887-3.937-2.543-1.676-0.697-3.463-1.055-5.297-1.055zM26.262 24.938v0c-0.211-0.211-0.393-0.334-0.551-0.381s-0.305-0.012-0.416 0.1l-0.105 0.105c-1.090 1.090-2.361 1.945-3.773 2.543-1.465 0.621-3.018 0.932-4.617 0.932-1.605 0-3.158-0.316-4.617-0.932-1.412-0.598-2.684-1.453-3.773-2.543-1.137-1.137-1.992-2.408-2.543-3.773-0.539-1.336-0.715-2.338-0.773-2.666-0.006-0.029-0.012-0.053-0.012-0.070-0.076-0.387-0.434-0.416-0.943-0.334-0.211 0.035-0.861 0.135-0.803 0.598v0.012c0.17 1.084 0.475 2.145 0.902 3.152 0.686 1.623 1.67 3.082 2.924 4.336s2.713 2.232 4.336 2.924c1.682 0.709 3.469 1.072 5.309 1.072s3.627-0.363 5.309-1.072c1.623-0.686 3.082-1.67 4.336-2.924 0 0 0.070-0.070 0.111-0.111 0.129-0.158 0.252-0.422-0.299-0.967z"></path>
</svg>
