<!-- Generated by IcoMoon.io -->
<svg version="1.1" xmlns="http://www.w3.org/2000/svg" width="30" height="30" viewBox="0 0 30 30">
<title>address-book</title>
<path fill="#fff" d="M5.625 0v30h22.5v-30h-22.5zM16.875 7.51c2.066 0 3.74 1.675 3.74 3.74s-1.675 3.74-3.74 3.74-3.74-1.675-3.74-3.74 1.675-3.74 3.74-3.74v0zM22.5 22.5h-11.25v-1.875c0-2.071 1.679-3.75 3.75-3.75v0h3.75c2.071 0 3.75 1.679 3.75 3.75v1.875z"></path>
<path fill="#fff" d="M1.875 1.875h2.813v5.625h-2.813v-5.625z"></path>
<path fill="#fff" d="M1.875 9.375h2.813v5.625h-2.813v-5.625z"></path>
<path fill="#fff" d="M1.875 16.875h2.813v5.625h-2.813v-5.625z"></path>
<path fill="#fff" d="M1.875 24.375h2.813v5.625h-2.813v-5.625z"></path>
</svg>
