<!-- Generated by IcoMoon.io -->
<svg version="1.1" xmlns="http://www.w3.org/2000/svg" width="30" height="30" viewBox="0 0 30 30">
<title>aid-kit</title>
<path fill="#fff" d="M26.25 7.5h-5.625v-3.75c0-1.031-0.844-1.875-1.875-1.875h-7.5c-1.031 0-1.875 0.844-1.875 1.875v3.75h-5.625c-2.063 0-3.75 1.688-3.75 3.75v15c0 2.063 1.688 3.75 3.75 3.75h22.5c2.063 0 3.75-1.688 3.75-3.75v-15c0-2.063-1.688-3.75-3.75-3.75zM11.25 3.75h7.5v3.75h-7.5v-3.75zM22.5 20.625h-5.625v5.625h-3.75v-5.625h-5.625v-3.75h5.625v-5.625h3.75v5.625h5.625v3.75z"></path>
</svg>
