<!-- Generated by IcoMoon.io -->
<svg version="1.1" xmlns="http://www.w3.org/2000/svg" width="30" height="30" viewBox="0 0 30 30">
<title>amazon</title>
<path fill="#fff" d="M27.117 25.934c-3.287 2.426-8.045 3.715-12.146 3.715-5.748 0-10.922-2.121-14.836-5.66-0.305-0.275-0.035-0.656 0.334-0.439 4.225 2.461 9.451 3.937 14.848 3.937 3.639 0 7.641-0.756 11.326-2.32 0.551-0.234 1.020 0.369 0.475 0.768z"></path>
<path fill="#fff" d="M28.482 24.375c-0.422-0.539-2.777-0.258-3.838-0.129-0.322 0.035-0.369-0.24-0.082-0.445 1.881-1.318 4.963-0.938 5.32-0.498 0.363 0.445-0.094 3.533-1.857 5.010-0.27 0.229-0.527 0.105-0.41-0.193 0.404-0.99 1.289-3.205 0.867-3.744z"></path>
<path fill="#fff" d="M20.725 22.195l0.006 0.006c0.727-0.639 2.033-1.781 2.771-2.396 0.293-0.234 0.24-0.627 0.012-0.955-0.662-0.914-1.365-1.658-1.365-3.346v-5.625c0-2.385 0.164-4.57-1.588-6.211-1.383-1.324-3.68-1.793-5.438-1.793-3.434 0-7.266 1.283-8.068 5.525-0.088 0.451 0.246 0.691 0.539 0.756l3.498 0.381c0.328-0.018 0.563-0.34 0.627-0.668 0.299-1.459 1.523-2.168 2.9-2.168 0.744 0 1.588 0.27 2.027 0.938 0.504 0.744 0.439 1.758 0.439 2.619v0.469c-2.092 0.234-4.828 0.387-6.785 1.248-2.262 0.979-3.85 2.971-3.85 5.9 0 3.75 2.361 5.625 5.402 5.625 2.566 0 3.967-0.604 5.947-2.631 0.656 0.949 0.867 1.412 2.068 2.408 0.275 0.146 0.615 0.135 0.855-0.082zM17.086 13.395c0 1.406 0.035 2.578-0.674 3.826-0.574 1.020-1.482 1.641-2.496 1.641-1.383 0-2.191-1.055-2.191-2.613 0-3.076 2.76-3.633 5.367-3.633v0.779z"></path>
</svg>
