<!-- Generated by IcoMoon.io -->
<svg version="1.1" xmlns="http://www.w3.org/2000/svg" width="30" height="30" viewBox="0 0 30 30">
<title>appleinc</title>
<path fill="#fff" d="M23.188 15.94c-0.038-3.799 3.098-5.621 3.239-5.712-1.762-2.579-4.507-2.932-5.486-2.973-2.336-0.237-4.558 1.375-5.744 1.375-1.183 0-3.012-1.34-4.95-1.305-2.546 0.038-4.894 1.481-6.205 3.761-2.646 4.591-0.678 11.392 1.901 15.115 1.26 1.822 2.762 3.869 4.735 3.796 1.9-0.076 2.618-1.229 4.915-1.229s2.942 1.229 4.953 1.192c2.044-0.038 3.339-1.857 4.591-3.685 1.447-2.114 2.043-4.161 2.078-4.266-0.045-0.021-3.986-1.53-4.026-6.068zM19.411 4.791c1.047-1.27 1.754-3.033 1.561-4.791-1.508 0.061-3.336 1.005-4.418 2.272-0.971 1.124-1.821 2.919-1.593 4.642 1.684 0.131 3.402-0.856 4.45-2.123z"></path>
</svg>
