<!-- Generated by IcoMoon.io -->
<svg version="1.1" xmlns="http://www.w3.org/2000/svg" width="30" height="30" viewBox="0 0 30 30">
<title>arrow-up-left2</title>
<path fill="#fff" d="M25.701 23.049l-15.549-15.549h6.723c1.036 0 1.875-0.839 1.875-1.875s-0.839-1.875-1.875-1.875h-11.25c-0.758 0-1.442 0.457-1.732 1.157-0.096 0.232-0.142 0.476-0.142 0.718h-0.001v11.25c0 1.036 0.839 1.875 1.875 1.875s1.875-0.839 1.875-1.875v-6.723l15.549 15.549c0.366 0.366 0.846 0.549 1.326 0.549s0.96-0.183 1.326-0.549c0.732-0.732 0.732-1.919 0-2.652z"></path>
</svg>
