<!-- Generated by IcoMoon.io -->
<svg version="1.1" xmlns="http://www.w3.org/2000/svg" width="30" height="30" viewBox="0 0 30 30">
<title>behance</title>
<path fill="#fff" d="M8.701 6.012c0.885 0 1.682 0.076 2.408 0.234 0.727 0.152 1.342 0.41 1.863 0.762 0.516 0.352 0.914 0.82 1.207 1.406 0.281 0.58 0.422 1.307 0.422 2.168 0 0.932-0.211 1.705-0.633 2.326-0.428 0.621-1.049 1.125-1.881 1.523 1.137 0.328 1.975 0.902 2.537 1.717 0.563 0.82 0.832 1.805 0.832 2.965 0 0.938-0.182 1.74-0.539 2.42-0.363 0.686-0.855 1.242-1.459 1.67-0.609 0.434-1.313 0.75-2.098 0.955-0.779 0.205-1.582 0.311-2.414 0.311h-8.947v-18.457h8.701zM8.174 13.465c0.721 0 1.318-0.17 1.787-0.516 0.469-0.34 0.691-0.902 0.691-1.676 0-0.428-0.076-0.785-0.229-1.061-0.158-0.275-0.363-0.492-0.627-0.645-0.258-0.158-0.551-0.264-0.896-0.322-0.334-0.064-0.686-0.094-1.043-0.094h-3.797v4.312h4.113zM8.396 21.322c0.398 0 0.779-0.035 1.137-0.117 0.363-0.082 0.686-0.205 0.955-0.393 0.27-0.182 0.498-0.422 0.662-0.738 0.164-0.311 0.24-0.709 0.24-1.195 0-0.949-0.27-1.629-0.803-2.039-0.533-0.404-1.242-0.604-2.121-0.604h-4.406v5.080h4.336z"></path>
<path fill="#fff" d="M21.246 21.258c0.551 0.539 1.342 0.809 2.373 0.809 0.738 0 1.383-0.187 1.916-0.563s0.855-0.773 0.979-1.184h3.234c-0.521 1.611-1.307 2.754-2.385 3.445-1.061 0.691-2.361 1.043-3.867 1.043-1.055 0-1.998-0.17-2.848-0.504-0.85-0.34-1.559-0.814-2.156-1.436-0.58-0.621-1.037-1.359-1.359-2.227-0.316-0.861-0.48-1.816-0.48-2.848 0-1.002 0.164-1.934 0.492-2.795 0.334-0.867 0.791-1.611 1.4-2.238s1.324-1.125 2.168-1.488c0.838-0.363 1.764-0.545 2.789-0.545 1.131 0 2.121 0.217 2.971 0.662 0.844 0.439 1.541 1.031 2.086 1.77s0.932 1.588 1.172 2.537c0.24 0.949 0.322 1.939 0.258 2.977h-9.65c0 1.049 0.352 2.051 0.908 2.584zM25.459 14.238c-0.434-0.48-1.178-0.744-2.074-0.744-0.586 0-1.072 0.1-1.459 0.299-0.381 0.199-0.691 0.445-0.932 0.738-0.234 0.293-0.398 0.609-0.492 0.943-0.094 0.322-0.152 0.621-0.17 0.879h5.977c-0.088-0.937-0.41-1.629-0.85-2.115z"></path>
<path fill="#fff" d="M19.582 7.5h7.482v1.822h-7.482v-1.822z"></path>
</svg>
