<!-- Generated by IcoMoon.io -->
<svg version="1.1" xmlns="http://www.w3.org/2000/svg" width="30" height="30" viewBox="0 0 30 30">
<title>bell</title>
<path fill="#fff" d="M30.044 23.438c0-8.438-7.5-6.563-7.5-13.125 0-0.544-0.052-1.008-0.148-1.404-0.493-3.311-2.7-5.968-5.56-6.778 0.025-0.116 0.039-0.235 0.039-0.358 0-0.975-0.844-1.773-1.875-1.773s-1.875 0.798-1.875 1.772c0 0.122 0.013 0.242 0.039 0.358-3.207 0.908-5.593 4.14-5.662 8.011-0.001 0.056-0.002 0.113-0.002 0.171 0 6.563-7.5 4.688-7.5 13.125 0 2.233 4.998 4.101 11.689 4.573 0.631 1.184 1.877 1.99 3.311 1.99s2.681-0.806 3.311-1.99c6.691-0.471 11.689-2.339 11.689-4.573 0-0.007-0.001-0.013-0.001-0.020l0.045 0.020zM24.206 25.022c-1.589 0.424-3.462 0.729-5.472 0.898-0.167-1.917-1.775-3.42-3.735-3.42s-3.568 1.504-3.735 3.42c-2.010-0.169-3.883-0.474-5.472-0.898-2.186-0.583-3.232-1.236-3.614-1.585 0.383-0.349 1.428-1.001 3.614-1.585 2.542-0.678 5.812-1.052 9.206-1.052s6.664 0.374 9.206 1.052c2.186 0.583 3.232 1.236 3.614 1.585-0.383 0.349-1.428 1.001-3.614 1.585z"></path>
</svg>
