<!-- Generated by IcoMoon.io -->
<svg version="1.1" xmlns="http://www.w3.org/2000/svg" width="30" height="30" viewBox="0 0 30 30">
<title>blog</title>
<path fill="#fff" d="M11.25 0v2.813c2.153 0 4.24 0.421 6.203 1.251 1.898 0.803 3.602 1.952 5.067 3.417s2.614 3.169 3.417 5.067c0.83 1.963 1.251 4.050 1.251 6.203h2.813c0-10.355-8.395-18.75-18.75-18.75z"></path>
<path fill="#fff" d="M11.25 5.625v2.813c2.755 0 5.344 1.073 7.292 3.020s3.021 4.537 3.021 7.292h2.813c0-7.249-5.876-13.125-13.125-13.125z"></path>
<path fill="#fff" d="M14.063 11.25l-1.875 1.875-6.563 1.875-5.625 12.188 0.743 0.743 6.82-6.82c-0.041-0.155-0.064-0.318-0.064-0.485 0-1.036 0.839-1.875 1.875-1.875s1.875 0.839 1.875 1.875-0.839 1.875-1.875 1.875c-0.168 0-0.331-0.022-0.485-0.064l-6.82 6.82 0.743 0.743 12.188-5.625 1.875-6.563 1.875-1.875-4.688-4.688z"></path>
</svg>
