<!-- Generated by IcoMoon.io -->
<svg version="1.1" xmlns="http://www.w3.org/2000/svg" width="30" height="30" viewBox="0 0 30 30">
<title>blogger2</title>
<path fill="#fff" d="M27.188 0h-24.375c-1.547 0-2.813 1.266-2.813 2.813v24.375c0 1.547 1.266 2.813 2.813 2.813h24.375c1.547 0 2.813-1.266 2.813-2.813v-24.375c0-1.547-1.266-2.813-2.813-2.813zM26.25 18.984c0 4.014-3.264 7.266-7.307 7.266h-7.875c-4.043 0-7.318-3.252-7.318-7.266v-7.969c0-4.014 3.275-7.266 7.318-7.266h3.686c4.043 0 7.277 3.018 7.277 7.031 0.053 0.75 0.732 1.406 1.5 1.406h1.26c0.809 0 1.453 0.85 1.453 1.652v5.145z"></path>
<path fill="#fff" d="M20.625 18.75c0 1.031-0.844 1.875-1.875 1.875h-7.5c-1.031 0-1.875-0.844-1.875-1.875v0c0-1.031 0.844-1.875 1.875-1.875h7.5c1.031 0 1.875 0.844 1.875 1.875v0z"></path>
<path fill="#fff" d="M16.875 11.25c0 1.031-0.844 1.875-1.875 1.875h-3.75c-1.031 0-1.875-0.844-1.875-1.875v0c0-1.031 0.844-1.875 1.875-1.875h3.75c1.031 0 1.875 0.844 1.875 1.875v0z"></path>
</svg>
