<!-- Generated by IcoMoon.io -->
<svg version="1.1" xmlns="http://www.w3.org/2000/svg" width="30" height="30" viewBox="0 0 30 30">
<title>briefcase</title>
<path fill="#fff" d="M28.125 7.5h-7.5v-1.875c0-1.031-0.844-1.875-1.875-1.875h-7.5c-1.031 0-1.875 0.844-1.875 1.875v1.875h-7.5c-1.031 0-1.875 0.844-1.875 1.875v16.875c0 1.031 0.844 1.875 1.875 1.875h26.25c1.031 0 1.875-0.844 1.875-1.875v-16.875c0-1.031-0.844-1.875-1.875-1.875zM11.25 5.628c0.001-0.001 0.002-0.002 0.003-0.003h7.493c0.001 0.001 0.002 0.002 0.003 0.003v1.872h-7.5v-1.872zM28.125 15h-3.75v2.813c0 0.516-0.422 0.938-0.938 0.938h-1.875c-0.516 0-0.938-0.422-0.938-0.938v-2.813h-11.25v2.813c0 0.516-0.422 0.938-0.938 0.938h-1.875c-0.516 0-0.938-0.422-0.938-0.938v-2.813h-3.75v-1.875h26.25v1.875z"></path>
</svg>
