<!-- Generated by IcoMoon.io -->
<svg version="1.1" xmlns="http://www.w3.org/2000/svg" width="34" height="30" viewBox="0 0 34 30">
<title>bubbles</title>
<path fill="#fff" d="M31.875 26.401c0 1.333 0.763 2.488 1.875 3.052v0.467c-0.311 0.043-0.629 0.065-0.952 0.065-1.992 0-3.789-0.836-5.060-2.176-0.768 0.205-1.582 0.315-2.425 0.315-4.66 0-8.438-3.358-8.438-7.5s3.778-7.5 8.438-7.5c4.66 0 8.438 3.358 8.438 7.5 0 1.622-0.579 3.123-1.563 4.35-0.2 0.434-0.312 0.917-0.312 1.427zM15 0c8.158 0 14.795 5.291 14.995 11.88-1.441-0.642-3.035-0.982-4.683-0.982-2.8 0-5.444 0.98-7.445 2.759-2.076 1.845-3.219 4.319-3.219 6.967 0 1.309 0.28 2.575 0.813 3.744-0.153 0.004-0.307 0.006-0.461 0.006-0.796 0-1.576-0.051-2.339-0.148-3.222 3.222-7.068 3.8-10.786 3.885v-0.789c2.008-0.984 3.75-2.776 3.75-4.823 0-0.286-0.022-0.566-0.063-0.841-3.392-2.234-5.562-5.647-5.562-9.472 0-6.731 6.716-12.188 15-12.188z"></path>
</svg>
