<!-- Generated by IcoMoon.io -->
<svg version="1.1" xmlns="http://www.w3.org/2000/svg" width="30" height="30" viewBox="0 0 30 30">
<title>bullhorn</title>
<path fill="#fff" d="M30 12.576c0-5.887-1.722-10.662-3.852-10.7 0.009-0 0.017-0.001 0.026-0.001h-2.43c0 0-5.707 4.287-13.923 5.969-0.251 1.327-0.411 2.908-0.411 4.732s0.16 3.405 0.411 4.731c8.216 1.682 13.923 5.969 13.923 5.969h2.43c-0.009 0-0.017-0.001-0.026-0.001 2.13-0.038 3.852-4.813 3.852-10.7zM25.337 21.658c-0.275 0-0.572-0.285-0.725-0.456-0.37-0.412-0.726-1.054-1.031-1.855-0.681-1.794-1.057-4.199-1.057-6.771s0.375-4.977 1.057-6.771c0.305-0.802 0.661-1.443 1.031-1.855 0.153-0.17 0.45-0.456 0.725-0.456s0.572 0.285 0.725 0.456c0.37 0.412 0.726 1.053 1.031 1.855 0.681 1.794 1.057 4.199 1.057 6.771s-0.375 4.977-1.057 6.771c-0.304 0.802-0.661 1.443-1.031 1.855-0.153 0.17-0.45 0.456-0.725 0.456zM7.377 12.576c0-1.522 0.112-3.001 0.324-4.368-1.388 0.192-2.606 0.302-4.112 0.302-1.965 0-1.965 0-1.965 0l-1.625 2.774v2.583l1.625 2.774c0 0 0 0 1.965 0 1.506 0 2.724 0.111 4.112 0.302-0.212-1.367-0.324-2.846-0.324-4.368zM10.786 18.814l-3.75-0.718 2.398 9.42c0.124 0.487 0.608 0.734 1.075 0.547l3.473-1.39c0.467-0.187 0.654-0.702 0.416-1.145l-3.612-6.713zM25.337 16.076c-0.106 0-0.221-0.11-0.279-0.176-0.143-0.159-0.28-0.406-0.397-0.715-0.263-0.691-0.407-1.618-0.407-2.61s0.145-1.918 0.407-2.61c0.117-0.309 0.255-0.556 0.397-0.715 0.059-0.066 0.173-0.176 0.279-0.176s0.221 0.11 0.279 0.176c0.143 0.159 0.28 0.406 0.397 0.715 0.263 0.691 0.407 1.618 0.407 2.61s-0.145 1.918-0.407 2.61c-0.117 0.309-0.255 0.556-0.397 0.715-0.059 0.066-0.173 0.176-0.279 0.176z"></path>
</svg>
