<!-- Generated by IcoMoon.io -->
<svg version="1.1" xmlns="http://www.w3.org/2000/svg" width="30" height="30" viewBox="0 0 30 30">
<title>clipboard</title>
<path fill="#fff" d="M27.188 3.75h-8.438c0-2.071-1.679-3.75-3.75-3.75s-3.75 1.679-3.75 3.75h-8.438c-0.518 0-0.938 0.42-0.938 0.938v24.375c0 0.518 0.42 0.938 0.938 0.938h24.375c0.518 0 0.938-0.42 0.938-0.938v-24.375c0-0.518-0.42-0.938-0.938-0.938zM15 1.875c1.036 0 1.875 0.839 1.875 1.875s-0.839 1.875-1.875 1.875c-1.036 0-1.875-0.839-1.875-1.875s0.839-1.875 1.875-1.875zM26.25 28.125h-22.5v-22.5h3.75v2.813c0 0.518 0.42 0.938 0.938 0.938h13.125c0.518 0 0.938-0.42 0.938-0.938v-2.813h3.75v22.5z"></path>
<path fill="#fff" d="M13.125 25.152l-6.013-6.951 1.714-1.714 4.299 3.362 8.049-7.112 1.714 1.714z"></path>
</svg>
