<!-- Generated by IcoMoon.io -->
<svg version="1.1" xmlns="http://www.w3.org/2000/svg" width="30" height="30" viewBox="0 0 30 30">
<title>cloud-upload</title>
<path fill="#fff" d="M26.141 11.323c0.072-0.325 0.109-0.664 0.109-1.010 0-2.589-2.099-4.688-4.688-4.688-0.417 0-0.821 0.055-1.205 0.157-0.727-2.266-2.85-3.907-5.357-3.907-2.559 0-4.718 1.709-5.4 4.048-0.666-0.194-1.371-0.298-2.1-0.298-4.142 0-7.5 3.358-7.5 7.5s3.358 7.5 7.5 7.5h3.75v5.625h7.5v-5.625h6.563c2.589 0 4.688-2.099 4.688-4.688 0-2.306-1.666-4.223-3.859-4.615zM16.875 18.75v5.625h-3.75v-5.625h-4.688l6.563-6.563 6.563 6.563h-4.688z"></path>
</svg>
