<!-- Generated by IcoMoon.io -->
<svg version="1.1" xmlns="http://www.w3.org/2000/svg" width="30" height="30" viewBox="0 0 30 30">
<title>codepen</title>
<path fill="#fff" d="M27.708 10.782l-13.125-8.75c-0.315-0.21-0.725-0.21-1.040 0l-13.125 8.75c-0.261 0.174-0.417 0.467-0.417 0.78v8.75c0 0.313 0.157 0.606 0.417 0.78l13.125 8.75c0.157 0.105 0.339 0.157 0.52 0.157s0.363-0.053 0.52-0.157l13.125-8.75c0.261-0.174 0.417-0.467 0.417-0.78v-8.75c0-0.313-0.157-0.606-0.417-0.78zM14.063 19.186l-4.872-3.248 4.872-3.248 4.872 3.248-4.872 3.248zM15 11.061v-6.497l10.497 6.998-4.872 3.248-5.625-3.75zM13.125 11.061l-5.625 3.75-4.872-3.248 10.497-6.998v6.497zM5.81 15.938l-3.935 2.623v-5.247l3.935 2.623zM7.5 17.064l5.625 3.75v6.497l-10.497-6.998 4.872-3.248zM15 20.814l5.625-3.75 4.872 3.248-10.497 6.998v-6.497zM22.315 15.938l3.935-2.623v5.247l-3.935-2.623z"></path>
</svg>
