<!-- Generated by IcoMoon.io -->
<svg version="1.1" xmlns="http://www.w3.org/2000/svg" width="30" height="30" viewBox="0 0 30 30">
<title>coin-euro</title>
<path fill="#fff" d="M14.063 1.875c-7.766 0-14.063 6.296-14.063 14.063s6.296 14.063 14.063 14.063c7.767 0 14.063-6.296 14.063-14.063s-6.296-14.063-14.063-14.063zM14.063 27.188c-6.213 0-11.25-5.037-11.25-11.25s5.037-11.25 11.25-11.25c6.213 0 11.25 5.037 11.25 11.25s-5.037 11.25-11.25 11.25z"></path>
<path fill="#fff" d="M19.653 18.877c-0.447-0.26-1.021-0.109-1.282 0.339-0.506 0.869-1.438 1.409-2.434 1.409h-3.75c-1.222 0-2.264-0.784-2.651-1.875h4.526c0.518 0 0.938-0.42 0.938-0.938s-0.42-0.938-0.938-0.938h-4.688v-1.875h4.688c0.518 0 0.938-0.42 0.938-0.938s-0.42-0.938-0.938-0.938h-4.526c0.387-1.091 1.429-1.875 2.651-1.875h3.75c0.996 0 1.928 0.54 2.434 1.409 0.26 0.448 0.834 0.599 1.282 0.339s0.599-0.834 0.339-1.282c-0.84-1.444-2.394-2.341-4.055-2.341h-3.75c-2.264 0-4.158 1.613-4.593 3.75h-1.032c-0.518 0-0.938 0.42-0.938 0.938s0.42 0.938 0.938 0.938h0.938v1.875h-0.938c-0.518 0-0.938 0.42-0.938 0.938s0.42 0.938 0.938 0.938h1.032c0.436 2.137 2.329 3.75 4.593 3.75h3.75c1.661 0 3.214-0.897 4.055-2.341 0.26-0.448 0.109-1.021-0.339-1.282z"></path>
</svg>
