<!-- Generated by IcoMoon.io -->
<svg version="1.1" xmlns="http://www.w3.org/2000/svg" width="30" height="30" viewBox="0 0 30 30">
<title>cool2</title>
<path fill="#fff" d="M15 0c-8.284 0-15 6.716-15 15s6.716 15 15 15c8.284 0 15-6.716 15-15s-6.716-15-15-15zM15 24.375c-1.42 0-2.765-0.316-3.971-0.881l0.972-1.619c0.919 0.402 1.933 0.626 2.999 0.626 2.731 0 5.12-1.46 6.432-3.641l1.608 0.965c-1.64 2.727-4.626 4.551-8.040 4.551zM24.375 11.25c0 1.031-0.844 1.875-1.875 1.875h-3.75c-1.031 0-1.875-0.844-1.875-1.875h-3.75c0 1.031-0.844 1.875-1.875 1.875h-3.75c-1.031 0-1.875-0.844-1.875-1.875v-2.813c0-0.516 0.422-0.938 0.938-0.938h5.625c0.516 0 0.938 0.422 0.938 0.938v0.938h3.75v-0.938c0-0.516 0.422-0.938 0.938-0.938h5.625c0.516 0 0.938 0.422 0.938 0.938v2.813z"></path>
</svg>
