<!-- Generated by IcoMoon.io -->
<svg version="1.1" xmlns="http://www.w3.org/2000/svg" width="30" height="30" viewBox="0 0 30 30">
<title>cross</title>
<path fill="#fff" d="M29.726 24.101c-0-0-0-0-0-0l-9.101-9.101 9.101-9.101c0-0 0-0 0-0 0.098-0.098 0.169-0.213 0.214-0.334 0.124-0.333 0.053-0.723-0.215-0.991l-4.299-4.299c-0.268-0.268-0.658-0.339-0.991-0.214-0.122 0.045-0.236 0.116-0.335 0.214 0 0-0 0-0 0l-9.101 9.101-9.101-9.101c-0-0-0-0-0-0-0.098-0.098-0.213-0.169-0.334-0.214-0.333-0.124-0.723-0.053-0.991 0.214l-4.299 4.299c-0.268 0.268-0.339 0.658-0.215 0.991 0.045 0.122 0.116 0.236 0.214 0.334 0 0 0 0 0 0l9.101 9.101-9.101 9.101c-0 0-0 0-0 0-0.098 0.098-0.169 0.213-0.214 0.334-0.124 0.333-0.053 0.723 0.215 0.991l4.299 4.299c0.268 0.268 0.658 0.339 0.991 0.215 0.122-0.045 0.236-0.116 0.334-0.214 0-0 0-0 0-0l9.101-9.101 9.101 9.101c0 0 0 0 0 0 0.098 0.098 0.213 0.169 0.334 0.214 0.333 0.124 0.723 0.053 0.991-0.215l4.299-4.299c0.268-0.268 0.339-0.658 0.215-0.991-0.045-0.122-0.116-0.236-0.214-0.334z"></path>
</svg>
