<!-- Generated by IcoMoon.io -->
<svg version="1.1" xmlns="http://www.w3.org/2000/svg" width="30" height="30" viewBox="0 0 30 30">
<title>dice</title>
<path fill="#fff" d="M25.313 5.625h-15c-2.578 0-4.688 2.109-4.688 4.688v15c0 2.578 2.109 4.688 4.688 4.688h15c2.578 0 4.688-2.109 4.688-4.688v-15c0-2.578-2.109-4.688-4.688-4.688zM12.188 26.25c-1.553 0-2.813-1.259-2.813-2.813s1.259-2.813 2.813-2.813 2.813 1.259 2.813 2.813-1.259 2.813-2.813 2.813zM12.188 15c-1.553 0-2.813-1.259-2.813-2.813s1.259-2.813 2.813-2.813 2.813 1.259 2.813 2.813-1.259 2.813-2.813 2.813zM17.813 20.625c-1.553 0-2.813-1.259-2.813-2.813s1.259-2.813 2.813-2.813 2.813 1.259 2.813 2.813-1.259 2.813-2.813 2.813zM23.438 26.25c-1.553 0-2.813-1.259-2.813-2.813s1.259-2.813 2.813-2.813 2.813 1.259 2.813 2.813-1.259 2.813-2.813 2.813zM23.438 15c-1.553 0-2.813-1.259-2.813-2.813s1.259-2.813 2.813-2.813 2.813 1.259 2.813 2.813-1.259 2.813-2.813 2.813zM24.28 3.75c-0.437-2.133-2.335-3.75-4.593-3.75h-15c-2.578 0-4.688 2.109-4.688 4.688v15c0 2.257 1.617 4.155 3.75 4.593v-18.655c0-1.031 0.844-1.875 1.875-1.875h18.655z"></path>
</svg>
