<!-- Generated by IcoMoon.io -->
<svg version="1.1" xmlns="http://www.w3.org/2000/svg" width="30" height="30" viewBox="0 0 30 30">
<title>drawer2</title>
<path fill="#fff" d="M29.795 19.102l-7.5-9.375c-0.178-0.222-0.447-0.352-0.732-0.352h-13.125c-0.285 0-0.554 0.129-0.732 0.352l-7.5 9.375c-0.133 0.166-0.205 0.373-0.205 0.586v8.438c0 1.036 0.839 1.875 1.875 1.875h26.25c1.036 0 1.875-0.839 1.875-1.875v-8.438c0-0.213-0.072-0.419-0.205-0.586zM28.125 20.625h-6.563l-3.75 3.75h-5.625l-3.75-3.75h-6.563v-0.609l7.013-8.766h12.224l7.013 8.766v0.609z"></path>
</svg>
