<!-- Generated by IcoMoon.io -->
<svg version="1.1" xmlns="http://www.w3.org/2000/svg" width="30" height="30" viewBox="0 0 30 30">
<title>dribbble</title>
<path fill="#fff" d="M15 30c-8.273 0-15-6.727-15-15s6.727-15 15-15c8.273 0 15 6.727 15 15s-6.727 15-15 15v0zM27.65 17.051c-0.439-0.141-3.967-1.189-7.98-0.545 1.676 4.605 2.355 8.355 2.49 9.135 2.871-1.945 4.922-5.021 5.49-8.59v0zM20.004 26.813c-0.193-1.125-0.932-5.039-2.73-9.715-0.029 0.012-0.059 0.018-0.082 0.029-7.23 2.52-9.826 7.529-10.055 7.998 2.174 1.693 4.904 2.707 7.863 2.707 1.775 0 3.469-0.363 5.004-1.020v0zM5.479 23.584c0.293-0.498 3.809-6.316 10.412-8.455 0.164-0.053 0.334-0.105 0.504-0.152-0.322-0.727-0.674-1.459-1.037-2.174-6.393 1.916-12.604 1.834-13.166 1.828-0.006 0.129-0.006 0.258-0.006 0.393 0 3.287 1.248 6.293 3.293 8.561v0zM2.461 12.393c0.574 0.006 5.854 0.029 11.848-1.559-2.121-3.773-4.412-6.949-4.752-7.412-3.586 1.693-6.27 4.998-7.096 8.971v0zM12 2.561c0.352 0.475 2.684 3.645 4.781 7.5 4.559-1.705 6.486-4.301 6.715-4.629-2.262-2.010-5.238-3.229-8.496-3.229-1.031 0.006-2.039 0.129-3 0.357v0zM24.92 6.92c-0.27 0.363-2.42 3.117-7.154 5.051 0.299 0.609 0.586 1.23 0.85 1.857 0.094 0.223 0.188 0.439 0.275 0.662 4.266-0.533 8.502 0.322 8.924 0.41-0.029-3.023-1.113-5.801-2.895-7.98v0z"></path>
</svg>
