<!-- Generated by IcoMoon.io -->
<svg version="1.1" xmlns="http://www.w3.org/2000/svg" width="30" height="30" viewBox="0 0 30 30">
<title>equalizer</title>
<path fill="#fff" d="M13.125 3.75v-0.469c0-0.773-0.633-1.406-1.406-1.406h-4.688c-0.773 0-1.406 0.633-1.406 1.406v0.469h-5.625v3.75h5.625v0.469c0 0.773 0.633 1.406 1.406 1.406h4.688c0.773 0 1.406-0.633 1.406-1.406v-0.469h16.875v-3.75h-16.875zM7.5 7.5v-3.75h3.75v3.75h-3.75zM24.375 12.656c0-0.773-0.633-1.406-1.406-1.406h-4.688c-0.773 0-1.406 0.633-1.406 1.406v0.469h-16.875v3.75h16.875v0.469c0 0.773 0.633 1.406 1.406 1.406h4.688c0.773 0 1.406-0.633 1.406-1.406v-0.469h5.625v-3.75h-5.625v-0.469zM18.75 16.875v-3.75h3.75v3.75h-3.75zM13.125 22.031c0-0.773-0.633-1.406-1.406-1.406h-4.688c-0.773 0-1.406 0.633-1.406 1.406v0.469h-5.625v3.75h5.625v0.469c0 0.773 0.633 1.406 1.406 1.406h4.688c0.773 0 1.406-0.633 1.406-1.406v-0.469h16.875v-3.75h-16.875v-0.469zM7.5 26.25v-3.75h3.75v3.75h-3.75z"></path>
</svg>
