<!-- Generated by IcoMoon.io -->
<svg version="1.1" xmlns="http://www.w3.org/2000/svg" width="30" height="30" viewBox="0 0 30 30">
<title>equalizer2</title>
<path fill="#fff" d="M26.25 13.125h0.469c0.773 0 1.406-0.633 1.406-1.406v-4.688c0-0.773-0.633-1.406-1.406-1.406h-0.469v-5.625h-3.75v5.625h-0.469c-0.773 0-1.406 0.633-1.406 1.406v4.688c0 0.773 0.633 1.406 1.406 1.406h0.469v16.875h3.75v-16.875zM22.5 7.5h3.75v3.75h-3.75v-3.75zM17.344 24.375c0.773 0 1.406-0.633 1.406-1.406v-4.688c0-0.773-0.633-1.406-1.406-1.406h-0.469v-16.875h-3.75v16.875h-0.469c-0.773 0-1.406 0.633-1.406 1.406v4.688c0 0.773 0.633 1.406 1.406 1.406h0.469v5.625h3.75v-5.625h0.469zM13.125 18.75h3.75v3.75h-3.75v-3.75zM7.969 13.125c0.773 0 1.406-0.633 1.406-1.406v-4.688c0-0.773-0.633-1.406-1.406-1.406h-0.469v-5.625h-3.75v5.625h-0.469c-0.773 0-1.406 0.633-1.406 1.406v4.688c0 0.773 0.633 1.406 1.406 1.406h0.469v16.875h3.75v-16.875h0.469zM3.75 7.5h3.75v3.75h-3.75v-3.75z"></path>
</svg>
