<!-- Generated by IcoMoon.io -->
<svg version="1.1" xmlns="http://www.w3.org/2000/svg" width="30" height="30" viewBox="0 0 30 30">
<title>eye-minus</title>
<path fill="#fff" d="M18.75 3.75h11.25v3.75h-11.25v-3.75z"></path>
<path fill="#fff" d="M25.498 9.375h-8.623v-3.644c-0.616-0.070-1.241-0.106-1.875-0.106-6.543 0-12.213 3.81-15 9.375 2.787 5.565 8.457 9.375 15 9.375s12.213-3.81 15-9.375c-1.096-2.188-2.637-4.104-4.502-5.625zM12.188 9.375c1.553 0 2.813 1.259 2.813 2.813s-1.259 2.813-2.813 2.813-2.813-1.259-2.813-2.813 1.259-2.813 2.813-2.813zM22.396 19.403c-2.215 1.413-4.772 2.159-7.396 2.159s-5.181-0.747-7.396-2.159c-1.762-1.124-3.256-2.63-4.378-4.403 1.122-1.773 2.615-3.279 4.378-4.403 0.115-0.073 0.231-0.144 0.348-0.214-0.292 0.801-0.452 1.665-0.452 2.566 0 4.142 3.358 7.5 7.5 7.5s7.5-3.358 7.5-7.5c0-0.902-0.16-1.766-0.451-2.566 0.116 0.070 0.233 0.141 0.347 0.214 1.763 1.124 3.256 2.63 4.378 4.403-1.122 1.773-2.615 3.279-4.378 4.403z"></path>
</svg>
