<!-- Generated by IcoMoon.io -->
<svg version="1.1" xmlns="http://www.w3.org/2000/svg" width="30" height="30" viewBox="0 0 30 30">
<title>eye</title>
<path fill="#fff" d="M15 5.625c-6.543 0-12.213 3.81-15 9.375 2.787 5.565 8.457 9.375 15 9.375s12.213-3.81 15-9.375c-2.787-5.565-8.458-9.375-15-9.375zM22.396 10.597c1.763 1.124 3.256 2.63 4.378 4.403-1.122 1.773-2.615 3.279-4.378 4.403-2.215 1.413-4.772 2.159-7.396 2.159s-5.181-0.747-7.396-2.159c-1.762-1.124-3.256-2.63-4.378-4.403 1.122-1.773 2.615-3.279 4.378-4.403 0.115-0.073 0.231-0.144 0.347-0.214-0.292 0.801-0.451 1.665-0.451 2.566 0 4.142 3.358 7.5 7.5 7.5s7.5-3.358 7.5-7.5c0-0.902-0.16-1.766-0.451-2.566 0.117 0.070 0.233 0.141 0.347 0.214v0zM15 12.188c0 1.553-1.259 2.813-2.813 2.813s-2.813-1.259-2.813-2.813 1.259-2.813 2.813-2.813 2.813 1.259 2.813 2.813z"></path>
</svg>
