<!-- Generated by IcoMoon.io -->
<svg version="1.1" xmlns="http://www.w3.org/2000/svg" width="30" height="30" viewBox="0 0 30 30">
<title>file-picture</title>
<path fill="#fff" d="M24.375 26.25h-18.75v-3.75l5.625-9.375 7.705 9.375 5.42-3.75v7.5z"></path>
<path fill="#fff" d="M24.375 14.063c0 1.553-1.259 2.813-2.813 2.813s-2.813-1.259-2.813-2.813 1.259-2.813 2.813-2.813c1.553 0 2.813 1.259 2.813 2.813z"></path>
<path fill="#fff" d="M26.889 6.711c-0.651-0.887-1.558-1.925-2.554-2.921s-2.034-1.903-2.921-2.554c-1.511-1.108-2.244-1.236-2.664-1.236h-14.531c-1.292 0-2.344 1.051-2.344 2.344v25.313c0 1.292 1.051 2.344 2.344 2.344h21.563c1.292 0 2.344-1.051 2.344-2.344v-18.281c0-0.42-0.128-1.153-1.236-2.664zM23.009 5.116c0.899 0.899 1.605 1.711 2.126 2.384h-4.51v-4.51c0.673 0.521 1.485 1.227 2.384 2.126zM26.25 27.656c0 0.254-0.215 0.469-0.469 0.469h-21.563c-0.254 0-0.469-0.215-0.469-0.469v-25.313c0-0.254 0.215-0.469 0.469-0.469 0 0 14.53-0 14.531 0v6.563c0 0.518 0.42 0.938 0.938 0.938h6.563v18.281z"></path>
</svg>
