<!-- Generated by IcoMoon.io -->
<svg version="1.1" xmlns="http://www.w3.org/2000/svg" width="30" height="30" viewBox="0 0 30 30">
<title>finder</title>
<path fill="#fff" d="M16.677 22.8c-0-0.001-0-0.003-0-0.004 0 0.001 0 0.003 0 0.004z"></path>
<path fill="#fff" d="M16.717 23.863c-0-0.007-0.001-0.014-0.001-0.021 0 0.007 0.001 0.014 0.001 0.021z"></path>
<path fill="#fff" d="M16.694 23.329c-0-0.005-0-0.010-0.001-0.016 0 0.005 0 0.010 0.001 0.016z"></path>
<path fill="#fff" d="M28.125 0h-26.25c-1.031 0-1.875 0.844-1.875 1.875v26.25c0 1.031 0.844 1.875 1.875 1.875h14.468c0.001 0 0.003 0 0.004 0s0.002-0 0.004-0h11.775c1.031 0 1.875-0.844 1.875-1.875v-26.25c0-1.031-0.844-1.875-1.875-1.875zM5.625 6.563c0-0.518 0.42-0.938 0.938-0.938s0.938 0.42 0.938 0.938v1.875c0 0.518-0.42 0.938-0.938 0.938s-0.938-0.42-0.938-0.938v-1.875zM28.125 28.125h-10.988c-0.196-1.233-0.32-2.504-0.392-3.738 0 0.003 0 0.007 0.001 0.010-0.577 0.063-1.16 0.096-1.745 0.096-3.916 0-7.687-1.425-10.62-4.014-0.437-0.385-0.478-1.052-0.093-1.489s1.052-0.478 1.489-0.093c2.547 2.248 5.823 3.486 9.224 3.486 0.559 0 1.115-0.034 1.665-0.1-0.064-3.463 0.201-6.208 0.206-6.252 0.026-0.264-0.060-0.526-0.238-0.722s-0.43-0.308-0.695-0.308h-2.788c0.041-1.014 0.149-2.748 0.438-4.693 0.553-3.714 1.523-6.614 2.817-8.432h11.721v26.25z"></path>
<path fill="#fff" d="M23.438 9.375c-0.518 0-0.938-0.42-0.938-0.938v-1.875c0-0.518 0.42-0.938 0.938-0.938s0.938 0.42 0.938 0.938v1.875c0 0.518-0.42 0.938-0.938 0.938z"></path>
<path fill="#fff" d="M15.835 24.47c-0.107 0.006-0.214 0.010-0.321 0.013 0.107-0.003 0.214-0.008 0.321-0.013z"></path>
<path fill="#fff" d="M15 24.492c0.137 0 0.275-0.002 0.412-0.006-0.137 0.004-0.274 0.006-0.412 0.006z"></path>
<path fill="#fff" d="M15.793 22.359c0.023-0.001 0.046-0.002 0.069-0.004-0.023 0.001-0.046 0.003-0.069 0.004z"></path>
<path fill="#fff" d="M15.383 22.377c0.031-0.001 0.063-0.002 0.094-0.003-0.031 0.001-0.063 0.002-0.094 0.003z"></path>
<path fill="#fff" d="M25.712 18.99c-0.385-0.437-1.052-0.478-1.489-0.093-2.128 1.878-4.765 3.051-7.559 3.386 0.013 0.682 0.038 1.391 0.081 2.114 3.28-0.358 6.38-1.717 8.874-3.918 0.437-0.385 0.478-1.052 0.093-1.489z"></path>
<path fill="#fff" d="M16.743 24.397c-0.135 0.015-0.27 0.027-0.406 0.039 0.136-0.011 0.271-0.024 0.406-0.039z"></path>
<path fill="#fff" d="M16.274 24.441c-0.114 0.009-0.229 0.017-0.344 0.024 0.115-0.007 0.23-0.015 0.344-0.024z"></path>
</svg>
