<!-- Generated by IcoMoon.io -->
<svg version="1.1" xmlns="http://www.w3.org/2000/svg" width="30" height="30" viewBox="0 0 30 30">
<title>flattr</title>
<path fill="#fff" d="M10.768 0c-7.13 0-10.768 4.106-10.768 11.773v0 16.085l6.984-6.991v-8.171c0-3.176 0.842-5.197 3.666-5.651v0c0.986-0.193 3.040-0.125 4.345-0.125v0 4.851c0 0.044 0.006 0.123 0.017 0.164v0c0.055 0.196 0.232 0.34 0.443 0.341v0c0.119 0 0.231-0.062 0.345-0.175v0l12.103-12.099-17.135-0.002zM23.016 9.133v8.171c0 3.176-0.842 5.198-3.666 5.651v0c-0.986 0.193-3.040 0.125-4.345 0.125v0-4.851c0-0.044-0.006-0.123-0.017-0.164v0c-0.055-0.197-0.232-0.34-0.443-0.341v0c-0.119-0-0.23 0.062-0.345 0.175v0l-12.103 12.099 17.135 0.002c7.13 0 10.768-4.106 10.768-11.773v0-16.085l-6.984 6.991z"></path>
</svg>
