<!-- Generated by IcoMoon.io -->
<svg version="1.1" xmlns="http://www.w3.org/2000/svg" width="30" height="30" viewBox="0 0 30 30">
<title>flickr4</title>
<path fill="#fff" d="M15 0c-8.284 0-15 6.762-15 15.103s6.716 15.103 15 15.103 15-6.762 15-15.103-6.716-15.103-15-15.103zM8.438 19.688c-2.589 0-4.688-2.099-4.688-4.688s2.099-4.688 4.688-4.688 4.688 2.099 4.688 4.688c0 2.589-2.099 4.688-4.688 4.688zM21.563 19.688c-2.589 0-4.688-2.099-4.688-4.688s2.099-4.688 4.688-4.688 4.688 2.099 4.688 4.688c0 2.589-2.099 4.688-4.688 4.688z"></path>
</svg>
