<!-- Generated by IcoMoon.io -->
<svg version="1.1" xmlns="http://www.w3.org/2000/svg" width="30" height="30" viewBox="0 0 30 30">
<title>flickr3</title>
<path fill="#fff" d="M27.188 0h-24.375c-1.547 0-2.813 1.266-2.813 2.813v24.375c0 1.547 1.266 2.813 2.813 2.813h24.375c1.547 0 2.813-1.266 2.813-2.813v-24.375c0-1.547-1.266-2.813-2.813-2.813zM8.438 19.688c-2.59 0-4.688-2.098-4.688-4.688s2.098-4.688 4.688-4.688 4.688 2.098 4.688 4.688-2.098 4.688-4.688 4.688zM21.563 19.688c-2.59 0-4.688-2.098-4.688-4.688s2.098-4.688 4.688-4.688c2.59 0 4.688 2.098 4.688 4.688s-2.098 4.688-4.688 4.688z"></path>
</svg>
