<!-- Generated by IcoMoon.io -->
<svg version="1.1" xmlns="http://www.w3.org/2000/svg" width="30" height="30" viewBox="0 0 30 30">
<title>foursquare</title>
<path fill="#fff" d="M24.948 2.639c-0.353-0.481-0.914-0.764-1.511-0.764h-17.813c-1.036 0-1.875 0.839-1.875 1.875v22.5c0 0.758 0.457 1.442 1.157 1.732 0.232 0.096 0.476 0.143 0.717 0.143 0.488 0 0.968-0.191 1.326-0.549l6.951-6.951h4.848c0.82 0 1.545-0.533 1.79-1.316l4.688-15c0.178-0.569 0.074-1.189-0.279-1.67zM19.715 9.375h-6.59c-1.036 0-1.875 0.839-1.875 1.875s0.839 1.875 1.875 1.875h5.418l-1.172 3.75h-4.247c-0.497 0-0.974 0.198-1.326 0.549l-4.299 4.299v-16.098h13.387l-1.172 3.75z"></path>
</svg>
