<!-- Generated by IcoMoon.io -->
<svg version="1.1" xmlns="http://www.w3.org/2000/svg" width="30" height="30" viewBox="0 0 30 30">
<title>git</title>
<path fill="#fff" d="M29.434 13.664l-13.099-13.098c-0.754-0.755-1.977-0.755-2.732 0l-3.043 3.043 2.29 2.29c0.367-0.176 0.778-0.274 1.212-0.274 1.553 0 2.813 1.259 2.813 2.813 0 0.434-0.099 0.845-0.274 1.212l3.749 3.749c0.367-0.176 0.778-0.274 1.212-0.274 1.553 0 2.813 1.259 2.813 2.813s-1.259 2.813-2.813 2.813-2.813-1.259-2.813-2.813c0-0.434 0.099-0.845 0.274-1.212l-3.749-3.749c-0.089 0.043-0.181 0.080-0.275 0.114v7.821c1.092 0.386 1.875 1.427 1.875 2.652 0 1.553-1.259 2.813-2.813 2.813s-2.813-1.259-2.813-2.813c0-1.224 0.783-2.266 1.875-2.652v-7.821c-1.092-0.386-1.875-1.427-1.875-2.652 0-0.434 0.099-0.845 0.274-1.212l-2.29-2.29-8.669 8.668c-0.754 0.755-0.754 1.979 0 2.733l13.099 13.098c0.754 0.754 1.977 0.754 2.732 0l13.037-13.037c0.755-0.755 0.755-1.979-0-2.733z"></path>
</svg>
