<!-- Generated by IcoMoon.io -->
<svg version="1.1" xmlns="http://www.w3.org/2000/svg" width="30" height="30" viewBox="0 0 30 30">
<title>glass2</title>
<path fill="#fff" d="M26.050 5.267c0.222-0.282 0.263-0.666 0.106-0.989s-0.484-0.528-0.843-0.528h-20.625c-0.359 0-0.686 0.205-0.843 0.528s-0.116 0.707 0.106 0.989l9.175 11.677v11.181h-2.813c-0.518 0-0.938 0.42-0.938 0.938s0.42 0.938 0.938 0.938h9.375c0.518 0 0.938-0.42 0.938-0.938s-0.42-0.938-0.938-0.938h-2.813v-11.181l9.175-11.677zM23.384 5.625l-2.946 3.75h-10.874l-2.946-3.75h16.767z"></path>
</svg>
