<!-- Generated by IcoMoon.io -->
<svg version="1.1" xmlns="http://www.w3.org/2000/svg" width="30" height="30" viewBox="0 0 30 30">
<title>google-plus</title>
<path fill="#fff" d="M9.545 13.4v3.275h5.414c-0.217 1.406-1.635 4.119-5.414 4.119-3.258 0-5.918-2.701-5.918-6.029s2.66-6.029 5.918-6.029c1.857 0 3.094 0.791 3.803 1.471l2.59-2.496c-1.664-1.553-3.82-2.496-6.393-2.496-5.279 0.006-9.545 4.271-9.545 9.551s4.266 9.545 9.545 9.545c5.508 0 9.164-3.873 9.164-9.328 0-0.627-0.070-1.107-0.152-1.582h-9.012z"></path>
<path fill="#fff" d="M30 13.125h-2.813v-2.813h-2.813v2.813h-2.813v2.813h2.813v2.813h2.813v-2.813h2.813z"></path>
</svg>
