<!-- Generated by IcoMoon.io -->
<svg version="1.1" xmlns="http://www.w3.org/2000/svg" width="30" height="30" viewBox="0 0 30 30">
<title>hammer2</title>
<path fill="#fff" d="M29.595 26.829l-16.073-14.633 0.748-0.75c0.612-0.614 0.943-1.407 0.994-2.215 0.029-0.013 0.059-0.027 0.087-0.042l3.017-1.887c0.408-0.48 0.378-1.238-0.067-1.685l-5.248-5.262c-0.445-0.446-1.201-0.476-1.68-0.067l-1.882 3.025c-0.015 0.028-0.029 0.058-0.042 0.087-0.806 0.051-1.597 0.382-2.209 0.996l-2.854 2.862c-0.612 0.614-0.943 1.407-0.994 2.215-0.029 0.013-0.059 0.027-0.087 0.042l-3.017 1.887c-0.408 0.48-0.378 1.238 0.067 1.684l5.248 5.262c0.445 0.446 1.201 0.476 1.68 0.067l1.882-3.025c0.015-0.028 0.029-0.057 0.042-0.087 0.806-0.051 1.597-0.382 2.209-0.996l0.829-0.831 14.593 16.117c0.423 0.467 1.075 0.543 1.449 0.167l1.475-1.479c0.374-0.375 0.299-1.029-0.167-1.454z"></path>
</svg>
