<!-- Generated by IcoMoon.io -->
<svg version="1.1" xmlns="http://www.w3.org/2000/svg" width="30" height="30" viewBox="0 0 30 30">
<title>happy</title>
<path fill="#fff" d="M15 30c8.284 0 15-6.716 15-15s-6.716-15-15-15-15 6.716-15 15 6.716 15 15 15zM15 2.813c6.731 0 12.188 5.457 12.188 12.188s-5.457 12.188-12.188 12.188-12.188-5.457-12.188-12.188 5.457-12.188 12.188-12.188zM15 17.542c3.397 0 6.628-0.903 9.375-2.488-0.427 5.228-4.486 9.321-9.375 9.321s-8.948-4.098-9.375-9.325c2.747 1.585 5.978 2.492 9.375 2.492zM7.5 10.313c0-1.553 0.839-2.813 1.875-2.813s1.875 1.259 1.875 2.813c0 1.553-0.839 2.813-1.875 2.813s-1.875-1.259-1.875-2.813zM18.75 10.313c0-1.553 0.839-2.813 1.875-2.813s1.875 1.259 1.875 2.813c0 1.553-0.839 2.813-1.875 2.813s-1.875-1.259-1.875-2.813z"></path>
</svg>
