<!-- Generated by IcoMoon.io -->
<svg version="1.1" xmlns="http://www.w3.org/2000/svg" width="30" height="30" viewBox="0 0 30 30">
<title>headphones</title>
<path fill="#fff" d="M8.438 16.875h-1.875v13.125h1.875c0.516 0 0.938-0.422 0.938-0.938v-11.25c0-0.516-0.422-0.938-0.938-0.938z"></path>
<path fill="#fff" d="M21.563 16.875c-0.516 0-0.938 0.422-0.938 0.938v11.25c0 0.516 0.422 0.938 0.938 0.938h1.875v-13.125h-1.875z"></path>
<path fill="#fff" d="M30 15c0-8.284-6.716-15-15-15s-15 6.716-15 15c0 1.799 0.317 3.524 0.898 5.122-0.571 0.973-0.898 2.106-0.898 3.315 0 3.306 2.445 6.041 5.625 6.496v-12.991c-0.935 0.134-1.807 0.464-2.571 0.949-0.158-0.783-0.242-1.593-0.242-2.422 0-6.731 5.457-12.188 12.188-12.188s12.188 5.457 12.188 12.188c0 0.83-0.083 1.64-0.241 2.423-0.765-0.485-1.636-0.816-2.572-0.95v12.991c3.18-0.455 5.625-3.19 5.625-6.496 0-1.209-0.327-2.342-0.898-3.315 0.581-1.599 0.898-3.324 0.898-5.123z"></path>
</svg>
