<!-- Generated by IcoMoon.io -->
<svg version="1.1" xmlns="http://www.w3.org/2000/svg" width="30" height="30" viewBox="0 0 30 30">
<title>IcoMoon</title>
<path fill="#fff" d="M7.604 15c0-1.916 1.554-3.47 3.47-3.47s3.47 1.554 3.47 3.47c0 1.916-1.554 3.47-3.47 3.47s-3.47-1.554-3.47-3.47zM15 0c-8.284 0-15 6.716-15 15s6.716 15 15 15c8.284 0 15-6.716 15-15s-6.716-15-15-15zM11.115 28.104c-4.51-2.624-7.543-7.509-7.543-13.104s3.033-10.48 7.543-13.104c4.512 2.624 7.547 7.508 7.547 13.104s-3.035 10.48-7.546 13.104z"></path>
</svg>
