<!-- Generated by IcoMoon.io -->
<svg version="1.1" xmlns="http://www.w3.org/2000/svg" width="34" height="30" viewBox="0 0 34 30">
<title>images</title>
<path fill="#fff" d="M31.875 3.75h-1.875v-1.875c0-1.031-0.844-1.875-1.875-1.875h-26.25c-1.031 0-1.875 0.844-1.875 1.875v22.5c0 1.031 0.844 1.875 1.875 1.875h1.875v1.875c0 1.031 0.844 1.875 1.875 1.875h26.25c1.031 0 1.875-0.844 1.875-1.875v-22.5c0-1.031-0.844-1.875-1.875-1.875zM3.75 5.625v18.75h-1.872c-0.001-0.001-0.002-0.002-0.003-0.003v-22.493c0.001-0.001 0.002-0.002 0.003-0.003h26.243c0.001 0.001 0.002 0.002 0.003 0.003v1.872h-22.5c-1.031 0-1.875 0.844-1.875 1.875v0zM31.875 28.122c-0.001 0.001-0.002 0.002-0.003 0.003h-26.243c-0.001-0.001-0.002-0.002-0.003-0.003v-22.493c0.001-0.001 0.002-0.002 0.003-0.003h26.243c0.001 0.001 0.002 0.002 0.003 0.003v22.493z"></path>
<path fill="#fff" d="M28.125 10.313c0 1.553-1.259 2.813-2.813 2.813s-2.813-1.259-2.813-2.813 1.259-2.813 2.813-2.813 2.813 1.259 2.813 2.813z"></path>
<path fill="#fff" d="M30 26.25h-22.5v-3.75l6.563-11.25 7.5 9.375h1.875l6.563-5.625z"></path>
</svg>
