<!-- Generated by IcoMoon.io -->
<svg version="1.1" xmlns="http://www.w3.org/2000/svg" width="30" height="30" viewBox="0 0 30 30">
<title>infinite</title>
<path fill="#fff" d="M22.968 22.032c-1.878 0-3.644-0.731-4.972-2.059l-2.997-2.997-2.996 2.996c-1.328 1.328-3.094 2.060-4.972 2.060s-3.644-0.731-4.972-2.060c-1.328-1.328-2.059-3.094-2.059-4.972s0.731-3.644 2.059-4.972c1.328-1.328 3.094-2.059 4.972-2.059s3.644 0.731 4.972 2.059l2.996 2.996 2.996-2.996c1.328-1.328 3.094-2.060 4.972-2.060s3.644 0.731 4.972 2.060c1.328 1.328 2.060 3.094 2.060 4.972s-0.731 3.644-2.060 4.972c-1.328 1.328-3.094 2.060-4.972 2.060zM19.972 17.997c0.8 0.8 1.864 1.241 2.996 1.241s2.196-0.441 2.996-1.241c0.8-0.8 1.241-1.865 1.241-2.996s-0.441-2.196-1.241-2.996c-0.8-0.8-1.864-1.241-2.996-1.241s-2.196 0.441-2.996 1.241l-2.996 2.996 2.996 2.997zM7.032 10.763c-1.132 0-2.196 0.441-2.996 1.241s-1.241 1.864-1.241 2.996c0 1.132 0.441 2.196 1.241 2.996s1.865 1.241 2.996 1.241c1.132 0 2.196-0.441 2.996-1.241l2.996-2.996-2.996-2.996c-0.8-0.8-1.864-1.241-2.996-1.241v0z"></path>
</svg>
