<!-- Generated by IcoMoon.io -->
<svg version="1.1" xmlns="http://www.w3.org/2000/svg" width="30" height="30" viewBox="0 0 30 30">
<title>joomla</title>
<path fill="#fff" d="M7.793 8.106c0.962-0.962 2.52-0.962 3.481-0.001l0.229 0.231 2.962-2.964-0.231-0.231c-1.688-1.69-4.058-2.282-6.223-1.773-0.31-1.91-1.965-3.367-3.96-3.368-2.216 0-4.012 1.8-4.013 4.018 0 1.914 1.336 3.516 3.125 3.921-0.678 2.269-0.124 4.829 1.665 6.621l6.675 6.677 2.959-2.965-6.674-6.676c-0.957-0.959-0.959-2.523 0.005-3.489zM29.962 4.018c0-2.22-1.796-4.018-4.013-4.018-2.028 0-3.705 1.507-3.975 3.464-2.258-0.664-4.798-0.102-6.581 1.682l-6.675 6.677 2.962 2.964 6.673-6.675c0.965-0.966 2.519-0.964 3.477-0.005 0.961 0.962 0.961 2.523-0.001 3.485l-0.228 0.23 2.959 2.966 0.23-0.232c1.771-1.774 2.334-4.299 1.688-6.552 1.967-0.259 3.485-1.944 3.485-3.984zM26.551 22.004c0.53-2.181-0.058-4.58-1.761-6.284l-6.665-6.679-2.962 2.963 6.666 6.68c0.965 0.967 0.963 2.522 0.005 3.482-0.961 0.961-2.52 0.961-3.482-0.001l-0.228-0.228-2.959 2.966 0.227 0.226c1.802 1.805 4.383 2.357 6.661 1.655 0.37 1.836 1.99 3.217 3.933 3.217 2.215 0 4.013-1.797 4.013-4.017 0-2.027-1.499-3.705-3.449-3.979zM17.94 15.489l-6.666 6.679c-0.958 0.96-2.521 0.962-3.485-0.004-0.961-0.964-0.962-2.522-0.001-3.485l0.229-0.228-2.962-2.963-0.227 0.226c-1.721 1.723-2.302 4.155-1.742 6.357-1.769 0.418-3.087 2.011-3.087 3.911-0 2.219 1.797 4.017 4.013 4.017 1.907-0.001 3.504-1.331 3.912-3.117 2.189 0.544 4.6-0.038 6.309-1.751l6.665-6.679-2.959-2.965z"></path>
</svg>
