<!-- Generated by IcoMoon.io -->
<svg version="1.1" xmlns="http://www.w3.org/2000/svg" width="30" height="30" viewBox="0 0 30 30">
<title>key2</title>
<path fill="#fff" d="M29.359 9.206l-2.962-2.962c-0.726-0.726-1.915-1.915-2.641-2.642l-2.962-2.962c-0.726-0.726-2.020-0.854-2.875-0.285l-8.099 5.399c-0.855 0.57-1.178 1.788-0.719 2.707l2.065 4.13c0.063 0.126 0.136 0.261 0.217 0.4l-10.445 10.445-0.938 6.563h5.625v-1.875h3.75v-3.75h3.75v-3.75h3.75v-2.086c0.187 0.112 0.367 0.211 0.533 0.294l4.13 2.065c0.919 0.459 2.137 0.136 2.707-0.719l5.399-8.099c0.57-0.855 0.442-2.148-0.285-2.875zM4.413 25.038l-1.326-1.326 9.128-9.128 1.326 1.326-9.128 9.128zM26.866 12.415l-1.326 1.326c-0.365 0.365-0.961 0.365-1.326 0l-7.955-7.955c-0.365-0.365-0.365-0.961 0-1.326l1.326-1.326c0.365-0.365 0.961-0.365 1.326 0l7.955 7.955c0.365 0.365 0.365 0.961 0 1.326z"></path>
</svg>
