<!-- Generated by IcoMoon.io -->
<svg version="1.1" xmlns="http://www.w3.org/2000/svg" width="30" height="30" viewBox="0 0 30 30">
<title>leaf</title>
<path fill="#fff" d="M29.629 3.94c-3.245-2.459-8.238-3.927-13.357-3.927-6.332 0-11.491 2.211-14.155 6.065-1.251 1.81-1.943 3.954-2.057 6.371-0.101 2.153 0.26 4.533 1.075 7.094 2.78-8.332 10.542-14.857 19.49-14.857 0 0-8.374 2.204-13.638 9.029-0.003 0.004-0.073 0.091-0.194 0.255-1.057 1.414-1.979 3.022-2.668 4.844-1.168 2.778-2.25 6.59-2.25 11.185h3.75c0 0-0.569-3.581 0.421-7.699 1.637 0.221 3.101 0.331 4.419 0.331 3.448 0 5.9-0.746 7.716-2.347 1.628-1.435 2.525-3.363 3.475-5.404 1.451-3.117 3.095-6.651 7.871-9.379 0.273-0.156 0.45-0.439 0.47-0.753s-0.118-0.618-0.369-0.808z"></path>
</svg>
