<!-- Generated by IcoMoon.io -->
<svg version="1.1" xmlns="http://www.w3.org/2000/svg" width="30" height="30" viewBox="0 0 30 30">
<title>libreoffice</title>
<path fill="#fff" d="M15.663 0.663c-0.365-0.365-1.085-0.663-1.6-0.663h-11.25c-0.516 0-0.938 0.422-0.938 0.938v28.125c0 0.516 0.422 0.938 0.938 0.938h22.5c0.516 0 0.938-0.422 0.938-0.938v-16.875c0-0.516-0.298-1.236-0.663-1.6l-9.924-9.924zM24.375 28.125h-20.625v-26.25h10.288c0.085 0.014 0.246 0.081 0.317 0.131l9.889 9.889c0.050 0.070 0.117 0.231 0.131 0.317v15.913zM25.313 0h-5.625c-0.516 0-0.639 0.298-0.275 0.663l6.174 6.174c0.365 0.365 0.663 0.241 0.663-0.275v-5.625c0-0.516-0.422-0.938-0.938-0.938z"></path>
</svg>
