<!-- Generated by IcoMoon.io -->
<svg version="1.1" xmlns="http://www.w3.org/2000/svg" width="30" height="30" viewBox="0 0 30 30">
<title>lifebuoy</title>
<path fill="#fff" d="M15 0c-8.284 0-15 6.716-15 15s6.716 15 15 15 15-6.716 15-15-6.716-15-15-15zM9.375 15c0-3.107 2.518-5.625 5.625-5.625s5.625 2.518 5.625 5.625-2.518 5.625-5.625 5.625-5.625-2.518-5.625-5.625zM27.128 20.024v0l-5.198-2.153c0.367-0.884 0.57-1.854 0.57-2.871s-0.203-1.986-0.57-2.871l5.198-2.153c0.642 1.548 0.997 3.244 0.997 5.024s-0.355 3.476-0.997 5.024v0zM20.024 2.872v0 0l-2.153 5.198c-0.884-0.367-1.854-0.57-2.871-0.57s-1.986 0.203-2.871 0.57l-2.153-5.198c1.548-0.642 3.244-0.997 5.024-0.997s3.476 0.355 5.024 0.997zM2.872 9.976l5.198 2.153c-0.367 0.884-0.57 1.854-0.57 2.871s0.203 1.986 0.57 2.871l-5.198 2.153c-0.642-1.548-0.997-3.244-0.997-5.024s0.355-3.476 0.997-5.024zM9.976 27.128l2.153-5.198c0.884 0.367 1.854 0.57 2.871 0.57s1.986-0.203 2.871-0.57l2.153 5.198c-1.548 0.642-3.244 0.997-5.024 0.997s-3.476-0.355-5.024-0.997z"></path>
</svg>
