<!-- Generated by IcoMoon.io -->
<svg version="1.1" xmlns="http://www.w3.org/2000/svg" width="30" height="30" viewBox="0 0 30 30">
<title>linkedin</title>
<path fill="#fff" d="M27.188 0h-24.375c-1.547 0-2.813 1.266-2.813 2.813v24.375c0 1.547 1.266 2.813 2.813 2.813h24.375c1.547 0 2.813-1.266 2.813-2.813v-24.375c0-1.547-1.266-2.813-2.813-2.813zM11.25 24.375h-3.75v-13.125h3.75v13.125zM9.375 9.375c-1.037 0-1.875-0.838-1.875-1.875s0.838-1.875 1.875-1.875c1.037 0 1.875 0.838 1.875 1.875s-0.838 1.875-1.875 1.875zM24.375 24.375h-3.75v-7.5c0-1.037-0.838-1.875-1.875-1.875s-1.875 0.838-1.875 1.875v7.5h-3.75v-13.125h3.75v2.326c0.773-1.061 1.957-2.326 3.281-2.326 2.332 0 4.219 2.098 4.219 4.688v8.438z"></path>
</svg>
