<!-- Generated by IcoMoon.io -->
<svg version="1.1" xmlns="http://www.w3.org/2000/svg" width="30" height="30" viewBox="0 0 30 30">
<title>lock</title>
<path fill="#fff" d="M17.344 13.125h-0.469v-5.625c0-3.102-2.523-5.625-5.625-5.625h-3.75c-3.102 0-5.625 2.523-5.625 5.625v5.625h-0.469c-0.773 0-1.406 0.633-1.406 1.406v14.063c0 0.773 0.633 1.406 1.406 1.406h15.938c0.773 0 1.406-0.633 1.406-1.406v-14.063c0-0.773-0.633-1.406-1.406-1.406zM5.625 7.5c0-1.034 0.841-1.875 1.875-1.875h3.75c1.034 0 1.875 0.841 1.875 1.875v5.625h-7.5v-5.625z"></path>
</svg>
