<!-- Generated by IcoMoon.io -->
<svg version="1.1" xmlns="http://www.w3.org/2000/svg" width="30" height="30" viewBox="0 0 30 30">
<title>meter</title>
<path fill="#fff" d="M15 1.875c8.284 0 15 6.716 15 15 0 5.648-3.122 10.566-7.735 13.125h-14.531c-4.612-2.559-7.735-7.477-7.735-13.125 0-8.284 6.716-15 15-15zM23.494 25.369c2.269-2.269 3.518-5.285 3.518-8.494h-2.637v-1.875h2.491c-0.205-1.318-0.627-2.582-1.247-3.75h-3.119v-1.875h1.883c-0.277-0.345-0.573-0.677-0.89-0.994-1.354-1.354-2.975-2.345-4.744-2.924v2.042h-1.875v-2.491c-0.615-0.096-1.241-0.145-1.875-0.145s-1.26 0.050-1.875 0.145v2.491h-1.875v-2.042c-1.769 0.579-3.389 1.57-4.744 2.924-0.317 0.317-0.613 0.649-0.89 0.994h1.883v1.875h-3.119c-0.62 1.168-1.042 2.432-1.247 3.75h2.491v1.875h-2.637c0 3.208 1.249 6.225 3.518 8.494 0.314 0.314 0.642 0.607 0.983 0.881h5.635l1.071-15h1.607l1.071 15h5.635c0.341-0.274 0.669-0.568 0.983-0.881z"></path>
</svg>
