<!-- Generated by IcoMoon.io -->
<svg version="1.1" xmlns="http://www.w3.org/2000/svg" width="30" height="30" viewBox="0 0 30 30">
<title>mic</title>
<path fill="#fff" d="M14.063 20.625c2.589 0 4.688-2.099 4.688-4.688v-11.25c0-2.589-2.099-4.688-4.688-4.688s-4.688 2.099-4.688 4.688v11.25c0 2.589 2.099 4.688 4.688 4.688zM20.625 13.125v2.813c0 3.624-2.938 6.563-6.563 6.563s-6.563-2.938-6.563-6.563v-2.813h-1.875v2.813c0 4.343 3.281 7.919 7.5 8.385v3.802h-3.75v1.875h9.375v-1.875h-3.75v-3.802c4.219-0.466 7.5-4.042 7.5-8.385v-2.813h-1.875z"></path>
</svg>
