<!-- Generated by IcoMoon.io -->
<svg version="1.1" xmlns="http://www.w3.org/2000/svg" width="30" height="30" viewBox="0 0 30 30">
<title>pen</title>
<path fill="#fff" d="M29.829 8.551l-8.381-8.381c-0.273-0.273-0.634-0.212-0.801 0.137l-1.124 2.341 7.828 7.828 2.341-1.124c0.349-0.167 0.41-0.528 0.137-0.801z"></path>
<path fill="#fff" d="M18.029 3.966l-7.716 0.643c-0.513 0.063-0.94 0.173-1.087 0.842-0 0.001-0 0.001-0.001 0.002-2.092 10.051-9.225 19.859-9.225 19.859l1.681 1.681 7.968-7.968c-0.176-0.367-0.274-0.778-0.274-1.212 0-1.553 1.259-2.813 2.813-2.813s2.813 1.259 2.813 2.813-1.259 2.813-2.813 2.813c-0.434 0-0.845-0.099-1.212-0.274l-7.968 7.968 1.681 1.681c0 0 9.808-7.133 19.859-9.225 0.001-0 0.001-0 0.002-0.001 0.67-0.147 0.779-0.574 0.842-1.087l0.643-7.716-8.005-8.005z"></path>
</svg>
