<!-- Generated by IcoMoon.io -->
<svg version="1.1" xmlns="http://www.w3.org/2000/svg" width="30" height="30" viewBox="0 0 30 30">
<title>plus</title>
<path fill="#fff" d="M29.063 11.25h-10.313v-10.313c0-0.518-0.42-0.938-0.938-0.938h-5.625c-0.518 0-0.938 0.42-0.938 0.938v10.313h-10.313c-0.518 0-0.938 0.42-0.938 0.938v5.625c0 0.518 0.42 0.938 0.938 0.938h10.313v10.313c0 0.518 0.42 0.938 0.938 0.938h5.625c0.518 0 0.938-0.42 0.938-0.938v-10.313h10.313c0.518 0 0.938-0.42 0.938-0.938v-5.625c0-0.518-0.42-0.938-0.938-0.938z"></path>
</svg>
