<!-- Generated by IcoMoon.io -->
<svg version="1.1" xmlns="http://www.w3.org/2000/svg" width="30" height="30" viewBox="0 0 30 30">
<title>printer</title>
<path fill="#fff" d="M7.5 1.875h15v3.75h-15v-3.75z"></path>
<path fill="#fff" d="M28.125 7.5h-26.25c-1.031 0-1.875 0.844-1.875 1.875v9.375c0 1.031 0.844 1.875 1.875 1.875h5.625v7.5h15v-7.5h5.625c1.031 0 1.875-0.844 1.875-1.875v-9.375c0-1.031-0.844-1.875-1.875-1.875zM3.75 13.125c-1.036 0-1.875-0.839-1.875-1.875s0.839-1.875 1.875-1.875 1.875 0.839 1.875 1.875-0.839 1.875-1.875 1.875zM20.625 26.25h-11.25v-9.375h11.25v9.375z"></path>
</svg>
