<!-- Generated by IcoMoon.io -->
<svg version="1.1" xmlns="http://www.w3.org/2000/svg" width="30" height="30" viewBox="0 0 30 30">
<title>qrcode</title>
<path fill="#fff" d="M9.375 1.875h-7.5v7.5h7.5v-7.5zM11.25 0v0 11.25h-11.25v-11.25h11.25zM3.75 3.75h3.75v3.75h-3.75zM28.125 1.875h-7.5v7.5h7.5v-7.5zM30 0v0 11.25h-11.25v-11.25h11.25zM22.5 3.75h3.75v3.75h-3.75zM9.375 20.625h-7.5v7.5h7.5v-7.5zM11.25 18.75v0 11.25h-11.25v-11.25h11.25zM3.75 22.5h3.75v3.75h-3.75zM13.125 0h1.875v1.875h-1.875zM15 1.875h1.875v1.875h-1.875zM13.125 3.75h1.875v1.875h-1.875zM15 5.625h1.875v1.875h-1.875zM13.125 7.5h1.875v1.875h-1.875zM15 9.375h1.875v1.875h-1.875zM13.125 11.25h1.875v1.875h-1.875zM13.125 15h1.875v1.875h-1.875zM15 16.875h1.875v1.875h-1.875zM13.125 18.75h1.875v1.875h-1.875zM15 20.625h1.875v1.875h-1.875zM13.125 22.5h1.875v1.875h-1.875zM15 24.375h1.875v1.875h-1.875zM13.125 26.25h1.875v1.875h-1.875zM15 28.125h1.875v1.875h-1.875zM28.125 15h1.875v1.875h-1.875zM1.875 15h1.875v1.875h-1.875zM3.75 13.125h1.875v1.875h-1.875zM0 13.125h1.875v1.875h-1.875zM7.5 13.125h1.875v1.875h-1.875zM9.375 15h1.875v1.875h-1.875zM11.25 13.125h1.875v1.875h-1.875zM16.875 15h1.875v1.875h-1.875zM18.75 13.125h1.875v1.875h-1.875zM20.625 15h1.875v1.875h-1.875zM22.5 13.125h1.875v1.875h-1.875zM24.375 15h1.875v1.875h-1.875zM26.25 13.125h1.875v1.875h-1.875zM28.125 18.75h1.875v1.875h-1.875zM16.875 18.75h1.875v1.875h-1.875zM18.75 16.875h1.875v1.875h-1.875zM20.625 18.75h1.875v1.875h-1.875zM24.375 18.75h1.875v1.875h-1.875zM26.25 16.875h1.875v1.875h-1.875zM28.125 22.5h1.875v1.875h-1.875zM16.875 22.5h1.875v1.875h-1.875zM18.75 20.625h1.875v1.875h-1.875zM22.5 20.625h1.875v1.875h-1.875zM24.375 22.5h1.875v1.875h-1.875zM26.25 20.625h1.875v1.875h-1.875zM28.125 26.25h1.875v1.875h-1.875zM18.75 24.375h1.875v1.875h-1.875zM20.625 26.25h1.875v1.875h-1.875zM22.5 24.375h1.875v1.875h-1.875zM24.375 26.25h1.875v1.875h-1.875zM18.75 28.125h1.875v1.875h-1.875zM22.5 28.125h1.875v1.875h-1.875zM26.25 28.125h1.875v1.875h-1.875z"></path>
</svg>
