<!-- Generated by IcoMoon.io -->
<svg version="1.1" xmlns="http://www.w3.org/2000/svg" width="30" height="30" viewBox="0 0 30 30">
<title>quotes-right</title>
<path fill="#fff" d="M23.438 18.75c-3.624 0-6.563-2.938-6.563-6.563s2.938-6.563 6.563-6.563 6.563 2.938 6.563 6.563l0.029 0.938c0 7.249-5.876 13.125-13.125 13.125v-3.75c2.504 0 4.858-0.975 6.629-2.746 0.341-0.341 0.652-0.704 0.933-1.085-0.335 0.053-0.679 0.080-1.028 0.080zM6.563 18.75c-3.624 0-6.563-2.938-6.563-6.563s2.938-6.563 6.563-6.563 6.563 2.938 6.563 6.563l0.029 0.938c0 7.249-5.876 13.125-13.125 13.125v-3.75c2.504 0 4.858-0.975 6.629-2.746 0.341-0.341 0.652-0.704 0.933-1.085-0.335 0.053-0.679 0.080-1.028 0.080z"></path>
</svg>
