<!-- Generated by IcoMoon.io -->
<svg version="1.1" xmlns="http://www.w3.org/2000/svg" width="30" height="30" viewBox="0 0 30 30">
<title>reddit</title>
<path fill="#fff" d="M7.5 18.75c0-1.036 0.839-1.875 1.875-1.875s1.875 0.839 1.875 1.875c0 1.036-0.839 1.875-1.875 1.875s-1.875-0.839-1.875-1.875zM18.75 18.75c0-1.036 0.839-1.875 1.875-1.875s1.875 0.839 1.875 1.875c0 1.036-0.839 1.875-1.875 1.875s-1.875-0.839-1.875-1.875zM18.841 22.757c0.483-0.38 1.183-0.297 1.563 0.186s0.297 1.183-0.186 1.563c-1.345 1.059-3.393 1.744-5.219 1.744s-3.874-0.685-5.219-1.744c-0.483-0.381-0.566-1.081-0.186-1.564s1.081-0.566 1.563-0.186c0.774 0.61 2.306 1.266 3.841 1.266s3.067-0.656 3.841-1.266zM30 15c0-2.071-1.679-3.75-3.75-3.75-1.41 0-2.636 0.778-3.277 1.928-1.928-1.055-4.276-1.736-6.834-1.893l2.238-5.025 4.283 1.236c0.385 1.094 1.427 1.878 2.653 1.878 1.553 0 2.813-1.259 2.813-2.813s-1.259-2.813-2.813-2.813c-1.071 0-2.002 0.599-2.477 1.48l-4.773-1.378c-0.534-0.154-1.1 0.109-1.326 0.617l-3.040 6.827c-2.494 0.176-4.783 0.85-6.669 1.882-0.641-1.15-1.868-1.928-3.278-1.928-2.071 0-3.75 1.679-3.75 3.75 0 1.533 0.92 2.849 2.237 3.431-0.236 0.704-0.362 1.439-0.362 2.194 0 5.178 5.876 9.375 13.125 9.375s13.125-4.197 13.125-9.375c0-0.756-0.126-1.49-0.362-2.194 1.317-0.582 2.237-1.898 2.237-3.431zM25.313 5.508c0.582 0 1.055 0.472 1.055 1.055s-0.472 1.055-1.055 1.055-1.055-0.472-1.055-1.055 0.472-1.055 1.055-1.055zM1.875 15c0-1.034 0.841-1.875 1.875-1.875 0.747 0 1.394 0.44 1.695 1.074-0.98 0.743-1.792 1.6-2.393 2.541-0.689-0.277-1.177-0.952-1.177-1.74zM15 27.773c-6.019 0-10.898-3.2-10.898-7.148s4.879-7.148 10.898-7.148c6.019 0 10.898 3.2 10.898 7.148s-4.879 7.148-10.898 7.148zM26.948 16.74c-0.601-0.941-1.413-1.798-2.393-2.541 0.301-0.634 0.947-1.074 1.695-1.074 1.034 0 1.875 0.841 1.875 1.875 0 0.787-0.488 1.462-1.177 1.74z"></path>
</svg>
