<!-- Generated by IcoMoon.io -->
<svg version="1.1" xmlns="http://www.w3.org/2000/svg" width="30" height="30" viewBox="0 0 30 30">
<title>renren</title>
<path fill="#fff" d="M12.457 0.311c-7.066 1.189-12.457 7.336-12.457 14.742 0 3.68 1.336 7.049 3.539 9.656 5.232-2.531 8.895-8.262 8.918-14.936v-9.463z"></path>
<path fill="#fff" d="M17.543 0.311c7.066 1.189 12.457 7.336 12.457 14.742 0 3.68-1.336 7.049-3.539 9.656-5.232-2.531-8.895-8.262-8.918-14.936v-9.463z"></path>
<path fill="#fff" d="M14.947 18.826c-0.932 3.855-3.715 7.148-7.178 9.34 2.133 1.166 4.576 1.834 7.178 1.834s5.045-0.668 7.178-1.834c-3.463-2.191-6.246-5.484-7.178-9.34z"></path>
</svg>
