<!-- Generated by IcoMoon.io -->
<svg version="1.1" xmlns="http://www.w3.org/2000/svg" width="30" height="30" viewBox="0 0 30 30">
<title>sad2</title>
<path fill="#fff" d="M15 0c-8.284 0-15 6.716-15 15s6.716 15 15 15 15-6.716 15-15-6.716-15-15-15zM20.625 7.5c1.036 0 1.875 0.839 1.875 1.875s-0.839 1.875-1.875 1.875-1.875-0.839-1.875-1.875 0.839-1.875 1.875-1.875zM9.375 7.5c1.036 0 1.875 0.839 1.875 1.875s-0.839 1.875-1.875 1.875-1.875-0.839-1.875-1.875 0.839-1.875 1.875-1.875zM20.628 22.873c-1.148-1.909-3.239-3.186-5.628-3.186s-4.48 1.277-5.628 3.186l-2.412-1.447c1.639-2.727 4.626-4.551 8.040-4.551s6.4 1.824 8.040 4.551l-2.412 1.447z"></path>
</svg>
