<!-- Generated by IcoMoon.io -->
<svg version="1.1" xmlns="http://www.w3.org/2000/svg" width="30" height="30" viewBox="0 0 30 30">
<title>share2</title>
<path fill="#fff" d="M25.313 20.625c-1.323 0-2.517 0.549-3.369 1.431l-12.627-6.314c0.038-0.242 0.059-0.489 0.059-0.742s-0.021-0.5-0.059-0.742l12.627-6.314c0.852 0.882 2.046 1.431 3.369 1.431 2.589 0 4.688-2.099 4.688-4.688s-2.099-4.688-4.688-4.688-4.688 2.099-4.688 4.688c0 0.253 0.021 0.5 0.059 0.742l-12.627 6.314c-0.852-0.882-2.046-1.431-3.369-1.431-2.589 0-4.688 2.099-4.688 4.688s2.099 4.688 4.688 4.688c1.323 0 2.517-0.549 3.369-1.431l12.627 6.314c-0.038 0.242-0.059 0.489-0.059 0.742 0 2.589 2.099 4.688 4.688 4.688s4.688-2.099 4.688-4.688c0-2.589-2.099-4.688-4.688-4.688z"></path>
</svg>
