<!-- Generated by IcoMoon.io -->
<svg version="1.1" xmlns="http://www.w3.org/2000/svg" width="30" height="30" viewBox="0 0 30 30">
<title>shift</title>
<path fill="#fff" d="M19.688 26.25h-9.375c-0.518 0-0.938-0.42-0.938-0.938v-10.313h-3.75c-0.379 0-0.721-0.228-0.866-0.579s-0.065-0.754 0.203-1.022l9.375-9.375c0.366-0.366 0.96-0.366 1.326 0l9.375 9.375c0.268 0.268 0.348 0.671 0.203 1.022s-0.487 0.579-0.866 0.579h-3.75v10.313c0 0.518-0.42 0.938-0.938 0.938zM11.25 24.375h7.5v-10.313c0-0.518 0.42-0.938 0.938-0.938h2.424l-7.112-7.112-7.112 7.112h2.424c0.518 0 0.938 0.42 0.938 0.938v10.313z"></path>
</svg>
