<!-- Generated by IcoMoon.io -->
<svg version="1.1" xmlns="http://www.w3.org/2000/svg" width="30" height="30" viewBox="0 0 30 30">
<title>shuffle</title>
<path fill="#fff" d="M22.5 20.625h-2.973l-4.688-4.688 4.688-4.688h2.973v4.688l6.563-6.563-6.563-6.563v4.688h-3.75c-0.497 0-0.974 0.198-1.326 0.549l-5.237 5.237-5.237-5.237c-0.352-0.352-0.829-0.549-1.326-0.549h-5.625v3.75h4.848l4.688 4.688-4.688 4.688h-4.848v3.75h5.625c0.497 0 0.974-0.198 1.326-0.549l5.237-5.237 5.237 5.237c0.352 0.352 0.829 0.549 1.326 0.549h3.75v4.688l6.563-6.563-6.563-6.563v4.688z"></path>
</svg>
