<!-- Generated by IcoMoon.io -->
<svg version="1.1" xmlns="http://www.w3.org/2000/svg" width="30" height="30" viewBox="0 0 30 30">
<title>skype</title>
<path fill="#fff" d="M12.469 1.096c-0.047-0.029-0.1-0.053-0.146-0.076-0.053 0.012-0.1 0.018-0.152 0.029l0.299 0.047z"></path>
<path fill="#fff" d="M1.078 12.334c-0.012 0.053-0.018 0.105-0.023 0.152 0.029 0.047 0.047 0.094 0.076 0.141l-0.053-0.293z"></path>
<path fill="#fff" d="M28.91 17.654c0.012-0.053 0.018-0.105 0.029-0.158-0.029-0.047-0.047-0.094-0.076-0.141l0.047 0.299z"></path>
<path fill="#fff" d="M17.344 28.799c0.047 0.029 0.1 0.053 0.146 0.076 0.053-0.012 0.105-0.018 0.158-0.023l-0.305-0.053z"></path>
<path fill="#fff" d="M28.939 17.496c-0.012 0.053-0.018 0.105-0.029 0.158l-0.053-0.305c0.029 0.053 0.053 0.1 0.082 0.146 0.152-0.844 0.234-1.705 0.234-2.566 0-1.91-0.375-3.768-1.113-5.514-0.715-1.688-1.734-3.205-3.035-4.506s-2.818-2.32-4.5-3.035c-1.746-0.738-3.604-1.113-5.514-1.113-0.902 0-1.805 0.082-2.684 0.252 0 0-0.006 0-0.006 0 0.047 0.023 0.1 0.047 0.146 0.076l-0.299-0.047c0.053-0.012 0.1-0.018 0.152-0.029-1.207-0.639-2.561-0.984-3.932-0.984-2.238 0-4.348 0.873-5.93 2.455s-2.455 3.691-2.455 5.93c0 1.424 0.369 2.83 1.055 4.066 0.012-0.053 0.018-0.105 0.023-0.152l0.053 0.299c-0.029-0.047-0.053-0.094-0.076-0.141-0.141 0.803-0.211 1.623-0.211 2.443 0 1.91 0.375 3.768 1.113 5.514 0.715 1.688 1.734 3.199 3.035 4.5s2.818 2.32 4.506 3.035c1.746 0.738 3.604 1.113 5.514 1.113 0.832 0 1.664-0.076 2.479-0.223-0.047-0.029-0.094-0.053-0.146-0.076l0.305 0.053c-0.053 0.012-0.105 0.018-0.158 0.023 1.254 0.709 2.678 1.090 4.125 1.090 2.238 0 4.348-0.873 5.93-2.455s2.455-3.691 2.455-5.93c-0.006-1.424-0.375-2.83-1.066-4.078zM15.064 23.607c-5.033 0-7.283-2.473-7.283-4.33 0-0.949 0.703-1.617 1.67-1.617 2.156 0 1.594 3.094 5.613 3.094 2.057 0 3.193-1.119 3.193-2.262 0-0.686-0.34-1.447-1.693-1.781l-4.477-1.119c-3.604-0.902-4.26-2.854-4.26-4.688 0-3.803 3.58-5.232 6.943-5.232 3.1 0 6.75 1.711 6.75 3.996 0 0.979-0.85 1.547-1.816 1.547-1.84 0-1.5-2.543-5.203-2.543-1.84 0-2.854 0.832-2.854 2.021s1.453 1.57 2.713 1.857l3.316 0.738c3.627 0.809 4.547 2.93 4.547 4.922 0 3.088-2.373 5.396-7.16 5.396z"></path>
</svg>
