<!-- Generated by IcoMoon.io -->
<svg version="1.1" xmlns="http://www.w3.org/2000/svg" width="30" height="30" viewBox="0 0 30 30">
<title>sphere</title>
<path fill="#fff" d="M14.063 1.875c-7.766 0-14.063 6.296-14.063 14.063s6.296 14.063 14.063 14.063c7.767 0 14.063-6.296 14.063-14.063s-6.296-14.063-14.063-14.063zM22.019 20.625c0.251-1.185 0.41-2.443 0.462-3.75h3.734c-0.098 1.295-0.399 2.552-0.899 3.75h-3.297zM6.106 11.25c-0.251 1.185-0.41 2.443-0.462 3.75h-3.734c0.098-1.295 0.399-2.552 0.899-3.75h3.297zM20.099 11.25c0.282 1.2 0.451 2.457 0.506 3.75h-5.605v-3.75h5.099zM15 9.375v-5.488c0.427 0.124 0.851 0.333 1.266 0.626 0.779 0.549 1.524 1.395 2.154 2.446 0.436 0.727 0.813 1.536 1.128 2.417h-4.549zM9.704 6.958c0.631-1.051 1.376-1.897 2.154-2.446 0.415-0.293 0.839-0.502 1.266-0.626v5.488h-4.549c0.315-0.881 0.692-1.69 1.128-2.417zM13.125 11.25v3.75h-5.605c0.055-1.293 0.225-2.55 0.506-3.75h5.099zM2.809 20.625c-0.5-1.198-0.801-2.455-0.899-3.75h3.734c0.052 1.307 0.21 2.565 0.462 3.75h-3.297zM7.52 16.875h5.605v3.75h-5.099c-0.282-1.2-0.451-2.457-0.506-3.75zM13.125 22.5v5.488c-0.427-0.124-0.851-0.333-1.266-0.626-0.779-0.549-1.524-1.395-2.154-2.446-0.436-0.727-0.813-1.536-1.128-2.417h4.549zM18.421 24.917c-0.631 1.051-1.376 1.897-2.154 2.446-0.416 0.293-0.839 0.502-1.266 0.626v-5.488h4.549c-0.315 0.881-0.692 1.69-1.128 2.417zM15 20.625v-3.75h5.605c-0.055 1.293-0.225 2.55-0.506 3.75h-5.099zM22.481 15c-0.052-1.307-0.21-2.565-0.462-3.75h3.297c0.5 1.198 0.801 2.455 0.899 3.75h-3.734zM24.336 9.375h-2.81c-0.546-1.722-1.3-3.231-2.207-4.436 1.246 0.596 2.375 1.395 3.361 2.381 0.629 0.629 1.182 1.317 1.655 2.055zM5.445 7.32c0.986-0.986 2.115-1.785 3.361-2.381-0.907 1.205-1.66 2.715-2.207 4.436h-2.81c0.473-0.739 1.026-1.426 1.655-2.055zM3.789 22.5h2.81c0.546 1.722 1.3 3.231 2.207 4.436-1.246-0.596-2.375-1.395-3.361-2.381-0.629-0.629-1.183-1.317-1.655-2.055zM22.68 24.555c-0.986 0.986-2.115 1.785-3.361 2.381 0.907-1.205 1.66-2.715 2.207-4.436h2.81c-0.473 0.739-1.026 1.426-1.655 2.055z"></path>
</svg>
