<!-- Generated by IcoMoon.io -->
<svg version="1.1" xmlns="http://www.w3.org/2000/svg" width="30" height="30" viewBox="0 0 30 30">
<title>spinner6</title>
<path fill="#fff" d="M11.25 3.75c0-2.071 1.679-3.75 3.75-3.75s3.75 1.679 3.75 3.75c0 2.071-1.679 3.75-3.75 3.75s-3.75-1.679-3.75-3.75zM23.174 15c0 0 0 0 0 0 0-1.699 1.377-3.076 3.076-3.076s3.076 1.377 3.076 3.076c0 0 0 0 0 0 0 1.699-1.377 3.076-3.076 3.076s-3.076-1.377-3.076-3.076zM20.169 22.955c0-1.539 1.247-2.786 2.786-2.786s2.786 1.247 2.786 2.786c0 1.539-1.247 2.786-2.786 2.786s-2.786-1.247-2.786-2.786zM12.476 26.25c0-1.394 1.13-2.524 2.524-2.524s2.524 1.13 2.524 2.524c0 1.394-1.13 2.524-2.524 2.524s-2.524-1.13-2.524-2.524zM4.759 22.955c0-1.262 1.023-2.286 2.286-2.286s2.286 1.023 2.286 2.286c0 1.262-1.023 2.286-2.286 2.286s-2.286-1.023-2.286-2.286zM1.68 15c0-1.143 0.927-2.070 2.070-2.070s2.070 0.927 2.070 2.070c0 1.143-0.927 2.070-2.070 2.070s-2.070-0.927-2.070-2.070zM5.17 7.045c0 0 0 0 0 0 0-1.036 0.839-1.875 1.875-1.875s1.875 0.839 1.875 1.875c0 0 0 0 0 0 0 1.036-0.839 1.875-1.875 1.875s-1.875-0.839-1.875-1.875zM26.351 7.045c0 1.876-1.521 3.397-3.397 3.397s-3.397-1.521-3.397-3.397c0-1.876 1.521-3.397 3.397-3.397s3.397 1.521 3.397 3.397z"></path>
</svg>
