<!-- Generated by IcoMoon.io -->
<svg version="1.1" xmlns="http://www.w3.org/2000/svg" width="30" height="30" viewBox="0 0 30 30">
<title>spinner2</title>
<path fill="#fff" d="M30 15c-0.037-1.959-0.462-3.912-1.247-5.697-0.782-1.787-1.918-3.406-3.312-4.744s-3.045-2.397-4.834-3.095c-1.787-0.701-3.709-1.036-5.607-0.995-1.899 0.038-3.789 0.45-5.518 1.212-1.73 0.759-3.297 1.859-4.592 3.21s-2.319 2.95-2.994 4.682c-0.677 1.73-1 3.589-0.959 5.428 0.038 1.839 0.438 3.666 1.176 5.338 0.735 1.673 1.801 3.188 3.109 4.44s2.856 2.241 4.53 2.892c1.673 0.653 3.47 0.964 5.248 0.924 1.779-0.038 3.544-0.426 5.158-1.14 1.616-0.711 3.080-1.743 4.288-3.007s2.163-2.761 2.791-4.378c0.382-0.98 0.641-2.004 0.778-3.041 0.037 0.002 0.073 0.004 0.11 0.004 1.036 0 1.875-0.839 1.875-1.875 0-0.053-0.003-0.105-0.007-0.156h0.007zM27.021 19.979c-0.688 1.559-1.684 2.971-2.906 4.136s-2.666 2.086-4.226 2.689c-1.559 0.606-3.231 0.892-4.889 0.852-1.658-0.038-3.299-0.402-4.799-1.069-1.501-0.664-2.862-1.626-3.984-2.804s-2.008-2.571-2.588-4.074c-0.582-1.502-0.856-3.112-0.816-4.71 0.038-1.598 0.39-3.176 1.033-4.62 0.64-1.444 1.567-2.753 2.703-3.832s2.476-1.93 3.922-2.486c1.445-0.558 2.992-0.82 4.53-0.781 1.538 0.038 3.054 0.378 4.44 0.997 1.387 0.617 2.644 1.509 3.68 2.601s1.852 2.382 2.384 3.77c0.535 1.388 0.785 2.873 0.745 4.35h0.007c-0.004 0.052-0.007 0.104-0.007 0.156 0 0.967 0.732 1.763 1.672 1.864-0.182 1.020-0.484 2.016-0.902 2.959z"></path>
</svg>
