<!-- Generated by IcoMoon.io -->
<svg version="1.1" xmlns="http://www.w3.org/2000/svg" width="30" height="30" viewBox="0 0 30 30">
<title>spinner7</title>
<path fill="#fff" d="M12.188 27.188c0-1.553 1.259-2.813 2.813-2.813s2.813 1.259 2.813 2.813c0 1.553-1.259 2.813-2.813 2.813s-2.813-1.259-2.813-2.813zM0 15c0-1.553 1.259-2.813 2.813-2.813s2.813 1.259 2.813 2.813c0 1.553-1.259 2.813-2.813 2.813s-2.813-1.259-2.813-2.813zM24.375 15c0-1.553 1.259-2.813 2.813-2.813s2.813 1.259 2.813 2.813c0 1.553-1.259 2.813-2.813 2.813s-2.813-1.259-2.813-2.813zM3.57 6.382c0-1.553 1.259-2.813 2.813-2.813s2.813 1.259 2.813 2.813c0 1.553-1.259 2.813-2.813 2.813s-2.813-1.259-2.813-2.813zM20.805 23.618c0-1.553 1.259-2.813 2.813-2.813s2.813 1.259 2.813 2.813c0 1.553-1.259 2.813-2.813 2.813s-2.813-1.259-2.813-2.813zM3.57 23.618c0-1.553 1.259-2.813 2.813-2.813s2.813 1.259 2.813 2.813c0 1.553-1.259 2.813-2.813 2.813s-2.813-1.259-2.813-2.813zM20.805 6.382c0-1.553 1.259-2.813 2.813-2.813s2.813 1.259 2.813 2.813c0 1.553-1.259 2.813-2.813 2.813s-2.813-1.259-2.813-2.813z"></path>
</svg>
