<!-- Generated by IcoMoon.io -->
<svg version="1.1" xmlns="http://www.w3.org/2000/svg" width="30" height="30" viewBox="0 0 30 30">
<title>spinner3</title>
<path fill="#fff" d="M15 8.88c-0.966 0-1.749-0.783-1.749-1.749v-5.246c0-0.966 0.783-1.749 1.749-1.749s1.749 0.783 1.749 1.749v5.246c0 0.966-0.783 1.749-1.749 1.749z"></path>
<path fill="#fff" d="M15 29.208c-0.604 0-1.093-0.489-1.093-1.093v-5.246c0-0.604 0.489-1.093 1.093-1.093s1.093 0.489 1.093 1.093v5.246c0 0.604-0.489 1.093-1.093 1.093z"></path>
<path fill="#fff" d="M11.067 9.825c-0.567 0-1.118-0.294-1.421-0.82l-2.623-4.543c-0.453-0.784-0.184-1.787 0.6-2.239s1.787-0.184 2.239 0.6l2.623 4.543c0.453 0.784 0.184 1.787-0.6 2.239-0.258 0.149-0.54 0.22-0.818 0.22z"></path>
<path fill="#fff" d="M21.558 27.341c-0.34 0-0.67-0.176-0.853-0.492l-2.623-4.543c-0.272-0.47-0.11-1.072 0.36-1.344s1.072-0.11 1.344 0.36l2.623 4.543c0.272 0.47 0.11 1.072-0.36 1.344-0.155 0.089-0.324 0.132-0.491 0.132z"></path>
<path fill="#fff" d="M8.184 12.596c-0.26 0-0.523-0.066-0.764-0.205l-4.543-2.623c-0.732-0.423-0.983-1.358-0.56-2.090s1.358-0.983 2.090-0.56l4.543 2.623c0.732 0.423 0.983 1.358 0.56 2.090-0.283 0.491-0.798 0.765-1.326 0.765z"></path>
<path fill="#fff" d="M26.357 22.432c-0.148 0-0.299-0.038-0.436-0.117l-4.543-2.623c-0.418-0.241-0.561-0.776-0.32-1.194s0.776-0.562 1.194-0.32l4.543 2.623c0.418 0.241 0.561 0.776 0.32 1.194-0.162 0.28-0.456 0.437-0.758 0.437z"></path>
<path fill="#fff" d="M7.131 16.421h-5.246c-0.785 0-1.421-0.636-1.421-1.421s0.636-1.421 1.421-1.421h5.246c0.785 0 1.421 0.636 1.421 1.421s-0.636 1.421-1.421 1.421z"></path>
<path fill="#fff" d="M28.115 15.874c-0 0 0 0 0 0h-5.246c-0.483-0-0.874-0.392-0.874-0.874s0.392-0.874 0.874-0.874c0 0 0 0 0 0h5.246c0.483 0 0.874 0.391 0.874 0.874s-0.392 0.874-0.874 0.874z"></path>
<path fill="#fff" d="M3.644 22.869c-0.453 0-0.894-0.235-1.137-0.656-0.362-0.627-0.147-1.429 0.48-1.791l4.543-2.623c0.627-0.362 1.429-0.147 1.792 0.48s0.147 1.429-0.48 1.792l-4.543 2.623c-0.207 0.119-0.432 0.176-0.654 0.176z"></path>
<path fill="#fff" d="M21.815 11.94c-0.302 0-0.596-0.157-0.758-0.437-0.241-0.418-0.098-0.953 0.32-1.194l4.543-2.623c0.418-0.241 0.953-0.098 1.194 0.32s0.098 0.953-0.32 1.194l-4.543 2.623c-0.138 0.080-0.288 0.117-0.436 0.117z"></path>
<path fill="#fff" d="M8.441 27.56c-0.204 0-0.411-0.052-0.6-0.161-0.575-0.332-0.772-1.067-0.44-1.642l2.623-4.543c0.332-0.575 1.067-0.772 1.642-0.44s0.772 1.067 0.44 1.642l-2.623 4.543c-0.223 0.386-0.627 0.601-1.042 0.601z"></path>
<path fill="#fff" d="M18.934 9.060c-0.148 0-0.299-0.038-0.436-0.117-0.418-0.241-0.561-0.776-0.32-1.194l2.623-4.543c0.241-0.418 0.776-0.562 1.194-0.32s0.561 0.776 0.32 1.194l-2.623 4.543c-0.162 0.28-0.456 0.437-0.758 0.437z"></path>
</svg>
