<!-- Generated by IcoMoon.io -->
<svg version="1.1" xmlns="http://www.w3.org/2000/svg" width="30" height="30" viewBox="0 0 30 30">
<title>spinner9</title>
<path fill="#fff" d="M15 0c-8.166 0-14.808 6.526-14.996 14.648 0.173-7.086 5.561-12.773 12.183-12.773 6.731 0 12.188 5.876 12.188 13.125 0 1.553 1.259 2.813 2.813 2.813s2.813-1.259 2.813-2.813c0-8.284-6.716-15-15-15zM15 30c8.166 0 14.808-6.526 14.996-14.648-0.173 7.086-5.561 12.773-12.183 12.773-6.731 0-12.188-5.876-12.188-13.125 0-1.553-1.259-2.813-2.813-2.813s-2.813 1.259-2.813 2.813c0 8.284 6.716 15 15 15z"></path>
</svg>
