<!-- Generated by IcoMoon.io -->
<svg version="1.1" xmlns="http://www.w3.org/2000/svg" width="30" height="30" viewBox="0 0 30 30">
<title>spoon-knife</title>
<path fill="#fff" d="M6.563 0c-3.107 0-5.625 2.938-5.625 6.563 0 3.103 1.846 5.703 4.327 6.387l-0.931 15.179c-0.063 1.029 0.729 1.871 1.76 1.871h0.938c1.031 0 1.823-0.842 1.76-1.871l-0.931-15.179c2.481-0.684 4.327-3.283 4.327-6.387 0-3.624-2.518-6.563-5.625-6.563zM25.469 0l-1.563 9.375h-1.172l-0.781-9.375h-0.781l-0.781 9.375h-1.172l-1.563-9.375h-0.781v12.188c0 0.518 0.42 0.938 0.938 0.938h2.442l-0.921 15.004c-0.063 1.029 0.729 1.871 1.76 1.871h0.938c1.031 0 1.823-0.842 1.76-1.871l-0.921-15.004h2.442c0.518 0 0.938-0.42 0.938-0.938v-12.188h-0.781z"></path>
</svg>
