<!-- Generated by IcoMoon.io -->
<svg version="1.1" xmlns="http://www.w3.org/2000/svg" width="30" height="30" viewBox="0 0 30 30">
<title>steam</title>
<path fill="#fff" d="M20.625 8.438c0-1.553 1.259-2.813 2.813-2.813s2.813 1.259 2.813 2.813c0 1.553-1.259 2.813-2.813 2.813s-2.813-1.259-2.813-2.813zM28.078 3.797c-2.563-2.563-6.718-2.563-9.281 0-1.042 1.042-1.661 2.348-1.855 3.703v0l-5.997 9.089c-0.806 0.041-1.605 0.247-2.343 0.616l-4.626-3.616c-1.071-0.837-2.617-0.648-3.454 0.423s-0.648 2.617 0.423 3.454l4.568 3.571c-0.497 1.957 0.020 4.117 1.551 5.648 2.312 2.312 6.060 2.312 8.371 0 1.42-1.42 1.967-3.382 1.643-5.22l7.297-6.533c1.355-0.194 2.661-0.813 3.703-1.855 2.563-2.563 2.563-6.718 0-9.281zM11.25 26.446c-2.179 0-3.946-1.767-3.946-3.946 0-0.021 0.001-0.041 0.002-0.062l1.96 1.532c0.45 0.352 0.984 0.522 1.514 0.522 0.731 0 1.455-0.325 1.941-0.945 0.837-1.071 0.648-2.617-0.423-3.454l-1.86-1.454c0.263-0.055 0.535-0.084 0.814-0.084 2.179 0 3.946 1.767 3.946 3.946s-1.767 3.946-3.946 3.946zM23.438 13.125c-2.589 0-4.688-2.099-4.688-4.688s2.099-4.688 4.688-4.688 4.688 2.099 4.688 4.688-2.099 4.688-4.688 4.688z"></path>
</svg>
