<!-- Generated by IcoMoon.io -->
<svg version="1.1" xmlns="http://www.w3.org/2000/svg" width="30" height="30" viewBox="0 0 30 30">
<title>strikethrough</title>
<path fill="#fff" d="M30 15v1.875h-6.87c0.806 1.128 1.245 2.423 1.245 3.75 0 2.077-1.074 4.073-2.947 5.477-1.739 1.304-4.022 2.023-6.428 2.023s-4.689-0.718-6.428-2.023c-1.873-1.404-2.947-3.401-2.947-5.477h3.75c0 2.033 2.576 3.75 5.625 3.75s5.625-1.717 5.625-3.75c0-2.033-2.576-3.75-5.625-3.75h-15v-1.875h8.775c-0.068-0.048-0.136-0.097-0.203-0.148-1.873-1.404-2.947-3.401-2.947-5.477s1.074-4.073 2.947-5.477c1.739-1.304 4.022-2.023 6.428-2.023s4.689 0.718 6.428 2.023c1.873 1.404 2.947 3.401 2.947 5.477h-3.75c0-2.033-2.576-3.75-5.625-3.75s-5.625 1.717-5.625 3.75c0 2.033 2.576 3.75 5.625 3.75 2.314 0 4.513 0.664 6.225 1.875h8.775z"></path>
</svg>
