<!-- Generated by IcoMoon.io -->
<svg version="1.1" xmlns="http://www.w3.org/2000/svg" width="30" height="30" viewBox="0 0 30 30">
<title>stumbleupon</title>
<path fill="#fff" d="M15 9.375c-1.031 0-1.875 0.844-1.875 1.875v7.5c0 3.1-2.525 5.625-5.625 5.625s-5.625-2.525-5.625-5.625v-3.75h3.75v3.75c0 1.031 0.844 1.875 1.875 1.875s1.875-0.844 1.875-1.875v-7.5c0-3.1 2.525-5.625 5.625-5.625s5.625 2.525 5.625 5.215v1.816l-2.402 0.703-1.348-0.703v-1.816c0-0.621-0.844-1.465-1.875-1.465z"></path>
<path fill="#fff" d="M28.125 18.75c0 3.1-2.525 5.625-5.625 5.625s-5.625-2.525-5.625-6.035v-3.633l1.348 0.703 2.402-0.703v3.633c0 1.441 0.844 2.285 1.875 2.285s1.875-0.844 1.875-1.875v-3.75h3.75v3.75z"></path>
</svg>
