<!-- Generated by IcoMoon.io -->
<svg version="1.1" xmlns="http://www.w3.org/2000/svg" width="30" height="30" viewBox="0 0 30 30">
<title>sun</title>
<path fill="#fff" d="M15 24.375c1.036 0 1.875 0.839 1.875 1.875v1.875c0 1.036-0.839 1.875-1.875 1.875s-1.875-0.839-1.875-1.875v-1.875c0-1.036 0.839-1.875 1.875-1.875zM15 5.625c-1.036 0-1.875-0.839-1.875-1.875v-1.875c0-1.036 0.839-1.875 1.875-1.875s1.875 0.839 1.875 1.875v1.875c0 1.036-0.839 1.875-1.875 1.875zM28.125 13.125c1.036 0 1.875 0.839 1.875 1.875s-0.839 1.875-1.875 1.875h-1.875c-1.036 0-1.875-0.839-1.875-1.875s0.839-1.875 1.875-1.875h1.875zM5.625 15c0 1.036-0.839 1.875-1.875 1.875h-1.875c-1.036 0-1.875-0.839-1.875-1.875s0.839-1.875 1.875-1.875h1.875c1.036 0 1.875 0.839 1.875 1.875zM24.281 21.629l1.326 1.326c0.732 0.732 0.732 1.919 0 2.652s-1.919 0.732-2.652 0l-1.326-1.326c-0.732-0.732-0.732-1.919 0-2.652s1.919-0.732 2.652 0zM5.719 8.371l-1.326-1.326c-0.732-0.732-0.732-1.919 0-2.652s1.919-0.732 2.652 0l1.326 1.326c0.732 0.732 0.732 1.919 0 2.652s-1.919 0.732-2.652 0zM24.281 8.371c-0.732 0.732-1.919 0.732-2.652 0s-0.732-1.919 0-2.652l1.326-1.326c0.732-0.732 1.919-0.732 2.652 0s0.732 1.919 0 2.652l-1.326 1.326zM5.719 21.629c0.732-0.732 1.919-0.732 2.652 0s0.732 1.92 0 2.652l-1.326 1.326c-0.732 0.732-1.919 0.732-2.652 0s-0.732-1.919 0-2.652l1.326-1.326z"></path>
<path fill="#fff" d="M15 7.5c-4.142 0-7.5 3.358-7.5 7.5s3.358 7.5 7.5 7.5c4.142 0 7.5-3.358 7.5-7.5s-3.358-7.5-7.5-7.5zM15 19.688c-2.589 0-4.688-2.099-4.688-4.688s2.099-4.688 4.688-4.688 4.688 2.099 4.688 4.688-2.099 4.688-4.688 4.688z"></path>
</svg>
