<!-- Generated by IcoMoon.io -->
<svg version="1.1" xmlns="http://www.w3.org/2000/svg" width="30" height="30" viewBox="0 0 30 30">
<title>switch</title>
<path fill="#fff" d="M18.75 4.295v3.983c1.061 0.463 2.036 1.125 2.879 1.968 1.771 1.771 2.746 4.125 2.746 6.629s-0.975 4.858-2.746 6.629c-1.771 1.771-4.125 2.746-6.629 2.746s-4.858-0.975-6.629-2.746c-1.771-1.771-2.746-4.125-2.746-6.629s0.975-4.858 2.746-6.629c0.843-0.843 1.818-1.505 2.879-1.968v-3.983c-5.421 1.614-9.375 6.635-9.375 12.58 0 7.249 5.876 13.125 13.125 13.125s13.125-5.876 13.125-13.125c0-5.946-3.954-10.967-9.375-12.58zM13.125 0h3.75v15h-3.75z"></path>
</svg>
