<!-- Generated by IcoMoon.io -->
<svg version="1.1" xmlns="http://www.w3.org/2000/svg" width="30" height="30" viewBox="0 0 30 30">
<title>target</title>
<path fill="#fff" d="M30 13.125h-2.957c-0.81-5.222-4.946-9.358-10.168-10.168v-2.957h-3.75v2.957c-5.222 0.81-9.358 4.946-10.168 10.168h-2.957v3.75h2.957c0.81 5.222 4.946 9.358 10.168 10.168v2.957h3.75v-2.957c5.222-0.81 9.358-4.946 10.168-10.168h2.957v-3.75zM23.227 13.125h-2.923c-0.565-1.598-1.831-2.865-3.429-3.429v-2.923c3.15 0.717 5.635 3.202 6.352 6.352zM15 16.875c-1.036 0-1.875-0.839-1.875-1.875s0.839-1.875 1.875-1.875c1.036 0 1.875 0.839 1.875 1.875s-0.839 1.875-1.875 1.875zM13.125 6.773v2.923c-1.598 0.565-2.865 1.831-3.429 3.429h-2.923c0.717-3.15 3.202-5.635 6.352-6.352zM6.773 16.875h2.923c0.565 1.598 1.831 2.865 3.429 3.429v2.923c-3.15-0.717-5.635-3.202-6.352-6.352zM16.875 23.227v-2.923c1.598-0.565 2.865-1.831 3.429-3.429h2.923c-0.717 3.15-3.202 5.635-6.352 6.352z"></path>
</svg>
