<!-- Generated by IcoMoon.io -->
<svg version="1.1" xmlns="http://www.w3.org/2000/svg" width="30" height="30" viewBox="0 0 30 30">
<title>tongue2</title>
<path fill="#fff" d="M15 0c-8.284 0-15 6.716-15 15s6.716 15 15 15 15-6.716 15-15-6.716-15-15-15zM9.375 7.5c1.036 0 1.875 0.839 1.875 1.875s-0.839 1.875-1.875 1.875-1.875-0.839-1.875-1.875 0.839-1.875 1.875-1.875zM22.5 18.75h-1.875v2.813c0 1.553-1.259 2.813-2.813 2.813s-2.813-1.259-2.813-2.813v-2.813h-7.5v-1.875h15v1.875zM20.625 11.25c-1.036 0-1.875-0.839-1.875-1.875s0.839-1.875 1.875-1.875 1.875 0.839 1.875 1.875-0.839 1.875-1.875 1.875z"></path>
</svg>
