<!-- Generated by IcoMoon.io -->
<svg version="1.1" xmlns="http://www.w3.org/2000/svg" width="30" height="30" viewBox="0 0 30 30">
<title>tree</title>
<path fill="#fff" d="M28.594 22.5h-0.469v-6.094c0-1.809-1.472-3.281-3.281-3.281h-7.969v-3.75h0.469c0.773 0 1.406-0.633 1.406-1.406v-4.688c0-0.773-0.633-1.406-1.406-1.406h-4.688c-0.773 0-1.406 0.633-1.406 1.406v4.688c0 0.773 0.633 1.406 1.406 1.406h0.469v3.75h-7.969c-1.809 0-3.281 1.472-3.281 3.281v6.094h-0.469c-0.773 0-1.406 0.633-1.406 1.406v4.688c0 0.773 0.633 1.406 1.406 1.406h4.688c0.773 0 1.406-0.633 1.406-1.406v-4.688c0-0.773-0.633-1.406-1.406-1.406h-0.469v-5.625h7.5v5.625h-0.469c-0.773 0-1.406 0.633-1.406 1.406v4.688c0 0.773 0.633 1.406 1.406 1.406h4.688c0.773 0 1.406-0.633 1.406-1.406v-4.688c0-0.773-0.633-1.406-1.406-1.406h-0.469v-5.625h7.5v5.625h-0.469c-0.773 0-1.406 0.633-1.406 1.406v4.688c0 0.773 0.633 1.406 1.406 1.406h4.688c0.773 0 1.406-0.633 1.406-1.406v-4.688c0-0.773-0.633-1.406-1.406-1.406zM5.625 28.125h-3.75v-3.75h3.75v3.75zM16.875 28.125h-3.75v-3.75h3.75v3.75zM13.125 7.5v-3.75h3.75v3.75h-3.75zM28.125 28.125h-3.75v-3.75h3.75v3.75z"></path>
</svg>
