<!-- Generated by IcoMoon.io -->
<svg version="1.1" xmlns="http://www.w3.org/2000/svg" width="30" height="30" viewBox="0 0 30 30">
<title>trello</title>
<path fill="#fff" d="M27.188 0h-24.375c-1.547 0-2.813 1.266-2.813 2.813v24.375c0 1.547 1.266 2.813 2.813 2.813h24.375c1.547 0 2.813-1.266 2.813-2.813v-24.375c0-1.547-1.266-2.813-2.813-2.813zM13.125 22.5c0 1.031-0.844 1.875-1.875 1.875h-3.75c-1.031 0-1.875-0.844-1.875-1.875v-15c0-1.031 0.844-1.875 1.875-1.875h3.75c1.031 0 1.875 0.844 1.875 1.875v15zM24.375 16.875c0 1.031-0.844 1.875-1.875 1.875h-3.75c-1.031 0-1.875-0.844-1.875-1.875v-9.375c0-1.031 0.844-1.875 1.875-1.875h3.75c1.031 0 1.875 0.844 1.875 1.875v9.375z"></path>
</svg>
