<!-- Generated by IcoMoon.io -->
<svg version="1.1" xmlns="http://www.w3.org/2000/svg" width="30" height="30" viewBox="0 0 30 30">
<title>truck</title>
<path fill="#fff" d="M30 16.875l-3.75-7.5h-5.625v-3.75c0-1.031-0.844-1.875-1.875-1.875h-16.875c-1.031 0-1.875 0.844-1.875 1.875v15l1.875 1.875h2.378c-0.319 0.552-0.503 1.192-0.503 1.875 0 2.071 1.679 3.75 3.75 3.75s3.75-1.679 3.75-3.75c0-0.683-0.184-1.323-0.503-1.875h10.381c-0.319 0.552-0.503 1.192-0.503 1.875 0 2.071 1.679 3.75 3.75 3.75s3.75-1.679 3.75-3.75c0-0.683-0.184-1.323-0.503-1.875h2.378v-5.625zM20.625 16.875v-5.625h3.887l2.813 5.625h-6.699z"></path>
</svg>
