<!-- Generated by IcoMoon.io -->
<svg version="1.1" xmlns="http://www.w3.org/2000/svg" width="30" height="30" viewBox="0 0 30 30">
<title>tux</title>
<path fill="#fff" d="M16.631 21.589c-2.401 1.117-4.634 1.105-6.133 0.997-1.789-0.129-3.227-0.619-3.86-1.047-0.39-0.264-0.919-0.162-1.183 0.228s-0.162 0.92 0.228 1.183c1.017 0.688 2.814 1.2 4.692 1.335 0.318 0.023 0.668 0.037 1.044 0.037 1.634 0 3.71-0.156 5.93-1.189 0.427-0.199 0.612-0.705 0.413-1.132s-0.705-0.611-1.132-0.413zM26.102 20.327c0.082-7.403 0.843-21.393-13.329-20.262-13.992 1.126-10.282 15.907-10.491 20.858-0.185 2.619-1.054 5.82-2.282 9.078h3.782c0.389-1.381 0.675-2.746 0.798-4.047 0.228 0.159 0.472 0.313 0.732 0.46 0.424 0.25 0.788 0.581 1.173 0.933 0.901 0.821 1.922 1.751 3.917 1.868 0.134 0.008 0.269 0.012 0.401 0.012 2.018 0 3.399-0.883 4.508-1.593 0.531-0.34 0.991-0.634 1.423-0.775 1.228-0.384 2.301-1.005 3.103-1.794 0.125-0.123 0.241-0.25 0.35-0.379 0.447 1.637 1.058 3.479 1.737 5.317h8.076c-1.939-2.995-3.939-5.929-3.898-9.673zM3.636 16.299c0-0 0-0.001-0-0.001-0.139-2.416 1.017-4.448 2.582-4.539s2.946 1.794 3.085 4.21c0 0 0 0.001 0 0.001 0.008 0.13 0.011 0.259 0.011 0.387-0.496 0.125-0.943 0.306-1.344 0.517-0.002-0.018-0.003-0.036-0.004-0.054 0-0 0-0.001 0-0.001-0.134-1.371-0.866-2.407-1.636-2.313s-1.286 1.282-1.152 2.653c0 0 0 0.001 0 0.001 0.058 0.598 0.231 1.132 0.47 1.536-0.060 0.047-0.228 0.17-0.422 0.312-0.146 0.106-0.323 0.236-0.537 0.393-0.582-0.764-0.982-1.863-1.053-3.102zM19.49 22.271c-0.056 1.277-1.726 2.478-3.269 2.96l-0.009 0.003c-0.642 0.208-1.214 0.574-1.819 0.962-1.018 0.651-2.070 1.324-3.59 1.324-0.1 0-0.202-0.003-0.303-0.009-1.392-0.081-2.043-0.675-2.868-1.426-0.435-0.396-0.884-0.806-1.464-1.146l-0.012-0.007c-1.251-0.706-2.028-1.584-2.077-2.349-0.025-0.38 0.145-0.71 0.503-0.979 0.78-0.585 1.303-0.967 1.649-1.22 0.384-0.281 0.5-0.366 0.586-0.447 0.061-0.058 0.128-0.123 0.199-0.192 0.716-0.697 1.915-1.862 3.754-1.862 1.125 0 2.37 0.434 3.696 1.286 0.625 0.407 1.168 0.594 1.857 0.832 0.473 0.163 1.010 0.349 1.728 0.656l0.012 0.005c0.67 0.276 1.462 0.778 1.426 1.609zM19.12 19.272c-0.129-0.065-0.263-0.127-0.403-0.184-0.648-0.277-1.167-0.465-1.598-0.615 0.238-0.466 0.386-1.046 0.399-1.677 0-0 0-0.001 0-0.001 0.033-1.534-0.741-2.78-1.728-2.783s-1.815 1.24-1.848 2.774c0 0 0 0.001 0 0.001-0.001 0.050-0.001 0.1-0.001 0.15-0.608-0.28-1.206-0.483-1.792-0.608-0.003-0.058-0.006-0.115-0.007-0.173 0-0 0-0.001 0-0.001-0.057-2.795 1.658-5.109 3.831-5.168s3.979 2.159 4.036 4.954c0 0.001 0 0.001 0 0.002 0.026 1.264-0.312 2.428-0.89 3.33z"></path>
</svg>
