<!-- Generated by IcoMoon.io -->
<svg version="1.1" xmlns="http://www.w3.org/2000/svg" width="30" height="30" viewBox="0 0 30 30">
<title>twitter</title>
<path fill="#fff" d="M30 6.633c-1.102 0.492-2.291 0.82-3.533 0.967 1.271-0.762 2.244-1.969 2.707-3.404-1.189 0.703-2.508 1.219-3.908 1.494-1.125-1.195-2.725-1.939-4.494-1.939-3.398 0-6.152 2.754-6.152 6.152 0 0.48 0.053 0.949 0.158 1.4-5.115-0.258-9.65-2.707-12.686-6.434-0.527 0.908-0.832 1.969-0.832 3.094 0 2.133 1.084 4.020 2.736 5.121-1.008-0.029-1.957-0.311-2.789-0.768 0 0.023 0 0.053 0 0.076 0 2.982 2.121 5.473 4.939 6.035-0.516 0.141-1.061 0.217-1.623 0.217-0.398 0-0.779-0.041-1.16-0.111 0.785 2.443 3.059 4.225 5.748 4.277-2.109 1.652-4.758 2.637-7.646 2.637-0.498 0-0.984-0.029-1.471-0.088 2.73 1.752 5.965 2.766 9.439 2.766 11.32 0 17.514-9.381 17.514-17.514 0-0.27-0.006-0.533-0.018-0.797 1.201-0.861 2.244-1.945 3.070-3.182z"></path>
</svg>
