<!-- Generated by IcoMoon.io -->
<svg version="1.1" xmlns="http://www.w3.org/2000/svg" width="30" height="30" viewBox="0 0 30 30">
<title>unlocked</title>
<path fill="#fff" d="M22.5 1.875c3.102 0 5.625 2.523 5.625 5.625v5.625h-3.75v-5.625c0-1.034-0.841-1.875-1.875-1.875h-3.75c-1.034 0-1.875 0.841-1.875 1.875v5.625h0.469c0.773 0 1.406 0.633 1.406 1.406v14.063c0 0.773-0.633 1.406-1.406 1.406h-15.938c-0.773 0-1.406-0.633-1.406-1.406v-14.063c0-0.773 0.633-1.406 1.406-1.406h11.719v-5.625c0-3.102 2.523-5.625 5.625-5.625h3.75z"></path>
</svg>
