<!-- Generated by IcoMoon.io -->
<svg version="1.1" xmlns="http://www.w3.org/2000/svg" width="34" height="30" viewBox="0 0 34 30">
<title>users</title>
<path fill="#fff" d="M22.5 22.577v-1.546c2.065-1.164 3.75-4.066 3.75-6.968 0-4.66 0-8.438-5.625-8.438s-5.625 3.778-5.625 8.438c0 2.902 1.685 5.804 3.75 6.968v1.546c-6.36 0.52-11.25 3.645-11.25 7.423h26.25c0-3.778-4.89-6.904-11.25-7.423z"></path>
<path fill="#fff" d="M9.586 23.301c1.62-1.059 3.635-1.864 5.853-2.356-0.441-0.521-0.841-1.102-1.186-1.729-0.891-1.618-1.362-3.4-1.362-5.153 0-2.521 0-4.902 0.896-6.848 0.87-1.89 2.435-3.061 4.665-3.501-0.496-2.241-1.815-3.713-5.327-3.713-5.625 0-5.625 3.778-5.625 8.438 0 2.902 1.685 5.804 3.75 6.968v1.546c-6.36 0.52-11.25 3.645-11.25 7.423h8.174c0.425-0.378 0.896-0.737 1.412-1.074z"></path>
</svg>
