<!-- Generated by IcoMoon.io -->
<svg version="1.1" xmlns="http://www.w3.org/2000/svg" width="30" height="30" viewBox="0 0 30 30">
<title>vimeo</title>
<path fill="#fff" d="M29.988 8.027c-0.135 2.918-2.174 6.92-6.117 11.994-4.078 5.297-7.529 7.951-10.354 7.951-1.746 0-3.229-1.611-4.436-4.84-0.809-2.959-1.611-5.918-2.42-8.877-0.896-3.229-1.857-4.84-2.889-4.84-0.223 0-1.008 0.475-2.355 1.412l-1.412-1.816c1.482-1.301 2.941-2.602 4.377-3.902 1.975-1.705 3.457-2.602 4.447-2.695 2.332-0.223 3.773 1.371 4.312 4.787 0.58 3.686 0.984 5.977 1.213 6.873 0.674 3.059 1.412 4.588 2.221 4.588 0.627 0 1.57-0.99 2.83-2.977 1.254-1.98 1.928-3.492 2.021-4.529 0.182-1.711-0.492-2.572-2.021-2.572-0.721 0-1.459 0.164-2.221 0.492 1.477-4.828 4.289-7.172 8.449-7.037 3.076 0.082 4.529 2.080 4.354 5.988z"></path>
</svg>
