<!-- Generated by IcoMoon.io -->
<svg version="1.1" xmlns="http://www.w3.org/2000/svg" width="30" height="30" viewBox="0 0 30 30">
<title>windows</title>
<path fill="#fff" d="M12.077 14.997c-1.398-0.718-2.756-1.083-4.039-1.083-0.174 0-0.35 0.005-0.526 0.021-1.637 0.135-3.132 0.567-4.094 0.903-0.255 0.094-0.517 0.193-0.786 0.302l-2.632 9.123c1.808-0.669 3.407-0.994 4.871-0.994 2.369 0 4.088 0.885 5.508 1.796 0.673-2.283 2.286-7.796 2.768-9.443-0.35-0.213-0.705-0.427-1.070-0.625zM15.479 17.317l-2.65 9.204c0.786 0.45 3.431 1.876 5.455 1.876 1.635 0 3.464-0.419 5.591-1.283l2.53-8.847c-1.718 0.554-3.366 0.836-4.906 0.836-2.811 0-4.779-0.911-6.020-1.786zM8.579 10.804c2.259 0.023 3.93 0.885 5.315 1.773l2.717-9.297c-0.573-0.328-2.074-1.145-3.16-1.424-0.714-0.167-1.465-0.252-2.262-0.252-1.517 0.029-3.175 0.409-5.065 1.166l-2.591 9.099c1.899-0.716 3.534-1.065 5.042-1.065 0.001 0 0.004 0 0.004 0zM30 5.804c-1.723 0.669-3.405 1.010-5.011 1.010-2.686 0-4.667-0.932-5.95-1.827l-2.694 9.323c1.809 1.163 3.758 1.754 5.804 1.754 1.668 0 3.397-0.401 5.14-1.192l-0.005-0.065 0.109-0.026 2.606-8.977z"></path>
</svg>
