<!-- Generated by IcoMoon.io -->
<svg version="1.1" xmlns="http://www.w3.org/2000/svg" width="30" height="30" viewBox="0 0 30 30">
<title>wrench</title>
<path fill="#fff" d="M29.383 23.961l-13.493-11.565c0.628-1.181 0.985-2.528 0.985-3.958 0-4.66-3.778-8.438-8.438-8.438-0.852 0-1.675 0.127-2.451 0.362l4.875 4.875c0.729 0.729 0.729 1.922 0 2.652l-2.973 2.973c-0.729 0.729-1.922 0.729-2.652 0l-4.875-4.875c-0.235 0.776-0.362 1.598-0.362 2.451 0 4.66 3.778 8.438 8.438 8.438 1.431 0 2.778-0.357 3.958-0.985l11.565 13.493c0.671 0.783 1.817 0.827 2.546 0.098l2.973-2.973c0.729-0.729 0.685-1.875-0.098-2.546z"></path>
</svg>
