<!-- Generated by IcoMoon.io -->
<svg version="1.1" xmlns="http://www.w3.org/2000/svg" width="30" height="30" viewBox="0 0 30 30">
<title>xing2</title>
<path fill="#fff" d="M4.559 5.924c-0.258 0-0.48 0.094-0.592 0.27-0.111 0.188-0.094 0.422 0.023 0.662l2.924 5.062c0.006 0.012 0.006 0.018 0 0.023l-4.594 8.121c-0.117 0.24-0.111 0.48 0 0.662 0.111 0.176 0.305 0.293 0.563 0.293h4.324c0.645 0 0.961-0.439 1.178-0.838 0 0 4.494-7.951 4.67-8.262-0.018-0.029-2.977-5.186-2.977-5.186-0.217-0.381-0.539-0.809-1.207-0.809h-4.312z"></path>
<path fill="#fff" d="M22.734 0c-0.645 0-0.926 0.404-1.16 0.826 0 0-9.322 16.529-9.627 17.074 0.018 0.029 6.146 11.279 6.146 11.279 0.217 0.381 0.545 0.826 1.207 0.826h4.324c0.258 0 0.463-0.1 0.574-0.275 0.117-0.188 0.111-0.428-0.012-0.668l-6.094-11.15c-0.006-0.012-0.006-0.018 0-0.029l9.58-16.939c0.117-0.24 0.123-0.48 0.012-0.668-0.111-0.176-0.316-0.275-0.574-0.275h-4.377z"></path>
</svg>
