<!-- Generated by IcoMoon.io -->
<svg version="1.1" xmlns="http://www.w3.org/2000/svg" width="30" height="30" viewBox="0 0 30 30">
<title>yelp</title>
<path fill="#fff" d="M17.838 19.145c-0.506 0.511-0.078 1.439-0.078 1.439l3.811 6.364c0 0 0.626 0.839 1.168 0.839 0.545 0 1.083-0.447 1.083-0.447l3.013-4.307c0 0 0.304-0.543 0.31-1.019 0.011-0.677-1.009-0.862-1.009-0.862l-7.133-2.291c-0 0-0.699-0.185-1.164 0.284zM17.477 15.937c0.365 0.619 1.372 0.439 1.372 0.439l7.117-2.080c0 0 0.97-0.395 1.108-0.92 0.136-0.526-0.16-1.161-0.16-1.161l-3.401-4.006c0 0-0.295-0.507-0.906-0.558-0.674-0.057-1.089 0.759-1.089 0.759l-4.022 6.328c0 0-0.355 0.63-0.019 1.2zM14.114 13.47c0.838-0.206 0.971-1.424 0.971-1.424l-0.057-10.133c0 0-0.126-1.25-0.688-1.589-0.881-0.534-1.142-0.255-1.394-0.218l-5.909 2.196c0 0-0.579 0.191-0.88 0.674-0.43 0.684 0.437 1.686 0.437 1.686l6.142 8.372c0 0 0.606 0.627 1.378 0.436zM12.655 17.57c0.021-0.782-0.938-1.251-0.938-1.251l-6.351-3.209c0 0-0.941-0.388-1.398-0.118-0.35 0.207-0.66 0.581-0.691 0.912l-0.414 5.092c0 0-0.062 0.882 0.167 1.284 0.324 0.57 1.389 0.173 1.389 0.173l7.415-1.639c0.288-0.194 0.793-0.211 0.821-1.245zM14.498 20.319c-0.637-0.327-1.398 0.35-1.398 0.35l-4.965 5.466c0 0-0.619 0.836-0.462 1.349 0.148 0.481 0.394 0.72 0.742 0.889l4.986 1.574c0 0 0.605 0.126 1.062-0.007 0.65-0.188 0.53-1.206 0.53-1.206l0.113-7.4c-0 0-0.025-0.713-0.608-1.014z"></path>
</svg>
