<!-- Generated by IcoMoon.io -->
<svg version="1.1" xmlns="http://www.w3.org/2000/svg" width="30" height="30" viewBox="0 0 30 30">
<title>youtube</title>
<path fill="#fff" d="M29.701 9c0 0-0.293-2.068-1.195-2.977-1.143-1.195-2.42-1.201-3.006-1.271-4.195-0.305-10.494-0.305-10.494-0.305h-0.012c0 0-6.299 0-10.494 0.305-0.586 0.070-1.863 0.076-3.006 1.271-0.902 0.908-1.189 2.977-1.189 2.977s-0.299 2.426-0.299 4.857v2.273c0 2.426 0.299 4.857 0.299 4.857s0.293 2.068 1.189 2.977c1.143 1.195 2.643 1.154 3.311 1.283 2.402 0.229 10.201 0.299 10.201 0.299s6.305-0.012 10.5-0.311c0.586-0.070 1.863-0.076 3.006-1.271 0.902-0.908 1.195-2.977 1.195-2.977s0.299-2.426 0.299-4.857v-2.273c-0.006-2.426-0.305-4.857-0.305-4.857zM11.9 18.891v-8.432l8.104 4.23-8.104 4.201z"></path>
</svg>
